<?xml version="1.0" encoding="UTF-8" standalone="no"?>
<svg
   xmlns:dc="http://purl.org/dc/elements/1.1/"
   xmlns:cc="http://creativecommons.org/ns#"
   xmlns:rdf="http://www.w3.org/1999/02/22-rdf-syntax-ns#"
   xmlns:svg="http://www.w3.org/2000/svg"
   xmlns="http://www.w3.org/2000/svg"
   xmlns:sodipodi="http://sodipodi.sourceforge.net/DTD/sodipodi-0.dtd"
   xmlns:inkscape="http://www.inkscape.org/namespaces/inkscape"
   viewBox="0 0 27 18"
   width="810"
   height="540"
   id="svg2"
   version="1.1"
   inkscape:version="0.47 r22583"
   sodipodi:docname="Merchant_Navy_of_Greece_flag_(1822-1828) (1).svg">
  <metadata
     id="metadata12">
    <rdf:RDF>
      <cc:Work
         rdf:about="">
        <dc:format>image/svg+xml</dc:format>
        <dc:type
           rdf:resource="http://purl.org/dc/dcmitype/StillImage" />
      </cc:Work>
    </rdf:RDF>
  </metadata>
  <defs
     id="defs10">
    <inkscape:perspective
       sodipodi:type="inkscape:persp3d"
       inkscape:vp_x="0 : 270 : 1"
       inkscape:vp_y="0 : 1000 : 0"
       inkscape:vp_z="810 : 270 : 1"
       inkscape:persp3d-origin="405 : 180 : 1"
       id="perspective14" />
  </defs>
  <sodipodi:namedview
     pagecolor="#ffffff"
     bordercolor="#666666"
     borderopacity="1"
     objecttolerance="10"
     gridtolerance="10"
     guidetolerance="10"
     inkscape:pageopacity="0"
     inkscape:pageshadow="2"
     inkscape:window-width="1280"
     inkscape:window-height="752"
     id="namedview8"
     showgrid="false"
     inkscape:zoom="0.6180637"
     inkscape:cx="718.94494"
     inkscape:cy="257.36305"
     inkscape:window-x="0"
     inkscape:window-y="0"
     inkscape:window-maximized="1"
     inkscape:current-layer="svg2">
    <inkscape:grid
       type="xygrid"
       id="grid2820" />
  </sodipodi:namedview>
  <rect
     style="fill:#ffffff;fill-opacity:1;stroke:none"
     id="rect2852"
     width="27"
     height="17.999998"
     x="0"
     y="0" />
  <path
     style="fill:#0d5eaf;fill-opacity:1;stroke:none"
     d="m 4,0 0,3.9999996 -3.9999996,0 0,1.9999998 3.9999996,0 0,3.9999996 1.9999998,0 0,-3.9999996 20.9999982,0 0,-1.9999998 -20.9999982,0 L 5.9999998,0 4,0 z m 5.9999994,0 0,1.9999998 16.9999986,0 L 26.999998,0 9.9999994,0 z m 0,7.9999992 0,1.9999998 16.9999986,0 0,-1.9999998 -16.9999986,0 z M 4e-7,11.999999 l 0,2 26.9999976,0 0,-2 -26.9999976,0 z m 0,3.999999 0,2 26.9999976,0 0,-2 -26.9999976,0 z"
     id="rect2827" />
</svg>
