<?xml version="1.0" encoding="UTF-8" standalone="no"?>
<!-- Created with Inkscape (http://www.inkscape.org/) -->
<svg
   xmlns:dc="http://purl.org/dc/elements/1.1/"
   xmlns:cc="http://creativecommons.org/ns#"
   xmlns:rdf="http://www.w3.org/1999/02/22-rdf-syntax-ns#"
   xmlns:svg="http://www.w3.org/2000/svg"
   xmlns="http://www.w3.org/2000/svg"
   xmlns:sodipodi="http://sodipodi.sourceforge.net/DTD/sodipodi-0.dtd"
   xmlns:inkscape="http://www.inkscape.org/namespaces/inkscape"
   id="svg2387"
   sodipodi:version="0.32"
   inkscape:version="0.46"
   width="1616"
   height="1616"
   version="1.0"
   sodipodi:docname="ACS_logo.svg"
   inkscape:output_extension="org.inkscape.output.svg.inkscape">
  <metadata
     id="metadata2392">
    <rdf:RDF>
      <cc:Work
         rdf:about="">
        <dc:format>image/svg+xml</dc:format>
        <dc:type
           rdf:resource="http://purl.org/dc/dcmitype/StillImage" />
      </cc:Work>
    </rdf:RDF>
  </metadata>
  <defs
     id="defs2390">
    <inkscape:perspective
       sodipodi:type="inkscape:persp3d"
       inkscape:vp_x="0 : 526.18109 : 1"
       inkscape:vp_y="0 : 1000 : 0"
       inkscape:vp_z="744.09448 : 526.18109 : 1"
       inkscape:persp3d-origin="372.04724 : 350.78739 : 1"
       id="perspective2394" />
  </defs>
  <sodipodi:namedview
     inkscape:window-height="850"
     inkscape:window-width="1440"
     inkscape:pageshadow="2"
     inkscape:pageopacity="0.0"
     guidetolerance="10.0"
     gridtolerance="10.0"
     objecttolerance="10.0"
     borderopacity="1.0"
     bordercolor="#666666"
     pagecolor="#ffffff"
     id="base"
     showgrid="false"
     inkscape:zoom="0.28589109"
     inkscape:cx="808"
     inkscape:cy="808"
     inkscape:window-x="-8"
     inkscape:window-y="-8"
     inkscape:current-layer="svg2387" />
  <g
     id="g2398">
    <path
       style="fill:#fce0a6"
       d="M 435.91347,1137.9815 C 236.58606,937.17537 73.332652,772.40449 73.128115,771.82405 C 72.923579,771.2436 73.373579,770.37763 74.128115,769.89966 C 75.658932,768.92995 1532.8933,768.63809 1535.4182,769.60699 C 1536.2882,769.94083 1536.9891,770.72833 1536.9758,771.35699 C 1536.9465,772.74287 801.37045,1502.3777 799.58512,1502.7918 C 798.89312,1502.9524 635.24088,1338.7877 435.91347,1137.9815 z M 512.62621,756.71932 C 508.2508,751.37971 504.39048,743.18432 502.92165,736.11671 C 499.71975,720.71006 508.2006,704.69451 526.32252,691.92563 C 530.0749,689.28167 533.6749,687.32225 534.32252,687.57137 C 534.97013,687.82049 536.6813,692.91815 538.12512,698.8995 C 540.85796,710.22097 544.26462,718.74558 547.74689,722.97646 C 549.65151,725.29053 549.96249,725.35803 552.48903,724.00587 C 555.00932,722.65705 564.92977,709.80311 573.38399,696.93223 C 575.39544,693.86996 579.89614,684.40262 583.38555,675.8937 C 586.87496,667.38478 590.47968,658.97309 591.39603,657.20106 C 593.53414,653.06641 601.82735,647.57245 610.60701,644.47445 C 622.30097,640.34811 623.55778,641.19499 619.06954,650.17675 C 615.37636,657.56745 615.23442,660.32533 618.38505,663.47596 C 622.02883,667.11974 628.09175,668.32642 639.38293,667.65508 C 644.81854,667.33189 649.49147,666.84186 649.76721,666.56612 C 650.04296,666.29038 649.46676,662.24404 648.48678,657.57425 C 644.9752,640.84101 647.97448,628.48768 658.81497,615.03476 C 665.19209,607.12082 670.35074,597.37265 672.59906,588.98731 C 673.55573,585.41929 674.6719,582.11291 675.07943,581.6398 C 675.94364,580.63653 684.4897,583.27032 691.09002,586.57406 C 696.82335,589.44383 700.66999,593.78735 706.63182,604.1234 L 711.30331,612.22238 L 713.45339,604.86119 C 714.63593,600.81254 717.95888,592.97396 720.83772,587.44212 C 726.89992,575.79329 734.88421,567.20237 754,551.76021 C 766.33997,541.7917 771.88169,535.26129 781.18477,519.72543 C 784.68122,513.88647 787.33196,510.5 788.40593,510.5 C 789.54175,510.5 790.90696,512.47863 792.53501,516.48435 C 793.87273,519.77575 797.05833,525.52914 799.61412,529.26967 C 807.1379,540.2811 809.32172,546.70492 809.80614,559.25 C 810.03445,565.1625 810.46828,570 810.77021,570 C 811.07214,570 813.87548,567.5617 816.99984,564.58156 C 821.01734,560.74952 823.97159,558.84277 827.09026,558.06897 C 840.99769,554.61825 844.79149,553.42076 855.60367,549.06888 C 862.14665,546.43535 868.0625,544.49064 868.75,544.74731 C 870.69289,545.47266 870.25972,552.74203 867.43792,566.76642 C 864.49036,581.4158 864.69883,587.27917 868.65242,600.92654 C 871.01707,609.08904 879.24113,630.57446 880.47203,631.80536 C 880.80584,632.13917 882.56887,631.60992 884.38987,630.62924 C 887.57436,628.91428 892.76181,621.77327 901.06719,607.67134 C 905.32422,600.44323 913.66991,592.60099 922.00139,588 C 928.97379,584.14955 934,577.78405 934,572.80422 C 934,571.2619 934.48191,570 935.07091,570 C 935.6599,570 939.44776,572.99418 943.48836,576.65374 C 954.09155,586.25701 955.9552,591.54534 955.94468,612 C 955.94114,618.875 955.50474,627.8401 954.97489,631.92243 C 954.44505,636.00477 954.18098,639.51432 954.38809,639.72142 C 954.59519,639.92853 957.77864,637.81669 961.46241,635.02846 C 971.89498,627.13207 975.38876,625.6512 981.96445,626.3385 C 988.40264,627.01142 1001.2033,630.75249 1002.1336,632.23305 C 1002.4821,632.78769 1001.3571,635.50992 999.63364,638.28245 C 996.63682,643.10333 996.5,643.78571 996.5,653.91171 C 996.5,663.53765 996.75566,665.00453 999.31288,670.0511 C 1002.5109,676.36221 1011.6925,689 1013.0796,689 C 1013.5858,689 1014,688.12323 1014,687.05162 C 1014,685.98001 1015.1315,681.52148 1016.5144,677.14376 C 1019.4109,667.97469 1025.7432,659.9126 1032.3837,656.93959 C 1038.1923,654.339 1038.7666,654.97402 1038.6353,663.85128 C 1038.5343,670.68284 1038.8998,672.35426 1041.7702,678.1847 C 1044.867,684.47523 1046.3778,686.13092 1057.3756,695.28684 C 1060.6387,698.00344 1063.1649,701.55202 1066.3141,707.84285 C 1068.7286,712.6659 1070.922,717.26183 1071.1884,718.05602 C 1071.6085,719.30854 1072.0434,719.3025 1074.4682,718.01049 C 1079.7043,715.22049 1082.039,710.82461 1083.832,700.38015 C 1084.7494,695.03637 1086.0338,690.48681 1086.6863,690.27001 C 1087.3387,690.05321 1088.5066,690.91626 1089.2815,692.18791 C 1098.0001,706.49446 1111.0952,729.12032 1111.9346,731.32805 C 1114.6135,738.37398 1111.8754,746.86033 1104.2743,755.07047 L 1098.7846,761 L 1051.6423,760.99964 L 1004.5,760.99927 L 989.86996,745.70312 C 974.17067,729.28903 970.98189,724.47929 968.94928,714.14774 C 967.62559,707.41954 968.14128,693.3888 969.88038,688.81461 C 971.47546,684.61924 969.288,683.60426 958.53045,683.54828 C 949.33932,683.50045 949.19825,683.53694 943.55284,687.42214 C 940.41834,689.57932 935.12612,694.64182 931.79235,698.67214 C 924.04209,708.04174 922.02512,708.14374 921.98264,699.16821 C 921.95298,692.90332 919.15054,681.78033 915.96969,675.30264 C 912.29951,667.82843 906.32454,662.30127 896.72153,657.49708 C 886.63187,652.44942 885.71494,652.64587 884.2867,660.16123 C 882.77521,668.11471 878.09084,677.56715 873.46401,682 L 869.81086,685.5 L 864.39729,679.5 C 847.37194,660.63034 835,636.62365 835,622.45705 C 835,617.50022 834.77442,616.83581 833.25,617.30262 C 824.56763,619.96134 812.14557,625.1816 809.52435,627.27312 C 807.74897,628.68972 803.86721,633.46758 800.8982,637.89058 C 794.8362,646.92127 792.57773,647.98555 791.64727,642.25 C 790.78528,636.93651 783.01099,625.77798 774.05526,617 C 767.1063,610.18896 749.42632,596.0227 747.85478,596.00661 C 747.49991,596.00297 747.03597,603.0875 746.82381,611.75 C 746.45998,626.60543 746.27243,627.86266 743.52185,633.88508 C 741.91793,637.39687 737.78499,643.66279 734.33754,647.80935 C 727.68662,655.80899 726.8449,658.0654 725.39849,671.77238 C 725.03445,675.22218 724.2967,678.31663 723.75904,678.64892 C 723.22137,678.98122 717.04195,673.52632 710.02699,666.52693 C 700.40823,656.92952 696.57918,652.35014 694.45239,647.90038 C 692.90132,644.65517 691.32614,642 690.95199,642 C 690.57784,642 689.47006,644.1375 688.49027,646.75 C 685.42232,654.93029 682.36031,660.26719 676.63468,667.41356 C 670.33897,675.27146 668.49436,681.10481 669.57364,689.74311 C 670.33575,695.84281 669.721,696.16434 664.22856,692.53876 C 659.53374,689.43968 650.66768,687.15226 639.32138,686.11275 C 634.46962,685.66825 630.37839,685.39515 630.22976,685.50586 C 630.08112,685.61657 631.59582,689.15275 633.59575,693.36404 C 637.70285,702.01242 639.05086,711.28585 637.07235,717.28079 C 636.26188,719.73653 632.89041,723.60542 626.27124,729.67546 C 616.23171,738.88211 609.38978,748.13697 606.81006,756 L 605.33369,760.5 L 560.74219,760.76024 L 516.15068,761.02048 L 512.62621,756.71932 z M 623.20797,759.80797 C 620.31525,756.91525 623.00484,748.66839 628.79883,742.66518 C 630.83447,740.55603 635.0112,737.05685 638.08045,734.88923 C 645.54469,729.61767 648.48622,724.38068 648.40934,716.5 C 648.37714,713.2 647.88268,709.6 647.31053,708.5 C 644.80179,703.67677 647.91927,702.87542 656.58231,706.11668 C 660.62767,707.63024 664.30814,710.19824 669.49922,715.12925 L 676.7588,722.02514 L 677.2725,703.26257 C 677.55558,692.9232 678.33481,682.70574 679.00822,680.5033 C 680.66247,675.09299 687.50863,668.37041 692.27473,667.47628 C 697.82249,666.43552 699.34277,667.35937 698.59976,671.31991 C 698.25804,673.14143 698.59573,676.66161 699.35384,679.18062 C 701.74918,687.1397 706.2286,692.36912 716.25763,698.91462 C 729.94622,707.84854 731.00065,708.8218 734.10671,715.38957 C 738.42765,724.52618 740.38873,734.7656 740.44812,748.5 L 740.5,760.5 L 682.45797,760.75797 C 638.14536,760.95492 624.1302,760.7302 623.20797,759.80797 z M 750.55378,760.08702 C 750.24068,759.58041 750.65634,756.31609 751.47747,752.83296 C 755.08702,737.52175 751.42058,717.93017 740.47822,694.05854 C 736.64108,685.68751 736.00314,683.37354 736.02196,677.89447 C 736.05057,669.56471 738.17715,665.00629 746.71053,654.98305 C 750.44474,650.59687 754.2875,645.55086 755.25,643.76969 C 757.23174,640.10236 757.50662,633.3648 755.90922,627.61167 C 755.09643,624.68435 755.12517,623.54067 756.0255,622.98424 C 762.10705,619.22563 775.78446,637.38104 788.05481,665.5 C 790.93488,672.1 793.47522,677.71197 793.70002,677.97104 C 794.57097,678.97477 796.65404,674.2109 803.48362,655.59641 C 804.47313,652.89943 806.79788,649.01573 808.64972,646.96595 C 812.44043,642.7701 820.82001,638.72376 824.75165,639.19065 C 827.14429,639.47478 827.497,640.15209 829.07873,647.5 C 830.02588,651.9 831.60153,657.525 832.58017,660 C 835.7502,668.0171 845.35985,683.12103 851,688.95128 C 856.74319,694.88805 867.88056,703 870.2883,703 C 872.86185,703 885.93905,693.01784 887.66304,689.73742 C 888.59881,687.95684 889.61994,683.35 889.93222,679.5 C 890.35335,674.30802 890.87503,672.5 891.95198,672.5 C 893.97969,672.5 904.10969,684.81767 909.41909,693.73929 C 914.83783,702.84465 916.41446,710.47258 915.83901,724.79968 C 915.56844,731.53613 915.78696,735 916.48252,735 C 917.06179,735 919.19555,733.87212 921.22423,732.4936 C 925.20279,729.7901 929.23438,724.43996 933.27618,716.5 C 934.67606,713.75 937.3241,710.06186 939.16071,708.30414 C 943.51604,704.13589 952.80886,699.93608 958.21476,699.69283 L 962.5,699.5 L 962.29146,703 C 961.2279,720.85064 961.61263,725.76121 965.13899,739.34489 C 966.47054,744.47405 973.11268,750.96818 980.55447,754.41685 C 989.08411,758.36965 989.13724,758.40043 989.32722,759.5 C 989.55403,760.81272 751.3642,761.3983 750.55378,760.08702 z M 93.25,745.33848 C 89.864231,744.97722 89,744.49 89,742.9425 C 89,741.87413 89.1125,740.99987 89.25,740.9997 C 91.295418,740.99725 110.74759,733.06906 114.33062,730.7775 C 117.10596,729.00251 198.9687,646.80853 306.73557,537.59402 C 409.90145,433.04231 509.20267,332.62007 527.40495,314.43349 L 560.5,281.36698 L 572.5,275.26116 C 586.99121,267.88776 594.62516,264.95129 606.5,262.18276 C 632.48471,256.12462 653.82719,259.15674 680.21763,272.65578 C 694.3179,279.86824 704.15483,287.26455 716.05025,299.59804 C 727.1295,311.08529 731.80817,317.66158 738.74677,331.5 C 746.41841,346.8004 752,366.85152 752,379.11047 L 752,384 L 756.12917,384 L 760.25833,384 L 759.55694,377.75 C 757.86113,362.63899 752.63492,344.50094 745.88153,330.28818 C 740.98981,319.99339 730.08519,303.62923 722.10103,294.60165 L 716,287.70331 L 716.00701,280.10165 C 716.02346,262.24838 726.62332,234.0043 746.81934,198 C 753.24795,186.53944 753.71064,185.33369 752.38356,183.5 C 751.58746,182.4 749.33418,178.25573 747.37627,174.29052 C 738.77652,156.87406 742.98951,137.85095 759.31885,120.36566 C 764.58108,114.73091 766.5486,113.21041 767.52698,114.0224 C 768.49986,114.82981 768.5682,115.97997 767.80711,118.73643 C 764.80476,129.61002 772.09487,137.86564 786.54534,139.9564 C 790.43871,140.51971 800.10268,140.69819 808.5,140.36187 C 825.00979,139.70065 845.1592,141.08847 854.48031,143.52884 C 869.35239,147.42253 879.4164,155.04654 884.55228,166.30994 L 887.20149,172.11987 L 894.85075,171.4765 C 911.31982,170.0913 924.23622,174.41055 933.98517,184.56307 C 943.04122,193.994 946.4643,203.26651 947.57237,221.3683 C 948.05159,229.19698 947.87883,231.91251 946.81235,233.31475 C 945.50757,235.03032 945.25204,234.95739 942.13694,231.98043 C 938.16264,228.18238 931.59641,225.05591 927.5,225.01114 C 925.85,224.99311 922.3255,224.31861 919.66778,223.51226 C 917.01005,222.70591 909.91664,221.53113 903.90463,220.90164 C 878.46101,218.23754 854.04214,224.83651 846.76201,236.34391 C 844.54583,239.84694 843.86495,242.79366 842.45081,255.00197 C 840.54029,271.49548 840.95537,281.80721 843.96629,292.65039 C 846.7625,302.72029 853.01295,316.48534 858.47203,324.59562 C 861.02809,328.39303 867.52356,340.29238 872.90641,351.03861 C 893.9129,392.97564 906.76776,433.13 912.6269,475.11236 C 915.0758,492.65937 915.09746,528.50639 912.66823,543.5 C 908.98177,566.25339 901.42092,589.21701 891.90995,606.54649 C 886.94193,615.59848 885.14161,616.08123 882.16408,609.15978 C 878.45781,600.54433 878.18231,596.8672 878.7491,563.58002 C 879.05211,545.78434 879.04336,530.55537 878.72965,529.73786 C 878.22814,528.43095 877.10131,528.4209 869.397,529.6546 C 847.40239,533.17664 830.97967,539.01324 824.88595,545.47375 C 823.10708,547.3597 821.33312,548.70588 820.94381,548.46527 C 820.5545,548.22467 819.91683,545.04768 819.52676,541.40531 C 817.30133,520.62454 805.42412,505.21193 783.72477,494.94639 C 775.45002,491.03177 774,491.09397 774,495.36351 C 774,506.08891 768.82588,519.04556 761.31502,527.12829 C 758.66676,529.97819 752.02548,535.21439 746.55663,538.7643 C 741.08778,542.3142 734.24654,547.64281 731.35388,550.60565 C 724.93194,557.18341 715.18494,571.78129 711.37394,580.52921 C 709.6576,584.46895 707.95748,586.99268 707.02748,586.98128 C 706.18736,586.97098 703.25,584.24812 700.5,580.93047 C 695.00942,574.30655 684.72352,565.24312 679.51099,562.43598 L 676.17977,560.64201 L 656.02613,581.2758 C 627.88965,610.08263 607.47014,627.8673 580.84899,646.75242 C 549.52065,668.97685 510.36947,688.47092 478.83269,697.54816 C 465.62811,701.34883 463,701.68861 463,699.59507 C 463,698.82235 470.7625,691.70277 480.25,683.77378 C 494.68152,671.71291 636.76475,540.79064 648.1016,529.10731 C 655.14384,521.84983 653.57822,513 645.25205,513 C 642.09263,513 638.39446,516.49043 592.85027,562.45831 C 505.91283,650.20451 457.13362,693.83821 430.5,707.68296 C 411.19458,717.71834 351.05145,732.28552 349.30618,727.34879 C 349.08053,726.71052 353.56205,723.76246 359.3641,720.73242 C 378.51906,710.72901 381.72252,708.03475 420.62296,669.21077 C 457.08313,632.82227 504.34307,587.14799 564.51444,530.1471 C 604.89937,491.89009 604,492.86014 604,487.55824 C 604,482.39738 601.7607,480 596.94013,480 C 593.75839,480 586.30583,487.22038 482.01887,591.34095 C 403.78584,669.44918 367.96294,704.54391 362,708.92024 C 331.90931,731.00445 294.11282,743.30899 265.51229,740.33155 C 253.51719,739.08281 254.03975,737.58639 269.16351,729.87583 C 288.10411,720.21933 296.7413,713.83304 318,693.76639 C 344.64885,668.61184 446.99015,567.74345 512.25,502.31206 C 565.90729,448.51373 566,448.41365 566,444.28297 C 566,441.0039 565.45318,439.71503 563.36514,438.07258 C 561.91597,436.93266 559.56182,436 558.1337,436 C 556.01823,436 529.2234,462.27088 413.51856,577.78729 C 281.58385,709.50715 270.916,719.91298 263.27506,724.34042 C 245.43728,734.67628 227.2536,741.72484 211.20923,744.52274 C 202.66141,746.01336 180.67986,746.50359 173.75,745.35815 C 168.48148,744.48732 168.66446,741.71671 174.09801,740.08878 C 176.35192,739.41349 183.21442,736.32877 189.34801,733.23383 L 200.5,727.60668 L 226.5,702.03573 C 240.8,687.9717 293.675,635.96466 344,586.46453 C 394.325,536.9644 458.55654,473.78993 486.73675,446.07683 C 514.91697,418.36373 538.65447,394.6501 539.48675,393.37987 C 541.57675,390.19013 541.37942,386.75207 538.92742,383.63486 C 536.18387,380.14701 532.3535,380.22495 527.40004,383.86943 C 521.13981,388.47535 369.82749,539.26499 318.94119,591.60819 C 269.43838,642.52829 246.71719,666.29221 219.28772,695.83498 C 209.92484,705.91922 199.05821,716.58186 195.13965,719.52973 C 180.90907,730.23519 157.32238,739.89269 136.5,743.53957 C 127.53136,745.11036 101.32696,746.20028 93.25,745.33848 z M 852.28136,174.83705 C 855.2165,170.88783 854.00038,167.37186 849.24221,166.05043 C 845.13036,164.9085 835.69943,164.63391 834.70614,165.62719 C 834.36118,165.97215 835.42952,168.21739 837.08023,170.61661 C 842.28766,178.18535 848.50907,179.91266 852.28136,174.83705 z M 1412,741.96946 C 1394.4913,739.6223 1378.3859,734.69663 1363,726.98334 C 1349.4824,720.20666 1343.9362,715.78279 1319.3427,692.16057 C 1294.3569,668.1616 1178.5284,552.06168 1106.9296,479.24982 C 1063.8308,435.42073 1058.1615,429.99965 1055.4243,429.99982 C 1051.4467,430.00005 1048,433.59188 1048,437.73671 C 1048,439.72899 1049.1666,442.32719 1051.25,444.97513 C 1056.206,451.27405 1323.4193,712.51078 1328.2628,715.79221 C 1334.3633,719.92527 1347.5486,727.02193 1352.9043,729.05492 C 1355.4319,730.01439 1357.5,731.40705 1357.5,732.14971 C 1357.5,734.05944 1345.2537,734.44785 1331.5834,732.9717 C 1306.9651,730.31337 1282.8888,721.97458 1264.5,709.73752 C 1260.6828,707.19729 1217.2092,664.5392 1145,592.47919 C 1082.575,530.18314 1030.5171,478.71557 1029.3157,478.10682 C 1028.1144,477.49807 1026.684,477 1026.1372,477 C 1024.0447,477 1022,480.28621 1022,483.64925 C 1022,488.15102 1018.8954,485.02144 1135.5,598.06377 C 1227.2269,686.98847 1245.6782,703.8935 1264.517,716.26865 C 1274.0536,722.53321 1273.3849,723.43497 1259.75,722.69733 C 1238.3094,721.53741 1214.3677,715.40868 1194.1331,705.90034 C 1175.0076,696.91317 1169.2693,692.30733 1134.5,658.03627 C 1094.6512,618.75846 1001.8196,529.32367 995.34713,523.97514 C 992.70137,521.78881 989.81066,520 988.92332,520 C 985.34392,520 982.98561,525.19297 984.62494,529.46499 C 984.96865,530.3607 1020.2433,564.98325 1063.0131,606.404 L 1140.7762,681.71445 L 1151.8881,687.39832 C 1157.9997,690.52444 1163,693.52781 1163,694.07248 C 1163,696.12776 1159.4495,696.25204 1149.6299,694.54048 C 1128.1802,690.80179 1107.0433,683.36428 1081,670.39139 C 1052.9102,656.39906 1032.4583,642.89867 1005.5,620.55341 C 983.57112,602.37694 946.90695,564.95335 929.20846,542.68166 L 923.12362,535.02453 L 923.07372,513.26227 C 922.94415,456.74639 916.17115,427.92171 886.30116,356.76476 L 876.75745,334.02952 L 881.07322,326.48653 C 891.39917,308.43909 912.74748,283.95267 928.5,272.0882 C 938.00265,264.93101 953.5399,257.51986 964.5,254.91649 C 972,253.135 975.58333,252.85604 986,253.24272 C 996.67089,253.63883 999.89012,254.176 1008,256.91372 C 1020.3148,261.07091 1032.2238,267.61033 1042.3711,275.78728 C 1075.1497,302.20135 1228.8163,451.12382 1425,646.60332 C 1507.7234,729.02985 1513.4143,734.24309 1522.2039,735.64859 C 1526.6256,736.35565 1527.5689,737.28296 1525.5613,738.9491 C 1523.3692,740.76843 1497.2789,741.48487 1485.0718,740.06095 C 1462.5443,737.43319 1442.1609,729.68768 1428.9785,718.74596 C 1416.0342,708.00186 1340.4991,633.30758 1239.5374,531.41346 C 1082.4058,372.83065 1080.5718,371 1078.8362,371 C 1077.9426,371 1075.8139,372.30554 1074.1058,373.90121 C 1069.5951,378.11477 1069.9449,381.378 1075.6233,388.05977 C 1083.4634,397.28514 1259.5016,574.37479 1314.5456,628.40909 C 1395.7318,708.10612 1412.5222,723.53122 1421.9386,727.06947 C 1424.9298,728.19344 1430.1481,730.66262 1433.5347,732.55653 C 1436.9213,734.45044 1440.8314,736 1442.2237,736 C 1443.616,736 1445.3341,736.69758 1446.0417,737.55019 C 1447.1054,738.83194 1447.034,739.39472 1445.6292,740.80019 C 1444.2289,742.20121 1441.6953,742.52995 1431.2152,742.67041 C 1424.2218,742.76414 1415.575,742.44871 1412,741.96946 z"
       id="path2412" />
    <path
       style="fill:#fcca61"
       d="M 435.91347,1137.9815 C 236.58606,937.17537 73.332652,772.40449 73.128115,771.82405 C 72.923579,771.2436 73.373579,770.37763 74.128115,769.89966 C 75.658932,768.92995 1532.8933,768.63809 1535.4182,769.60699 C 1536.2882,769.94083 1536.9891,770.72833 1536.9758,771.35699 C 1536.9465,772.74287 801.37045,1502.3777 799.58512,1502.7918 C 798.89312,1502.9524 635.24088,1338.7877 435.91347,1137.9815 z M 515.56789,758.42503 C 509.95976,752.8169 504.86904,741.978 503.47403,732.67539 C 501.69495,720.81161 509.90842,705.71273 523.85833,695.20278 C 528.45542,691.73931 532.72545,689.07515 533.3473,689.28243 C 533.96915,689.48972 535.67632,694.34847 537.14101,700.07966 C 541.43444,716.87944 546.1142,726 550.44073,726 C 553.34346,726 558.33894,720.6348 567.66589,707.5 C 576.03045,695.7205 578.14829,691.66208 586.09627,672.18188 C 589.38343,664.12517 593.23082,656.32474 594.64601,654.8476 C 597.90986,651.44088 606.90408,646.65952 613.9315,644.59538 C 616.91883,643.71792 619.50633,643 619.6815,643 C 620.68641,643 619.67571,646.70644 617.5,651 C 614.62511,656.67332 614.42212,658.98183 616.45284,662.90881 C 618.74697,667.34517 622.95048,668.50166 636.72742,668.48687 C 652.29455,668.47015 652.55404,668.27442 649.96759,658.5 C 645.63462,642.12534 648.73577,628.84437 660.02014,615.449 C 664.99094,609.54831 673.53092,592.73596 674.51442,586.91464 C 675.18722,582.93238 675.33503,582.79312 678.35707,583.29443 C 684.58982,584.32836 693.19107,588.25773 696.52972,591.59638 C 698.40336,593.47003 702.45192,599.27734 705.52651,604.50151 C 711.02356,613.84179 713,615.8527 713,612.10534 C 713,607.95526 717.46038,596.00132 722.34396,587.06329 C 728.66847,575.48802 734.95005,568.55365 750.5,555.98124 C 768.3573,541.54331 775.25559,533.48247 784.50113,516.25 C 786.05033,513.3625 787.64638,511 788.0479,511 C 788.44943,511 790.43313,514.4875 792.45614,518.75 C 794.47914,523.0125 798.10318,529.425 800.50957,533 C 807.02677,542.68216 809.41537,551.73987 808.73024,564.17334 L 808.18441,574.07909 L 815.4717,567.15688 C 822.64493,560.343 822.90564,560.20094 832.12949,558.0798 C 837.28327,556.89463 847.10313,553.67846 853.95141,550.93277 C 860.79968,548.18707 866.98718,546.16484 867.70141,546.43891 C 869.59792,547.16667 869.31256,551.48727 866.4249,565.76642 C 863.42675,580.59193 863.64908,588.12402 867.47365,601.29661 C 870.11152,610.38199 877.05948,627.91563 879.49437,631.63175 C 880.97746,633.89523 881.21122,633.94213 883.95012,632.52579 C 887.33491,630.77545 892.55035,624.55573 896.54974,617.5 C 901.77812,608.2761 908.83574,598.316 912.07427,595.59096 C 913.84023,594.105 917.58346,591.74179 920.39256,590.33937 C 928.73211,586.17593 935,579.18619 935,574.04966 C 935,570.62112 937.19154,571.7103 944.25338,578.64852 C 949.45318,583.7573 951.37778,586.45879 952.61954,590.39184 C 954.82374,597.37322 955.51129,616.71655 954.03154,630.11662 C 953.36161,636.18323 953.04377,641.3771 953.32523,641.65856 C 953.60668,641.94001 957.13615,639.69887 961.16848,636.67823 C 972.23579,628.38767 976.16593,626.61594 981.8031,627.37597 C 987.8042,628.18508 1001,632.06455 1001,633.01972 C 1001,633.42033 999.85752,635.79221 998.46116,638.29057 C 992.92975,648.18734 993.39951,661.44615 999.6945,673.10089 C 1003.2575,679.6976 1012.3431,691 1014.0828,691 C 1014.5873,691 1015,689.89823 1015,688.55162 C 1015,684.22827 1019.8932,670.44754 1022.9042,666.29098 C 1026.4991,661.32828 1031.119,657.94091 1034.6348,657.68978 C 1037.2767,657.50107 1037.2927,657.54232 1037.4741,665 C 1037.7153,674.91088 1041.406,682.38298 1049.9819,690.3228 C 1053.3546,693.44526 1056.4971,696 1056.9652,696 C 1058.3904,696 1066.8042,709.89434 1068.5355,715.10678 C 1070.4985,721.01682 1072.3603,721.37854 1077.5163,716.85156 C 1082.2766,712.67199 1083.5575,709.93619 1084.9371,701.00254 C 1085.5739,696.87893 1086.4779,693.12215 1086.9459,692.65412 C 1087.4139,692.1861 1089.705,695.10996 1092.0373,699.15159 C 1094.3696,703.19321 1099.2528,711.43996 1102.8889,717.47769 C 1109.9194,729.15183 1111.8017,733.15911 1111.9239,736.71249 C 1112.0809,741.27831 1107.7637,750.25183 1103.0644,755.12726 L 1098.3677,760 L 1051.5948,760 L 1004.822,760 L 991.16098,745.91836 C 983.64744,738.17346 976.26944,729.73596 974.76542,727.16836 C 969.23839,717.73286 967.46899,699.46341 971.08465,689.16364 C 972.82849,684.19606 971.09615,683.05057 960.73388,682.31929 C 952.73705,681.75495 951.71027,681.90705 946.58325,684.41547 C 942.70711,686.31188 938.69461,689.68368 933.15614,695.69855 C 928.48551,700.77093 924.79591,703.9919 924.12858,703.57947 C 923.50786,703.19584 922.99219,700.99602 922.98264,698.69098 C 922.93045,686.09394 917.27618,672.38731 908.84136,664.41079 C 900.52121,656.54271 885.65447,650.3103 884.6039,654.25 C 880.97581,667.85551 879.41086,671.97729 875.92331,677.11293 C 873.50372,680.67593 871.20677,683 870.10493,683 C 867.8664,683 859.0707,672.18375 849.8832,658.13291 C 841.70421,645.62444 836.96822,633.50942 836.24679,623.25 C 835.92446,618.66612 835.3062,616 834.56555,616 C 833.92126,616 828.51404,617.77147 822.54951,619.93659 C 810.31713,624.37695 805.93003,627.83456 798.74356,638.69876 C 794.84504,644.59238 793,645.75917 793,642.33096 C 793,637.92018 785.98255,627.95234 775.51537,617.49514 C 765.42236,607.41175 749.09157,594 746.90657,594 C 746.40796,594 746,600.20546 746,607.7899 C 746,628.11098 743.85268,634.7831 733.17933,647.62612 C 726.55051,655.60243 726.20938,656.41309 724.85951,667.39725 C 724.11982,673.41624 723.24089,677 722.50441,677 C 721.85817,677 716.16262,671.7125 709.84763,665.25 C 699.19182,654.34527 695.28484,648.78284 692.63915,640.75 C 691.59342,637.57495 690.3505,638.91046 687.52047,646.25 C 684.32856,654.52805 679.10312,663.69171 675.94466,666.55009 C 674.76109,667.6212 672.61317,670.5103 671.17151,672.97031 C 668.96053,676.74307 668.54638,678.66029 668.52516,685.22099 C 668.51132,689.49886 668.21918,692.99917 667.87595,692.99946 C 667.53273,692.99976 665.21591,691.86206 662.72746,690.47124 C 655.95488,686.68597 628,682.33471 628,685.06581 C 628,685.63797 629.13687,687.76973 630.52637,689.80305 C 633.68811,694.42976 637,704.91062 637,710.28961 C 637,716.5361 633.64338,722.27817 626.68212,727.94007 C 623.28196,730.70558 618.54132,735.25004 616.14738,738.03886 C 611.86271,743.03029 605.90909,753.34422 604.76932,757.75 L 604.18724,760 L 560.66505,760 C 522.39129,760 516.95293,759.81007 515.56789,758.42503 z M 624.00113,758.50136 C 622.99041,757.28352 622.99972,756.07265 624.0486,752.32641 C 625.49985,747.14308 629.96225,742.14561 639.34863,735.19183 C 647.06276,729.47692 650.60736,722.32427 649.53562,714.63549 C 648.25403,705.44119 648.24879,705.47287 651,705.77 C 656.09633,706.32039 664.60212,711.44868 670.74166,717.67258 C 674.17457,721.15266 677.15873,724 677.37313,724 C 677.58753,724 677.99187,715.3375 678.27166,704.75 C 678.80651,684.51077 679.67947,679.51065 683.581,674.33928 C 685.93891,671.21392 693.69614,667.39871 696.07832,668.19277 C 696.81325,668.43775 697.37607,670.78177 697.48482,674.05059 C 697.8457,684.8972 705.28028,694.27192 720.88045,703.55157 C 726.29533,706.77257 729.34382,709.36328 731.18946,712.31249 C 736.45194,720.72162 740.41378,739.18075 739.8148,752.5 L 739.5,759.5 L 682.37919,759.75813 C 632.36365,759.98416 625.102,759.82783 624.00113,758.50136 z M 752.36863,756.25 C 755.70933,734.92449 753.00209,718.8171 742.16109,695.51761 C 737.91774,686.39782 737.5,684.82782 737.5,678 C 737.5,668.74895 738.76457,666.00461 748.14472,654.89911 C 757.96288,643.27503 758.38672,642.27037 757.68246,632.29096 C 757.02837,623.02244 757.59237,622.33144 762.61319,626.25 C 767.20648,629.83489 769.51289,632.85177 775.80085,643.5 C 780.87962,652.10056 788.46846,667.98538 791.92461,677.25 C 792.48885,678.7625 793.41731,680 793.98786,680 C 795.18518,680 798.95255,671.81508 802.73321,661 C 804.1752,656.875 806.61613,651.632 808.15751,649.34889 C 811.21826,644.81525 818.00808,640.88225 823.18612,640.64358 C 826.2892,640.50055 826.30785,640.5306 828.06043,648.5 C 830.13494,657.93329 832.20631,662.9639 838.63901,674.19153 C 844.22328,683.93831 857.75594,698.00405 865.61124,702.22624 L 870.68336,704.95249 L 875.25022,702.05627 C 882.02446,697.76017 888.12911,691.92192 889.65287,688.28212 C 890.39379,686.51228 891,682.57478 891,679.53212 C 891,672.31389 892.41754,672.35673 898.2098,679.75 C 912.4273,697.89729 915.51241,706.29059 914.73821,724.71679 C 914.47899,730.88602 914.48758,736.15424 914.75728,736.42394 C 915.67371,737.34038 922.48629,733.18954 925.90115,729.63407 C 927.77179,727.68642 931.16718,722.59182 933.44647,718.31275 C 936.24796,713.05332 938.97446,709.47715 941.86179,707.2749 C 946.49777,703.73892 959.59991,699.19991 961.03327,700.63327 C 961.53443,701.13443 961.44202,704.65638 960.81726,708.86577 C 960.0183,714.24882 960.02842,718.13754 960.85499,723.3612 C 962.90305,736.30428 963.62641,739.46623 965.24529,742.55187 C 967.56901,746.98098 974.70339,753.13266 980.75,755.92094 C 983.6375,757.25245 986,758.71495 986,759.17094 C 986,759.62692 933.30077,760 868.89059,760 L 751.78119,760 L 752.36863,756.25 z M 95.5,744.37868 C 93.85,744.12311 91.837611,743.68415 91.028025,743.40321 C 88.932862,742.67615 90.890383,741.56436 99,738.87545 C 115.02482,733.5621 101.50399,746.59579 307.09927,538.2738 C 567.17908,274.74469 554.19118,287.74715 563,282.08622 C 582.34464,269.65451 603.9988,262.0706 624.67756,260.48499 C 666.75853,257.25828 716.18251,288.60671 738.25236,332.52273 C 744.4644,344.88385 750.38996,366.5764 751.22131,380 L 751.5,384.5 L 756,384.5 C 761.62241,384.5 761.82511,383.63621 759.49342,369.61312 C 754.9159,342.08339 742.54959,316.88453 721.50918,292.21254 C 717.11924,287.0649 717,286.74435 717,280.09076 C 717,262.8387 728.74236,231.82775 748.07279,198.02915 C 754.40785,186.95251 755.06177,185.33144 753.92194,183.52915 C 748.27509,174.60038 746.87599,171.76719 745.53219,166.5399 C 744.68948,163.26185 744,158.44758 744,155.84152 C 744,148.36631 748.39216,136.0574 753.6352,128.83918 C 758.64124,121.94722 764.94251,115 766.18762,115 C 766.61756,115 766.69597,117.61547 766.36185,120.81215 C 765.43293,129.69949 768.82442,134.81019 778.51246,139.12218 C 783.24392,141.22808 784.96331,141.35262 812,141.54792 C 841.79632,141.76315 847.09695,142.31845 860,146.57645 C 872.13423,150.58074 880.85557,158.5081 884.40824,168.7626 L 885.70307,172.5 L 897.60153,172.54203 C 911.11499,172.58977 918.60657,174.32139 926.19722,179.15168 C 938.72894,187.12623 945.10539,200.34452 946.49079,221.22 C 947.24895,232.64415 946.37102,234.65954 942.29733,230.8466 C 938.43559,227.23205 933.3283,224.75772 928,223.91998 C 925.525,223.53085 920.125,222.41944 916,221.45019 C 910.54328,220.16801 904.27723,219.68588 893,219.68048 C 875.43904,219.67207 867.83292,221.05599 857.74998,226.09419 C 845.66774,232.1314 843.61626,235.66036 841.3959,254.22653 C 839.6103,269.15734 840.03553,283.02206 842.5682,292.44942 C 844.91217,301.17438 852.8819,318.20106 859.44251,328.5 C 875.54821,353.78295 894.61933,399.85305 903.47086,434.85926 C 911.06102,464.87699 913.35767,482.4353 913.36477,510.5 C 913.37098,535.07106 911.70785,548.12784 905.98604,568.42818 C 900.63573,587.41049 889.1889,612.5 885.87873,612.5 C 885.11835,612.5 883.43333,609.62524 882.06881,606 L 879.62225,599.5 L 879.91068,563.87054 C 880.0892,541.81836 879.83269,528.01463 879.23754,527.64681 C 878.01665,526.89226 862.32327,529.41343 851.10068,532.16705 C 840.88344,534.67399 828.58187,540.06835 824.78355,543.70737 C 821.62406,546.73435 821.54036,546.61638 820.04822,537.03323 C 818.47577,526.93435 812.52202,515.63313 804.6013,507.71241 C 799.24577,502.35688 795.67518,499.91561 786.57524,495.38768 C 780.33402,492.28219 774.79278,490.01003 774.26139,490.33845 C 773.73,490.66687 773.01302,493.9576 772.66811,497.65119 C 771.15112,513.89634 763.96178,525.89342 750.5,534.64385 C 731.8861,546.74325 722.52134,556.79828 713.37992,574.5 C 710.25562,580.55 707.5576,585.67191 707.38433,585.88202 C 707.21106,586.09213 702.20754,581.31675 696.2654,575.27007 C 686.48707,565.3197 679.34537,560 675.76532,560 C 675.04243,560 671.55759,563.39873 668.02122,567.55274 C 658.71005,578.49015 629.44659,606.88335 615.5,618.51205 C 569.54234,656.83164 525.14337,682.35959 481.93427,695.30794 C 466.11402,700.04876 464.98904,700.27947 465.05761,698.76905 C 465.0893,698.07107 471.74641,692.02806 479.85118,685.34013 C 491.77292,675.5025 630.66799,547.47473 648.21173,530.15229 C 651.8146,526.59487 653.07754,524.51652 653.57818,521.321 C 654.14677,517.69181 653.89466,516.80375 651.66191,514.571 C 649.85154,512.76064 648.02444,512 645.48617,512 C 642.05358,512 639.19778,514.6926 585.69071,568.37818 C 508.21327,646.11411 474.23585,677.05405 442,699.22338 C 428.85043,708.26664 424.92389,710.05661 405.49802,715.86329 C 380.69058,723.27861 353.52724,728.90148 351.62355,727.01542 C 351.12536,726.52185 354.79388,724.11919 360.12355,721.44842 C 378.0486,712.46592 380.97421,710.00376 419.15798,671.76583 C 454.52275,636.35091 499.29186,593.05606 562.51444,533.13015 C 607.10837,490.86152 605,493.121 605,487.59956 C 605,481.74018 602.53659,479 597.26904,479 C 593.65145,479 590.17968,482.35261 483.01904,589.32858 C 415.50957,656.72171 369.5813,701.81092 365,705.19155 C 335.92372,726.64744 309.68528,737.22861 280,739.46951 C 271.29149,740.1269 258.5,738.95513 258.5,737.5 C 258.5,736.95 265.25,732.98133 273.5,728.68073 C 281.75,724.38014 290.75,719.16029 293.5,717.08108 C 305.54758,707.97216 405.34111,610.46255 511.75,503.82604 L 567,448.45786 L 567,444.18347 C 567,438.7402 563.66046,435 558.8003,435 C 555.76227,435 544.76296,445.73956 415.50484,574.91155 C 288.31662,702.01502 274.63033,715.38892 266,721.00392 C 248.82432,732.17863 228.73932,740.29137 210.27981,743.51044 C 197.8593,745.67639 171.88768,745.4146 172.04217,743.125 C 172.06537,742.78125 178.84124,739.125 187.09967,735 L 202.115,727.5 L 288.3075,642.48462 C 335.71338,595.72616 411.92149,520.67007 457.65886,475.69331 C 503.39624,430.71655 541.08374,393.22417 541.40886,392.3769 C 542.48335,389.57682 542.01867,386.54288 540.01096,383.25 C 538.29217,380.43099 537.48376,380 533.91485,380 C 529.83374,380 529.42526,380.36885 483.65015,425.3886 C 394.78603,512.78631 293.57242,615.4994 239.58757,673.06698 C 226.98573,686.50514 212.87908,701.44253 208.23946,706.26118 C 199.1982,715.6513 184.91852,725.89692 173.94037,730.87066 C 164.81449,735.00521 146.07545,740.68901 135.5,742.53014 C 126.53208,744.09141 101.20272,745.26196 95.5,744.37868 z M 850.39798,178.40078 C 851.25683,178.0712 852.92851,176.23371 854.11281,174.31746 C 856.26333,170.83785 856.26356,170.82998 854.2929,168.19049 C 853.20764,166.73691 851.23527,165.24425 849.90985,164.87348 C 846.04177,163.79144 834.17711,163.90441 833.48152,165.0299 C 832.46464,166.67525 837.85796,174.94253 841.32888,177.05893 C 844.55764,179.02767 847.5937,179.47688 850.39798,178.40078 z M 1413,740.92224 C 1396.2107,738.79348 1376.1792,732.74244 1362.5365,725.67839 C 1350.1567,719.26826 1340.9638,711.84636 1317.3546,689.20084 C 1292.9637,665.80541 1172.526,544.99428 1103.5668,474.75 C 1061.9324,432.33977 1058.4075,429 1055.2814,429 C 1047.9198,429 1044.5897,437.24521 1049.25,443.93315 C 1050.4875,445.70905 1113.6474,507.9881 1189.6054,582.33103 L 1327.7109,717.5 L 1341.337,724.5 C 1348.8314,728.35 1354.9715,731.8375 1354.9816,732.25 C 1355.0114,733.46301 1340.3484,733.07392 1328.978,731.55997 C 1312.2087,729.32719 1291.5943,723.36247 1279.5,717.24369 C 1262.3215,708.55269 1262.0424,708.29126 1142.9811,589.37789 C 1022.9159,469.46186 1026.8933,473.1455 1022.6013,477.8881 C 1020.6722,480.01965 1020.3222,482.27801 1021.317,486.17355 C 1022.0808,489.16459 1221.6511,683.57866 1238,697.25817 C 1243.225,701.63006 1252.0722,708.64368 1257.6604,712.84399 C 1263.2486,717.04431 1267.5726,720.88249 1267.2693,721.37329 C 1266.4881,722.63727 1250.5076,721.26983 1238.0276,718.8711 C 1225.3304,716.43065 1205.4347,710.10349 1194.5,705.02864 C 1176.4681,696.65997 1166.8732,688.92382 1132.5,655.0396 C 1093.886,616.97488 999.32383,525.8335 994.3124,521.85092 C 989.88876,518.33544 986.57443,518.19367 984.45442,521.42923 C 980.32121,527.7373 977.19954,524.30434 1061.5,606.15765 L 1139.5,681.89338 L 1150.3551,687.54156 C 1164.589,694.94778 1163.6247,696.15036 1146.2489,692.66253 C 1132.5954,689.92188 1111.6208,683.32459 1097.8097,677.42663 C 1058.3719,660.58483 1014.4817,630.02716 976.60812,593.04239 C 957.0951,573.98731 928.86758,542.35449 925.2602,535.5 C 924.62741,534.29761 924.17659,525.05616 924.12978,512.32726 C 923.99865,476.67588 920.63245,450.25015 912.87832,424 C 908.87285,410.4402 896.34778,377.39623 886.53488,354.5 C 882.29192,344.6 878.80457,335.49252 878.78521,334.26116 C 878.73887,331.31456 893.69598,309.00748 903.76916,297 C 921.42616,275.95243 942.04271,261.97686 963.69644,256.37641 C 972.26376,254.16059 975.01322,253.89566 985.5,254.27541 C 995.98005,254.65493 998.86993,255.17092 1008.3156,258.34917 C 1026.2644,264.38854 1038.3921,272.52708 1063,295.04626 C 1128.125,354.64338 1255.6621,478.88697 1427,649.64621 C 1505.145,727.52733 1508.8002,731.01419 1515.7931,734.34985 C 1519.9163,736.31665 1522.5975,738.1307 1521.962,738.52351 C 1519.7276,739.90439 1496.3498,740.25184 1486.0718,739.05692 C 1465.7819,736.69802 1449.048,731.1743 1436.0856,722.5569 C 1432.1915,719.96808 1422.3666,711.65674 1414.2527,704.08724 C 1388.8679,680.40587 1298.6856,590.50165 1187.6003,478.13388 C 1128.8055,418.66025 1080.1142,370 1079.3974,370 C 1076.6647,370 1072.7938,372.49813 1071.425,375.14503 C 1069.1786,379.48917 1069.7228,382.4774 1073.6125,387.15539 C 1080.0725,394.92478 1263.0714,578.91995 1316.5456,631.41115 C 1393.9356,707.37855 1413.8972,725.87428 1420.8506,728.05673 C 1422.8578,728.68671 1427.65,730.80718 1431.5,732.7689 C 1435.35,734.73061 1439.85,736.61608 1441.5,736.95882 C 1445.143,737.71555 1445.4365,740.14934 1442,741.10524 C 1438.6109,742.04794 1421.002,741.93683 1413,740.92224 z"
       id="path2410" />
    <path
       style="fill:#fbb726"
       d="M 435.91347,1137.9815 C 236.58606,937.17537 73.332652,772.40449 73.128115,771.82405 C 72.923579,771.2436 73.373579,770.37763 74.128115,769.89966 C 75.658932,768.92995 1532.8933,768.63809 1535.4182,769.60699 C 1536.2882,769.94083 1536.9891,770.72833 1536.9758,771.35699 C 1536.9465,772.74287 801.37045,1502.3777 799.58512,1502.7918 C 798.89312,1502.9524 635.24088,1338.7877 435.91347,1137.9815 z M 513.07795,753.3692 C 507.29911,745.29915 504.70256,737.94569 504.62225,729.42255 C 504.56568,723.41912 505.0354,721.37045 507.71757,715.92255 C 509.45668,712.39015 512.54461,707.55495 514.57964,705.17766 C 518.74878,700.30734 530.59852,691 532.63008,691 C 533.36258,691 534.22926,692.2375 534.55604,693.75 C 536.1748,701.24252 540.18237,714.40978 542.05935,718.40288 C 544.18716,722.9296 548.22919,728.00316 549.70225,727.99626 C 552.36485,727.98379 557.85768,722.84893 563.84573,714.77454 C 574.97112,699.77287 578.45225,693.80749 583.97099,680.28724 C 593.68892,656.47946 593.75879,656.35458 599.4882,652.55161 C 605.16395,648.78427 613.93497,645 616.99102,645 C 618.81336,645 618.78734,645.25916 616.46376,650.25 C 615.11944,653.1375 614.01514,656.92797 614.00977,658.67327 C 613.99493,663.49222 617.97959,667.55572 624.17798,669.0427 C 630.71068,670.60987 649.70771,669.72086 651.67255,667.75603 C 652.78868,666.63989 652.65726,665.02544 650.87733,657.98675 C 646.83351,641.99562 649.7356,629.90633 660.92902,616.11425 C 667.00583,608.62664 672.25997,598.63155 674.66337,589.98699 C 676.35532,583.90138 676.41428,583.83284 679.43824,584.4366 C 681.12221,584.77282 685.22267,586.32145 688.55037,587.878 C 695.39624,591.08018 698.33834,594.36719 705.44216,606.75 C 711.37371,617.08942 713.08065,617.45751 714.71673,608.75 C 715.43305,604.93768 718.15497,598.01794 721.69553,591.00838 C 728.61353,577.3122 734.7247,570.36676 752.5,555.99862 C 759.1,550.6637 766.42459,544.20349 768.77686,541.64259 C 773.3701,536.64196 782.66508,522.87511 785.5836,516.75 C 786.56636,514.6875 787.65427,513 788.0012,513 C 788.34812,513 789.66343,515.48858 790.92411,518.53018 C 792.18478,521.57178 795.65202,527.72049 798.62908,532.19397 C 806.00875,543.28301 808.40635,551.36886 807.7105,562.82088 C 807.42046,567.5944 806.86445,572.5125 806.47494,573.75 C 805.19201,577.82595 808.1068,576.2429 815.96467,568.59604 C 821.86706,562.85216 824.57373,560.94351 828.03647,560.08345 C 841.9877,556.61831 845.71435,555.45576 855.57264,551.49342 C 861.53437,549.09722 866.76942,547.35749 867.20607,547.62736 C 868.51785,548.43808 868.12958,552.39207 865.4249,565.76642 C 861.56529,584.85177 863.10554,595.44002 873.51128,621.35533 C 879.1202,635.32423 879.82256,636.0889 884.65429,633.48684 C 888.80635,631.25081 893.55537,625.18161 900.60185,613.10601 C 907.37397,601.50058 912.82654,595.72569 921.13381,591.36035 C 928.63805,587.41698 934.50926,581.51083 935.52576,576.88274 C 935.87399,575.29723 936.39756,574 936.68925,574 C 937.87137,574 948.59907,584.43428 949.92741,586.87608 C 954.62899,595.51867 955.38348,622.81053 951.43061,641.25 C 950.53505,645.42763 953.03233,644.77412 960.24496,638.94341 C 963.68523,636.16229 968.8979,632.50901 971.82866,630.82501 C 976.5124,628.13378 977.75426,627.84239 982.08949,628.41748 C 984.80218,628.77733 989.90615,629.96269 993.43164,631.0516 L 999.84163,633.03145 L 997.47946,637.26572 C 996.18027,639.59458 994.66591,644.3125 994.11421,647.75 C 992.07992,660.42527 996.18587,672.77446 1006.6542,685.46572 C 1012.6713,692.7605 1016,694.05683 1016,689.10534 C 1016,685.52395 1019.6377,673.5355 1021.7767,670.06743 C 1025.493,664.04195 1034.1309,656.79756 1035.7128,658.37949 C 1036.0027,658.66932 1036.3353,661.98464 1036.4521,665.74685 C 1036.8159,677.46673 1041.9978,686.34954 1053.5,694.97005 C 1058.7956,698.93894 1064.7368,707.79673 1067.7599,716.23041 C 1069.7278,721.72045 1071.0724,722.53105 1074.9149,720.54401 C 1081.3557,717.21334 1085.9535,708.57999 1086.0153,699.70078 C 1086.0342,696.98534 1087.9445,693.99757 1088.619,695.62852 C 1088.8757,696.24921 1093.9024,704.79921 1099.7895,714.62852 C 1109.1547,730.26492 1110.4937,733.06279 1110.4967,737 C 1110.5008,742.54466 1107.3219,748.96484 1101.7078,754.75 L 1097.5836,759 L 1051.5418,758.97854 L 1005.5,758.95709 L 991.37637,744.19468 C 973.62068,725.63594 969.91871,718.60888 970.04355,703.70078 C 970.08346,698.93504 970.4555,696.46131 972.50382,687.34221 C 973.08833,684.73997 972.844,683.98688 971.11503,683.06156 C 967.91669,681.34986 954.10504,680.59979 949.39416,681.88196 C 944.01479,683.34607 937.42924,688.46293 930.67008,696.43024 C 927.66441,699.97315 924.93405,702.60072 924.60262,702.26928 C 924.27118,701.93784 923.99219,700.05417 923.98264,698.08333 C 923.95493,692.36628 921.32552,681.47544 918.39793,674.95191 C 913.49562,664.0281 898.20152,652.72867 888.10253,652.56937 L 883.70506,652.5 L 882.37633,658.9412 C 880.81405,666.51459 877.28507,674.10986 873.05645,679 L 870.02991,682.5 L 866.03115,678 C 849.25557,659.12163 837.04353,635.2634 837.01338,621.30902 C 837.00602,617.90398 836.58074,614.85892 836.06831,614.54222 C 835.55589,614.22552 831.84339,615.26227 827.81831,616.84611 C 823.79324,618.42995 818.17776,620.4853 815.33946,621.41356 C 809.79637,623.22642 804.27947,628.32507 798.08449,637.36039 L 794.75201,642.22079 L 791.93187,636.36039 C 786.74649,625.58493 774.13034,612.34466 756.0071,598.65845 C 751.88601,595.5463 747.76888,593 746.85793,593 C 745.39633,593 745.15981,594.96871 744.84559,609.75 C 744.49899,626.05486 744.40739,626.67274 741.39908,633 C 739.69933,636.575 735.57037,642.76598 732.22361,646.75772 C 725.88149,654.32209 725.12385,656.3102 723.46164,669.75 C 723.10452,672.6375 722.49216,675 722.10084,675 C 721.70953,675 716.35673,669.89914 710.20573,663.66475 C 700.7808,654.11204 698.46059,651.11419 695.45145,644.60128 C 693.48759,640.35077 691.4228,637.02573 690.86304,637.21232 C 690.30328,637.39891 688.16959,641.58997 686.12151,646.52578 C 682.16743,656.05501 680.00364,659.66393 673.33729,667.84819 C 669.02191,673.14617 667,679.25431 667,686.99299 L 667,690.88754 L 662.49447,688.89453 C 654.00846,685.14076 627,681.58765 627,684.22503 C 627,684.92454 628.83394,689.11377 631.07542,693.53443 C 636.07977,703.40403 637.24626,711.57144 634.48315,717.39426 C 633.51234,719.44009 629.74398,723.62296 626.10902,726.68953 C 615.08016,735.99382 608.89179,744.19913 604.56896,755.25 L 603.10205,759 L 560.10606,759 L 517.11007,759 L 513.07795,753.3692 z M 624.38063,757.54951 C 623.55369,755.39454 625.79611,749.39576 628.73359,745.90476 C 630.14253,744.23033 634.59181,740.42246 638.62087,737.44282 C 647.4,730.95036 650.31387,726.15086 650.42501,718 C 650.46625,714.975 650.275,711.15 650,709.5 C 649.57194,706.93166 649.78778,706.54594 651.5,706.81929 C 656.34304,707.59245 663.03989,711.91617 669.88767,718.69102 C 673.9509,722.71096 677.61163,726 678.02264,726 C 678.43365,726 678.99481,716.8875 679.26966,705.75 C 679.81287,683.73774 680.56736,679.70128 685.10454,674.53372 C 687.88205,671.37031 694.45657,668.12324 695.65589,669.32255 C 695.94292,669.60959 696.29974,672.10854 696.44882,674.87578 C 697.04814,686.00084 703.79563,694.44132 720.10888,704.4723 C 726.76387,708.56444 728.81611,710.44346 731.1376,714.57015 C 735.65381,722.5982 738.1329,733.77737 738.32924,747 L 738.5,758.5 L 681.72179,758.75827 C 632.57818,758.98181 624.86788,758.81928 624.38063,757.54951 z M 753.38252,755.75 C 756.97128,736.61462 753.62502,717.37617 742.47822,693.05854 C 735.11308,676.99089 736.16726,670.95304 748.94846,656 C 758.38577,644.95906 759.38577,642.57891 758.71669,632.75 C 758.42653,628.4875 758.56104,625 759.01561,625 C 759.47018,625 761.91136,627.06926 764.44046,629.59835 C 770.52937,635.68727 777.81607,648.15502 786.00738,666.5 C 789.99189,675.42356 793.26802,681.5 794.09469,681.5 C 795.78178,681.5 798.09594,676.77191 803.02924,663.24569 C 805.08622,657.60581 808.0105,651.36395 809.52764,649.37488 C 812.3902,645.62187 822.01361,640.40751 824.39261,641.32042 C 825.11453,641.59744 826.26473,644.6682 826.94861,648.14432 C 831.07985,669.14303 847.17802,692.68033 864.41741,702.92784 L 870.18407,706.35568 L 873.57717,704.52838 C 879.25584,701.47021 888.41395,693.59665 889.94083,690.45994 C 890.73329,688.83197 891.57487,684.9125 891.81102,681.75 C 892.04717,678.5875 892.58863,676 893.01427,676 C 894.09352,676 903.986,689.26864 908.29812,696.5 C 913.02657,704.42954 914.44706,712.20519 913.71215,726.13589 C 913.04952,738.69653 913.43996,739.34668 919.72126,736.1422 C 925.02753,733.43514 930.25791,727.4165 934.37942,719.27493 C 936.26574,715.54872 939.08955,711.28794 940.65455,709.80654 C 944.00721,706.63295 953.23694,702.25192 957.5,701.81058 C 960.49744,701.50026 960.49957,701.50384 960,706 C 958.74578,717.28798 959.61143,726.75767 963.13981,740.34762 C 964.38261,745.13438 970.55649,751.9563 976.49857,755.10856 C 978.97436,756.42196 981,757.83484 981,758.24828 C 981,758.66173 929.64893,759 866.8865,759 L 752.773,759 L 753.38252,755.75 z M 96.75,743.38317 C 93.45783,742.38645 95.003285,741.16315 102.86041,738.54649 C 107.18363,737.10672 112.70445,734.67075 115.12889,733.13322 C 117.55333,731.59568 204.54405,644.19922 308.4416,538.91885 C 568.16393,275.73977 555.56429,288.3815 563,283.51004 C 588.29196,266.94014 618.40116,258.72935 642,261.9667 C 666.25588,265.29418 694.43822,280.38571 713.82926,300.43098 C 734.73036,322.03725 747.53851,349.59501 749.88139,378 L 750.5,385.5 L 756,385.5 L 761.5,385.5 L 761.35937,378.96337 C 760.80327,353.11599 745.48076,317.71357 724.59451,294.01872 L 718,286.53745 L 718.00701,280.01872 C 718.02521,263.08025 729.70711,232.64278 749.46365,198.0577 C 753.05864,191.76444 756,185.99691 756,185.24098 C 756,184.48505 754.89292,182.41509 753.53981,180.64109 C 752.18671,178.86708 749.83468,174.7346 748.31308,171.45781 C 745.93226,166.33066 745.54834,164.24519 745.55948,156.5 C 745.57796,143.65203 749.40373,134.78504 760.25396,122.44258 L 764.5,117.61259 L 765.10387,123.87209 C 765.76864,130.76282 767.68975,134.14281 772.99299,137.75213 C 779.05512,141.87794 783.26227,142.47545 804.5,142.22681 C 855.48507,141.62992 873.65738,147.73503 883.13891,168.64608 C 885.39385,173.61925 886.46673,174.9976 887.78541,174.61556 C 892.59893,173.22102 901.52605,172.92725 908.1136,173.9466 C 917.81264,175.44742 924.80097,178.75278 931.32982,184.92749 C 939.96676,193.09595 944.10368,203.39514 945.50499,220.21769 C 946.33798,230.21765 945.75851,232.0357 942.6445,229.19218 C 939.28731,226.12659 934.13787,223.85517 928.59118,222.99324 C 925.79103,222.55811 920.125,221.40861 916,220.43879 C 904.68657,217.77893 879.25272,218.01484 868.58313,220.87861 C 857.33962,223.89642 849.21075,228.57742 845.37081,234.24541 C 842.75904,238.10053 842.01575,240.57038 840.87566,249.18214 C 838.74112,265.3056 839.11711,283.88474 841.76601,293.17827 C 844.74341,303.62433 851.77521,319.03113 857.43073,327.5 C 860.00177,331.35 866.29195,342.85331 871.40891,353.06292 C 891.89581,393.93938 904.83556,434.54329 910.62261,476.11236 C 913.05181,493.56166 913.07313,527.59784 910.66419,542.5 C 907.03865,564.92824 899.85389,587.0415 890.7636,603.75 C 888.59419,607.7375 886.44223,611 885.98146,611 C 885.52069,611 884.12239,608.4125 882.87413,605.25 C 880.64067,599.59148 880.60929,598.92521 880.90193,563.3706 C 881.10478,538.72477 880.86285,527.03327 880.14079,526.58701 C 878.73416,525.71767 862.01337,528.45477 849.76739,531.55896 C 839.37283,534.19385 830.7628,537.60859 826.04721,540.96639 C 824.47644,542.08487 822.94362,543 822.64094,543 C 822.33827,543 821.83123,541.3125 821.51419,539.25 C 819.09103,523.48626 811.75157,510.77385 799.8896,501.79484 C 793.40073,496.88305 779.49453,490.00921 775.44807,489.71339 L 772.52911,489.5 L 771.76994,496.96866 C 771.3524,501.07642 770.49692,506.02642 769.86887,507.96866 C 766.12498,519.54661 757.74036,529.4355 745.5,536.70951 C 731.60048,544.9695 720.28761,557.72917 711.92938,574.57349 C 709.49322,579.48307 707.3903,583.6847 707.25622,583.91045 C 707.12214,584.13619 702.84714,580.03383 697.75622,574.79408 C 683.34092,559.95738 675.27669,555.87639 671.56569,561.54009 C 668.54368,566.15226 635.7305,599.07555 623,610.26876 C 583.44614,645.04622 541.72723,671.59996 501.98387,687.29453 C 490.5489,691.81018 471.06777,698 468.2907,698 C 467.49363,698 473.73965,692.22947 482.17074,685.17661 C 494.63711,674.74812 632.14474,547.92967 649.20118,531.13032 C 653.23039,527.16184 653.99782,525.76011 654.57024,521.32361 C 655.17492,516.63713 654.99456,515.90365 652.66452,513.57361 C 650.64724,511.55633 649.09861,511 645.50051,511 L 640.91011,511 L 584.20505,567.87651 C 517.11737,635.16703 492.55814,658.20738 461,683.46183 C 435.98637,703.47902 427.66767,708.15042 404.5,715.18959 C 388.42465,720.07386 360.19563,726.38523 357.13852,725.77854 C 356.21318,725.59491 359.28675,723.43376 364.19994,720.81337 C 368.98491,718.26137 375.44683,714.4828 378.55976,712.41655 C 381.67269,710.3503 400.70772,692.17356 420.85982,672.02379 C 456.68923,636.19851 502.2892,592.11003 564.51444,533.13084 C 609.17597,490.79912 606,494.28571 606,487.58794 C 606,481.28899 603.79834,478 599.58179,478 C 598.25177,478 596.41431,477.71248 595.49854,477.36107 C 594.24686,476.88075 566.11131,504.39744 482.16675,588.20002 C 364.27523,705.89215 363.16594,706.92594 342,718.82671 C 322.05958,730.03841 304.92955,735.807 285.09547,737.98949 C 275.55959,739.0388 260.98524,738.5131 261.01188,737.12079 C 261.01841,736.77936 266.68134,733.61131 273.59615,730.08068 C 290.97896,721.20522 296.70009,716.90209 318.5,696.30634 C 344.78425,671.47396 447.45041,570.26782 513.25,504.32591 L 568,449.45748 L 568,444.33952 C 568,437.46644 565.92229,434.971 559.60709,434.25918 L 554.7931,433.71657 L 414.14655,574.27132 C 261.89937,726.41913 269.44932,719.3611 247.5,730.05985 C 235.49216,735.91283 221.72103,740.51525 210.20923,742.52274 C 201.872,743.97664 176.92747,744.59414 175.7101,743.37677 C 175.36732,743.03399 181.37639,739.54649 189.06359,735.62677 L 203.0403,728.5 L 289.77015,642.98338 C 337.47157,595.94923 413.69792,520.88941 459.16205,476.18376 C 504.62618,431.47812 542.08868,394.2113 542.41205,393.3686 C 543.5738,390.34113 542.95626,385.44052 541.01096,382.25 C 539.19277,379.26795 538.60939,379 533.93496,379 L 528.84053,379 L 481.67027,425.42697 C 379.40997,526.07589 285.76786,621.35905 224.1109,687.5 C 210.7254,701.85896 198.67734,713.81029 194.11898,717.25115 C 179.18775,728.52191 156.68593,737.84178 135.5,741.53014 C 126.44754,743.10613 100.01063,744.37034 96.75,743.38317 z M 852.12884,178.75 C 855.04825,176.33503 857.05314,172.05992 856.43022,169.57801 C 855.19917,164.67311 852.75243,163.63621 842.2423,163.56535 C 830.724,163.48769 830.0408,164.27176 834.9545,171.92909 C 839.42734,178.89942 847.88673,182.25912 852.12884,178.75 z M 1413,739.92224 C 1395.6887,737.72729 1379.1072,732.64011 1363.8328,724.83774 C 1350.4017,717.97695 1344.0198,712.85984 1319.1743,689.03021 C 1294.9699,665.81537 1171.0077,541.46484 1103.5696,472.75 L 1059.6511,428 L 1055.2801,428 C 1051.9726,428 1050.3119,428.59722 1048.4545,430.45455 C 1045.1649,433.74419 1045.0712,440.37393 1048.25,444.92686 C 1049.4875,446.6993 1112.4414,508.78549 1188.1475,582.89618 L 1325.7949,717.64288 L 1337.8698,724.07144 C 1344.511,727.60715 1349.9571,730.8375 1349.9723,731.25 C 1350.0506,733.37018 1324.3225,730.65685 1310.2299,727.0587 C 1293.1726,722.70359 1279.5876,716.76944 1266,707.73838 C 1260.207,703.88804 1232.6583,676.94219 1144.9612,589.34813 C 1043.347,487.85339 1031.0335,475.87969 1027.7196,475.34193 C 1021.5179,474.33553 1018.1254,479.03832 1020.0085,486.03141 C 1020.8955,489.32581 1035.6983,504.09353 1124.7708,590.54602 C 1223.4886,686.36012 1245.9586,707.18223 1261.5046,717.25192 C 1263.4134,718.48836 1264.9808,719.89561 1264.9876,720.37913 C 1265.0049,721.60393 1250.5971,720.25145 1238,717.84574 C 1215.7598,713.59846 1194.1541,704.95793 1176.5743,693.28037 C 1168.3449,687.81397 1160.6397,680.81118 1134.5,655.04163 C 1097.2644,618.33335 1002.3108,526.77252 996.07497,521.56263 C 988.38015,515.1338 982,517.45248 982,526.67778 L 982,530.91054 L 1060.9892,607.43906 C 1138.3399,682.3801 1140.1602,684.06022 1148.7392,688.43318 C 1156.0622,692.16591 1157.0077,692.90559 1154.5,692.94033 C 1150.1781,693.00019 1132.0705,688.70166 1121,684.98783 C 1091.1098,674.96055 1057.8579,657.23322 1028.8431,635.85693 C 996.14948,611.77025 960.1986,577.12925 932.27317,542.80551 L 925.19943,534.11101 L 925.13047,512.68366 C 924.94799,455.98486 917.68288,425.11463 888.01413,354.97224 C 883.60636,344.55146 880,335.18147 880,334.15004 C 880,331.45488 894.39988,310.15665 903.82012,298.91874 C 922.28908,276.88614 944.13503,262.01088 965.5,256.91992 C 978.6766,253.78013 993.89146,254.51358 1007,258.92047 C 1019.0132,262.95913 1030.8614,269.58021 1041.8782,278.41131 C 1074.5169,304.57475 1224.703,450.08508 1425,649.60542 C 1489.4884,713.84373 1507.7325,731.4757 1512.4046,734.07739 C 1519.7897,738.18982 1518.6757,738.8326 1504,738.9269 C 1474.5071,739.11641 1448.7806,731.47622 1430.8466,717.20201 C 1418.3001,707.21592 1346.7698,636.63867 1241.0301,529.91454 C 1185.2216,473.58654 1126.5068,414.3375 1110.5527,398.25 C 1078.1768,365.6033 1078.7848,366.01524 1072.4,372.4 C 1067.3842,377.41582 1067.6013,382.24975 1073.1317,388.68918 C 1080.8756,397.70603 1262.3286,580.15244 1314.5313,631.41037 C 1393.1002,708.55734 1412.5673,726.48616 1420.5,729.00513 C 1422.7,729.70372 1427.6884,732.01336 1431.5853,734.13765 C 1435.4822,736.26194 1439.6447,738 1440.8353,738 C 1443.6769,738 1443.6193,739.60078 1440.75,740.36971 C 1437.6649,741.1965 1420.9204,740.92649 1413,739.92224 z"
       id="path2408" />
    <path
       style="fill:#5b98c7"
       d="M 435.91347,1137.9815 C 236.58606,937.17537 73.332652,772.40449 73.128115,771.82405 C 72.923579,771.2436 73.373579,770.37763 74.128115,769.89966 C 75.658932,768.92995 1532.8933,768.63809 1535.4182,769.60699 C 1536.2882,769.94083 1536.9891,770.72833 1536.9758,771.35699 C 1536.9465,772.74287 801.37045,1502.3777 799.58512,1502.7918 C 798.89312,1502.9524 635.24088,1338.7877 435.91347,1137.9815 z M 817.02623,1349.965 C 835.40668,1347.7198 850.08448,1341.8164 859.55465,1332.8599 C 870.13634,1322.8522 875.39858,1306.5145 872.95903,1291.2435 C 870.71776,1277.2137 863.53497,1268.5929 847.72266,1260.9545 C 838.28988,1256.3978 833.13819,1254.7745 803.2901,1246.9537 C 788.7361,1243.1403 781.54758,1236.4649 784.10253,1229.1357 C 785.62382,1224.7718 791.83279,1221.9984 800.06572,1222.0056 C 811.54772,1222.0155 818.36805,1225.0411 821.42363,1231.4803 L 823.09383,1235 L 846.04692,1235 C 858.67111,1235 869,1234.6317 869,1234.1815 C 869,1233.7313 868.27481,1230.9188 867.38848,1227.9315 C 863.13209,1213.5857 853.84853,1202.5578 840.64063,1196.1577 C 836.16328,1193.9881 830.26699,1191.6846 827.53776,1191.0387 C 814.1462,1187.8695 789.67645,1188.0948 776.5,1191.5087 C 759.70241,1195.8607 746.87376,1205.5012 740.88898,1218.2697 C 737.65262,1225.1744 737.5,1226.0179 737.5,1237 C 737.5,1247.4949 737.74384,1249.0207 740.28981,1254.4578 C 741.82421,1257.7346 744.17232,1261.8482 745.50784,1263.5992 C 751.9485,1272.0433 767.67853,1279.8628 788.54029,1284.991 C 813.06949,1291.0207 819.00966,1293.0893 823.17601,1297.0527 C 827.74492,1301.3989 828.31876,1306.0538 824.8321,1310.4863 C 819.23037,1317.6078 802.37614,1319.594 791.46884,1314.4182 C 787.14069,1312.3643 783.62323,1308.8331 781.54678,1304.4573 L 779.90617,1301 L 756.81379,1301 L 733.72142,1301 L 734.31463,1306.0087 C 734.66895,1309.0004 736.58024,1314.232 739.06079,1319 C 751.29225,1342.5104 781.10834,1354.3522 817.02623,1349.965 z M 818.51949,1141.7229 C 821.25877,1140.3235 825.05078,1137.5634 826.94617,1135.5893 L 830.39233,1132 L 845.11457,1132 L 859.8368,1132 L 864.1684,1136.1649 C 870.54167,1142.2929 875.98434,1144.4591 885,1144.4561 C 893.66333,1144.4533 898.88095,1142.2932 905.5,1135.9691 L 909.5,1132.1474 L 925.5,1131.8076 C 940.79973,1131.4827 941.74072,1131.3433 947,1128.6236 C 956.92121,1123.493 960.28571,1118.8822 960.28571,1110.4165 C 960.28571,1106.4576 959.49373,1103.8263 956.81729,1098.8931 C 952.89335,1091.6604 929.27933,1054.0575 914.49547,1031.5 C 909.08854,1023.25 903.65909,1014.7552 902.43001,1012.6227 L 900.19533,1008.7454 L 902.09766,1003.2161 C 907.99196,986.08405 900.73342,968.51984 884.60619,960.89032 C 880.20573,958.80853 876.96361,957.99708 873,957.98548 C 869.975,957.97662 867.01905,957.63877 866.43121,957.23469 C 865.84338,956.83061 848.15394,929.95 827.12136,897.5 C 806.08877,865.05 787.33883,837.0375 785.45483,835.25 L 782.02937,832 L 745.51469,832 L 709,832 L 709,846.4849 L 709,860.96979 L 738.23695,861.2349 L 767.47389,861.5 L 771.48695,867.72878 C 791.5433,898.85881 800.68177,912.91898 819.30029,941.29289 L 840.81848,974.08578 L 838.74471,979.79289 C 830.7455,1001.8072 845.6356,1024.2772 868.94415,1025.3655 C 872.84121,1025.5475 876.1742,1025.8772 876.3508,1026.0982 C 876.5274,1026.3192 885.04735,1038.875 895.28402,1054 C 905.52069,1069.125 915.47433,1083.75 917.40321,1086.5 C 922.3405,1093.5391 922.81372,1096.2772 919.64123,1099.4497 C 915.51181,1103.5791 910.95888,1102.9771 905.13751,1097.5319 C 898.43036,1091.2581 893.06114,1089.0466 884.5,1089.0317 C 875.95791,1089.0169 869.39115,1091.7901 863.54705,1097.8805 L 859.5941,1102 L 845,1102 L 830.4059,1102 L 826.45295,1097.8805 C 820.61851,1091.8002 814.04333,1089.0195 805.5,1089.0195 C 796.95667,1089.0195 790.38149,1091.8002 784.54705,1097.8805 L 780.5941,1102 L 765.34361,1102 L 750.09312,1102 L 745.79656,1097.6455 C 739.10164,1090.8604 733.9115,1088.6047 725,1088.607 C 716.05396,1088.6094 709.74031,1091.3638 703.70969,1097.895 L 699.91939,1102 L 692.20969,1101.9847 C 683.90238,1101.9682 682.89796,1101.6375 681.16733,1098.3487 C 679.46991,1095.123 681.29673,1090.9679 689.42172,1079.5738 C 693.31478,1074.1144 703.51741,1059.4894 712.09425,1047.0738 L 727.68849,1024.5 L 734.76586,1023.8592 C 757.92046,1021.7627 771.55704,1001.8059 764.97801,979.64434 L 762.7054,971.98905 L 776.8527,950.72143 C 784.63372,939.02424 791,928.71171 791,927.80469 C 791,926.05292 774.25968,904.87915 772.4066,904.28708 C 771.80524,904.09494 763.96114,915.08925 754.97528,928.71887 C 745.98942,942.34849 738.04736,953.99711 737.32627,954.60469 C 736.60518,955.21226 733.06527,955.98484 729.45979,956.32152 C 708.26947,958.30031 694.77138,978.47483 700.49371,999.61483 L 702.2665,1006.1641 L 690.2966,1023.832 C 683.71315,1033.5494 671.16569,1051.9673 662.41335,1064.7606 C 643.51245,1092.388 639,1100.465 639,1106.6688 C 639,1115.6782 644.18093,1122.9172 654.5,1128.326 L 660.5,1131.471 L 681.11843,1131.9855 L 701.73685,1132.5 L 704.65096,1135.623 C 709.77541,1141.1147 716.88536,1144.0032 725.21676,1143.978 C 733.88266,1143.9519 739.28562,1141.835 745.64318,1135.9748 L 749.95531,1132 L 765.5,1132 L 781.04469,1132 L 785.27234,1135.8661 C 789.474,1139.7085 794.19818,1142.5522 798.99353,1144.1256 C 803.55653,1145.6228 813.21114,1144.4348 818.51949,1141.7229 z M 1121.1846,1018.4899 C 1125.2836,1017.6437 1133.0016,1014.806 1138.7386,1012.0358 C 1153.0705,1005.1153 1160.9133,997.25381 1167.8532,982.8521 C 1172.3936,973.42975 1175,965.07781 1175,959.95078 C 1175,958.07319 1174.1407,958 1152.0974,958 L 1129.1948,958 L 1127.0353,965.10973 C 1122.1761,981.10759 1108.0016,988.17911 1090.5656,983.30408 C 1085.7279,981.95149 1083.4549,980.56529 1079.3373,976.45658 C 1072.0745,969.20946 1069.8605,962.07228 1069.2689,944 C 1068.6359,924.65931 1071.9185,911.1298 1079.3861,902.30109 C 1083.6622,897.24553 1091.8321,893.75 1099.3719,893.75 C 1113.7829,893.75 1123.6003,900.99918 1127.1468,914.25907 L 1128.4148,919 L 1151.2074,919 L 1174,919 L 1173.9852,916.75 C 1173.9509,911.52617 1170.6616,901.16243 1166.4495,893.00703 C 1155.3246,871.46729 1134.2357,859.85699 1103.5,858.3509 C 1086.5449,857.52007 1075.7684,859.52427 1062.1088,866.04875 C 1053.0377,870.38158 1050.6088,872.12286 1042.9891,879.75604 C 1035.4042,887.3544 1033.5979,889.87567 1029.2025,899 C 1022.3759,913.17126 1020.5332,921.8696 1020.6227,939.5 C 1020.7142,957.49964 1022.5788,966.32656 1029.178,980 C 1033.53,989.01725 1035.3933,991.63556 1042.3728,998.54139 C 1053.7027,1009.7517 1064.8811,1015.1476 1085.5,1019.3595 C 1090.8661,1020.4556 1114.4458,1019.881 1121.1846,1018.4899 z M 477.98974,1010 C 479.37171,1005.325 480.86593,1000.9375 481.31023,1000.25 C 481.92172,999.30377 488.23986,999.00372 507.30902,999.01531 C 521.16406,999.02373 533.07505,999.39555 533.77788,999.84156 C 534.48072,1000.2876 535.99497,1003.9932 537.14288,1008.0763 C 540.53413,1020.1388 537.67855,1019 564.53518,1019 C 579.77937,1019 588,1018.6436 588,1017.9826 C 588,1016.7088 535.31089,869.44942 533.93582,866.88008 C 532.99245,865.11738 531.37767,865 508.07181,865 C 485.32319,865 483.15632,865.14849 482.53452,866.75 C 482.16081,867.7125 469.99833,901.575 455.50678,942 C 441.01523,982.425 428.84652,1016.2958 428.46522,1017.2684 C 427.81223,1018.9339 429.15869,1019.0211 451.62449,1018.7684 L 475.47706,1018.5 L 477.98974,1010 z M 492.08465,968.08747 C 490.91118,967.33308 492.02203,962.41995 498.58465,939.33879 C 504.27463,919.32677 506.90764,911.5 507.94991,911.5 C 508.9832,911.5 511.6475,919.11464 517.22204,938 C 521.52427,952.575 524.92181,965.4 524.77213,966.5 C 524.51498,968.38988 523.64659,968.51369 509,968.74868 C 500.475,968.88546 492.86309,968.58791 492.08465,968.08747 z M 833.1408,863.02196 C 837.18691,861.18599 839.78039,861.04235 869.25,861.02196 L 901,861 L 901,846.5 L 901,832 L 861.43426,832 C 834.14937,832 821.19054,832.34832 819.68426,833.12219 C 816.7881,834.61012 812,839.12006 812,840.36004 C 812,842.29642 826.31545,865 827.53642,865 C 828.22126,865 830.74323,864.10988 833.1408,863.02196 z"
       id="path2406" />
    <path
       style="fill:#698471"
       d="M 437.16975,1136.2347 L 75.131778,771.5 L 440.06589,771.24865 C 640.77965,771.1104 969.21845,771.1104 1169.9299,771.24865 L 1534.8598,771.5 L 1222.8325,1081 C 1051.2175,1251.225 885.69579,1415.3556 855.00647,1445.7347 L 799.20772,1500.9695 L 437.16975,1136.2347 z M 817.02623,1349.965 C 835.40668,1347.7198 850.08448,1341.8164 859.55465,1332.8599 C 870.13634,1322.8522 875.39858,1306.5145 872.95903,1291.2435 C 870.71776,1277.2137 863.53497,1268.5929 847.72266,1260.9545 C 838.28988,1256.3978 833.13819,1254.7745 803.2901,1246.9537 C 788.7361,1243.1403 781.54758,1236.4649 784.10253,1229.1357 C 785.62382,1224.7718 791.83279,1221.9984 800.06572,1222.0056 C 811.54772,1222.0155 818.36805,1225.0411 821.42363,1231.4803 L 823.09383,1235 L 846.04692,1235 C 858.67111,1235 869,1234.6317 869,1234.1815 C 869,1233.7313 868.27481,1230.9188 867.38848,1227.9315 C 863.13209,1213.5857 853.84853,1202.5578 840.64063,1196.1577 C 836.16328,1193.9881 830.26699,1191.6846 827.53776,1191.0387 C 814.1462,1187.8695 789.67645,1188.0948 776.5,1191.5087 C 759.70241,1195.8607 746.87376,1205.5012 740.88898,1218.2697 C 737.65262,1225.1744 737.5,1226.0179 737.5,1237 C 737.5,1247.4949 737.74384,1249.0207 740.28981,1254.4578 C 741.82421,1257.7346 744.17232,1261.8482 745.50784,1263.5992 C 751.9485,1272.0433 767.67853,1279.8628 788.54029,1284.991 C 813.06949,1291.0207 819.00966,1293.0893 823.17601,1297.0527 C 827.74492,1301.3989 828.31876,1306.0538 824.8321,1310.4863 C 819.23037,1317.6078 802.37614,1319.594 791.46884,1314.4182 C 787.14069,1312.3643 783.62323,1308.8331 781.54678,1304.4573 L 779.90617,1301 L 756.81379,1301 L 733.72142,1301 L 734.31463,1306.0087 C 734.66895,1309.0004 736.58024,1314.232 739.06079,1319 C 751.29225,1342.5104 781.10834,1354.3522 817.02623,1349.965 z M 818.51949,1141.7229 C 821.25877,1140.3235 825.05078,1137.5634 826.94617,1135.5893 L 830.39233,1132 L 845.11457,1132 L 859.8368,1132 L 864.1684,1136.1649 C 870.54167,1142.2929 875.98434,1144.4591 885,1144.4561 C 893.66333,1144.4533 898.88095,1142.2932 905.5,1135.9691 L 909.5,1132.1474 L 925.5,1131.8076 C 940.79973,1131.4827 941.74072,1131.3433 947,1128.6236 C 956.92121,1123.493 960.28571,1118.8822 960.28571,1110.4165 C 960.28571,1106.4576 959.49373,1103.8263 956.81729,1098.8931 C 952.89335,1091.6604 929.27933,1054.0575 914.49547,1031.5 C 909.08854,1023.25 903.65909,1014.7552 902.43001,1012.6227 L 900.19533,1008.7454 L 902.09766,1003.2161 C 907.99196,986.08405 900.73342,968.51984 884.60619,960.89032 C 880.20573,958.80853 876.96361,957.99708 873,957.98548 C 869.975,957.97662 867.01905,957.63877 866.43121,957.23469 C 865.84338,956.83061 848.15394,929.95 827.12136,897.5 C 806.08877,865.05 787.33883,837.0375 785.45483,835.25 L 782.02937,832 L 745.51469,832 L 709,832 L 709,846.4849 L 709,860.96979 L 738.23695,861.2349 L 767.47389,861.5 L 771.48695,867.72878 C 791.5433,898.85881 800.68177,912.91898 819.30029,941.29289 L 840.81848,974.08578 L 838.74471,979.79289 C 830.7455,1001.8072 845.6356,1024.2772 868.94415,1025.3655 C 872.84121,1025.5475 876.1742,1025.8772 876.3508,1026.0982 C 876.5274,1026.3192 885.04735,1038.875 895.28402,1054 C 905.52069,1069.125 915.47433,1083.75 917.40321,1086.5 C 922.3405,1093.5391 922.81372,1096.2772 919.64123,1099.4497 C 915.51181,1103.5791 910.95888,1102.9771 905.13751,1097.5319 C 898.43036,1091.2581 893.06114,1089.0466 884.5,1089.0317 C 875.95791,1089.0169 869.39115,1091.7901 863.54705,1097.8805 L 859.5941,1102 L 845,1102 L 830.4059,1102 L 826.45295,1097.8805 C 820.61851,1091.8002 814.04333,1089.0195 805.5,1089.0195 C 796.95667,1089.0195 790.38149,1091.8002 784.54705,1097.8805 L 780.5941,1102 L 765.34361,1102 L 750.09312,1102 L 745.79656,1097.6455 C 739.10164,1090.8604 733.9115,1088.6047 725,1088.607 C 716.05396,1088.6094 709.74031,1091.3638 703.70969,1097.895 L 699.91939,1102 L 692.20969,1101.9847 C 683.90238,1101.9682 682.89796,1101.6375 681.16733,1098.3487 C 679.46991,1095.123 681.29673,1090.9679 689.42172,1079.5738 C 693.31478,1074.1144 703.51741,1059.4894 712.09425,1047.0738 L 727.68849,1024.5 L 734.76586,1023.8592 C 757.92046,1021.7627 771.55704,1001.8059 764.97801,979.64434 L 762.7054,971.98905 L 776.8527,950.72143 C 784.63372,939.02424 791,928.71171 791,927.80469 C 791,926.05292 774.25968,904.87915 772.4066,904.28708 C 771.80524,904.09494 763.96114,915.08925 754.97528,928.71887 C 745.98942,942.34849 738.04736,953.99711 737.32627,954.60469 C 736.60518,955.21226 733.06527,955.98484 729.45979,956.32152 C 708.26947,958.30031 694.77138,978.47483 700.49371,999.61483 L 702.2665,1006.1641 L 690.2966,1023.832 C 683.71315,1033.5494 671.16569,1051.9673 662.41335,1064.7606 C 643.51245,1092.388 639,1100.465 639,1106.6688 C 639,1115.6782 644.18093,1122.9172 654.5,1128.326 L 660.5,1131.471 L 681.11843,1131.9855 L 701.73685,1132.5 L 704.65096,1135.623 C 709.77541,1141.1147 716.88536,1144.0032 725.21676,1143.978 C 733.88266,1143.9519 739.28562,1141.835 745.64318,1135.9748 L 749.95531,1132 L 765.5,1132 L 781.04469,1132 L 785.27234,1135.8661 C 789.474,1139.7085 794.19818,1142.5522 798.99353,1144.1256 C 803.55653,1145.6228 813.21114,1144.4348 818.51949,1141.7229 z M 1121.1846,1018.4899 C 1125.2836,1017.6437 1133.0016,1014.806 1138.7386,1012.0358 C 1153.0705,1005.1153 1160.9133,997.25381 1167.8532,982.8521 C 1172.3936,973.42975 1175,965.07781 1175,959.95078 C 1175,958.07319 1174.1407,958 1152.0974,958 L 1129.1948,958 L 1127.0353,965.10973 C 1122.1761,981.10759 1108.0016,988.17911 1090.5656,983.30408 C 1085.7279,981.95149 1083.4549,980.56529 1079.3373,976.45658 C 1072.0745,969.20946 1069.8605,962.07228 1069.2689,944 C 1068.6359,924.65931 1071.9185,911.1298 1079.3861,902.30109 C 1083.6622,897.24553 1091.8321,893.75 1099.3719,893.75 C 1113.7829,893.75 1123.6003,900.99918 1127.1468,914.25907 L 1128.4148,919 L 1151.2074,919 L 1174,919 L 1173.9852,916.75 C 1173.9509,911.52617 1170.6616,901.16243 1166.4495,893.00703 C 1155.3246,871.46729 1134.2357,859.85699 1103.5,858.3509 C 1086.5449,857.52007 1075.7684,859.52427 1062.1088,866.04875 C 1053.0377,870.38158 1050.6088,872.12286 1042.9891,879.75604 C 1035.4042,887.3544 1033.5979,889.87567 1029.2025,899 C 1022.3759,913.17126 1020.5332,921.8696 1020.6227,939.5 C 1020.7142,957.49964 1022.5788,966.32656 1029.178,980 C 1033.53,989.01725 1035.3933,991.63556 1042.3728,998.54139 C 1053.7027,1009.7517 1064.8811,1015.1476 1085.5,1019.3595 C 1090.8661,1020.4556 1114.4458,1019.881 1121.1846,1018.4899 z M 477.98974,1010 C 479.37171,1005.325 480.86593,1000.9375 481.31023,1000.25 C 481.92172,999.30377 488.23986,999.00372 507.30902,999.01531 C 521.16406,999.02373 533.07505,999.39555 533.77788,999.84156 C 534.48072,1000.2876 535.99497,1003.9932 537.14288,1008.0763 C 540.53413,1020.1388 537.67855,1019 564.53518,1019 C 579.77937,1019 588,1018.6436 588,1017.9826 C 588,1016.7088 535.31089,869.44942 533.93582,866.88008 C 532.99245,865.11738 531.37767,865 508.07181,865 C 485.32319,865 483.15632,865.14849 482.53452,866.75 C 482.16081,867.7125 469.99833,901.575 455.50678,942 C 441.01523,982.425 428.84652,1016.2958 428.46522,1017.2684 C 427.81223,1018.9339 429.15869,1019.0211 451.62449,1018.7684 L 475.47706,1018.5 L 477.98974,1010 z M 492.08465,968.08747 C 490.91118,967.33308 492.02203,962.41995 498.58465,939.33879 C 504.27463,919.32677 506.90764,911.5 507.94991,911.5 C 508.9832,911.5 511.6475,919.11464 517.22204,938 C 521.52427,952.575 524.92181,965.4 524.77213,966.5 C 524.51498,968.38988 523.64659,968.51369 509,968.74868 C 500.475,968.88546 492.86309,968.58791 492.08465,968.08747 z M 833.1408,863.02196 C 837.18691,861.18599 839.78039,861.04235 869.25,861.02196 L 901,861 L 901,846.5 L 901,832 L 861.43426,832 C 834.14937,832 821.19054,832.34832 819.68426,833.12219 C 816.7881,834.61012 812,839.12006 812,840.36004 C 812,842.29642 826.31545,865 827.53642,865 C 828.22126,865 830.74323,864.10988 833.1408,863.02196 z"
       id="path2404" />
    <path
       style="fill:#567d7b"
       d="M 437.16975,1136.2347 L 75.131778,771.5 L 440.06589,771.24865 C 640.77965,771.1104 969.21845,771.1104 1169.9299,771.24865 L 1534.8598,771.5 L 1222.8325,1081 C 1051.2175,1251.225 885.69579,1415.3556 855.00647,1445.7347 L 799.20772,1500.9695 L 437.16975,1136.2347 z M 817.02623,1350.9602 C 834.10849,1348.8641 846.69259,1344.3496 857.18954,1336.552 C 863.10355,1332.1587 869.75437,1322.4404 872.23573,1314.5662 C 874.49898,1307.3842 874.94338,1292.744 873.10286,1286 C 871.09708,1278.6504 864.50963,1269.8196 857.60576,1265.2253 C 846.54181,1257.8627 839.11583,1255.0768 813.07395,1248.5186 C 796.65366,1244.3835 791.49093,1242.2807 787.58333,1238.1362 C 780.27417,1230.3838 786.44544,1222.9934 800.21788,1223.0056 C 811.29263,1223.0154 818.2474,1226.3546 820.99161,1232.9798 L 822.24264,1236 L 846.23261,1236 L 870.22258,1236 L 869.52537,1232.25 C 867.67774,1222.3123 861.20502,1210.198 854.355,1203.8572 C 846.57079,1196.6517 835.05733,1191.3576 822,1188.9799 C 813.76625,1187.4805 792.50364,1187.467 784,1188.9557 C 761.19765,1192.9477 745.21168,1203.9243 738.78802,1220 C 735.90047,1227.2263 735.64846,1245.9412 738.34366,1253 C 741.33387,1260.8314 746.13014,1266.8035 753.58164,1271.9735 C 762.6442,1278.2613 772.08481,1281.9769 790.58896,1286.5388 C 813.14449,1292.0994 817.65852,1293.6967 822.0632,1297.6761 C 827.21792,1302.333 827.42514,1306.2582 822.75,1310.6852 C 818.60419,1314.611 813.28272,1316.2941 805.01606,1316.2941 C 794.23563,1316.2941 786.01234,1311.789 782.47525,1303.9451 L 780.69625,1300 L 756.70822,1300 L 732.72019,1300 L 733.30891,1305.7041 C 733.68138,1309.313 735.24177,1314.128 737.55682,1318.8121 C 749.46557,1342.9079 780.46192,1355.4469 817.02623,1350.9602 z M 818.45841,1143.0201 C 820.98122,1141.7989 824.87185,1139.0447 827.10427,1136.8998 L 831.1632,1133 L 845.21977,1133 L 859.27634,1133 L 863.53876,1136.929 C 870.66133,1143.4943 875.3206,1145.3879 884.5,1145.4478 C 893.84637,1145.5088 899.45281,1143.2905 906.10427,1136.8998 L 910.1632,1133 L 923.92267,1133 C 939.28267,1133 944.29903,1131.9417 951.82234,1127.114 C 961.1448,1121.1318 963.97399,1110.304 958.83347,1100.2813 C 956.06696,1094.8873 933.66974,1059.2798 914.65436,1030.0445 C 907.69446,1019.344 902,1009.6367 902,1008.4727 C 902,1007.3087 902.72954,1004.2152 903.62121,1001.5983 C 906.17429,994.10542 905.18923,981.95566 901.47544,975.13221 C 895.80973,964.72243 885.37622,957.97277 873.52005,957.04728 L 866.50909,956.5 L 826.83859,895.5 C 800.79651,855.45597 786.19448,833.90061 784.33404,832.75526 C 781.77357,831.17895 777.95251,831.01002 744.75,831.00526 L 708,831 L 708,846.5 L 708,862 L 736.75,862.01531 C 752.5625,862.02373 766.00361,862.36123 766.61914,862.76531 C 767.23467,863.16939 771.31936,869.125 775.69624,876 C 780.07311,882.875 793.25707,903.125 804.99392,921 C 816.73077,938.875 829.2331,957.97502 832.77688,963.44448 L 839.22011,973.38896 L 837.03783,982.28726 C 834.05478,994.45077 835.25307,1001.8831 841.78428,1011.7267 C 847.49187,1020.3289 857.84678,1025.9235 868.81767,1026.3325 L 875.5,1026.5816 L 896.26893,1057.0408 C 916.44263,1086.6271 921,1093.799 921,1095.9602 C 921,1098.1825 916.91682,1101 913.69617,1101 C 911.21291,1101 909.5364,1100.1096 906.94617,1097.4149 C 905.05078,1095.4431 901.475,1092.6306 899,1091.1649 C 894.97479,1088.7812 893.49766,1088.5 885,1088.5 C 873.9339,1088.5 870.25154,1089.8864 863.25414,1096.6871 L 858.81645,1101 L 844.85724,1101 L 830.89803,1101 L 827.69902,1097.6117 C 825.93956,1095.7481 822.50857,1092.9356 820.0746,1091.3617 C 815.98967,1088.7202 814.91256,1088.5 806.0746,1088.5 C 794.92651,1088.5 791.26412,1089.8741 784.25414,1096.6871 L 779.81645,1101 L 765.14345,1101 L 750.47046,1101 L 746.16104,1096.5533 C 739.76913,1089.9578 734.11027,1087.5501 725,1087.5501 C 715.89902,1087.5501 709.71625,1090.1737 703.48062,1096.6816 L 699.34283,1101 L 691.69447,1101 C 684.71998,1101 683.90725,1100.7881 682.47008,1098.5947 C 681.06562,1096.4512 681.05433,1095.8057 682.36641,1092.6655 C 683.17622,1090.7273 688.51625,1082.4722 694.23315,1074.3208 C 699.95005,1066.1694 709.97619,1051.7375 716.51345,1042.25 L 728.39938,1025 L 732.88409,1025 C 751.64134,1025 767.98829,1008.9107 768.00317,990.4344 C 768.00491,988.27048 767.03735,983.23075 765.85304,979.235 L 763.69975,971.97001 L 778.38169,949.94099 C 786.94256,937.09612 792.7728,927.40918 792.36606,926.70599 C 791.98239,926.04269 787.63498,920.41569 782.70514,914.20154 C 777.22742,907.29677 773.15136,903.01914 772.2235,903.20154 C 771.38844,903.36569 763.00904,914.975 753.6026,929 L 736.5,954.5 L 729.5,955.26485 C 707.21561,957.69974 693.59485,977.82269 699.48995,999.60093 L 701.25898,1006.1363 L 690.2907,1022.3181 C 684.25814,1031.2182 672.16237,1048.9944 663.4112,1061.8209 C 640.07736,1096.021 640.09735,1095.9898 639.01118,1099.8999 C 636.17727,1110.1019 639.89141,1119.9047 649.00241,1126.2699 C 657.37016,1132.1159 661.74711,1133 682.31967,1133 L 700.27634,1133 L 704.7125,1137.0891 C 711.63291,1143.4681 716.67589,1145.2681 726.36547,1144.8175 C 735.61649,1144.3873 739.71099,1142.767 746.37883,1136.8977 L 750.8069,1133 L 765.71636,1133 L 780.62582,1133 L 783.56291,1136.0892 C 787.0709,1139.7789 793.94581,1143.9733 798.33198,1145.0998 C 803.60732,1146.4547 813.46839,1145.4358 818.45841,1143.0201 z M 1125.5,1018.6112 C 1134.0432,1016.2271 1144.5114,1011.0362 1151.612,1005.663 C 1163.9347,996.33815 1175.9098,973.78014 1175.9852,959.75 L 1176,957 L 1152.1187,957 L 1128.2374,957 L 1127.0663,961.65106 C 1125.5088,967.83638 1123.4324,971.80199 1119.638,975.83763 C 1109.8891,986.20657 1092.0618,986.62877 1081.3388,976.74466 C 1073.0988,969.14928 1070.028,959.44131 1070.0321,941 C 1070.039,910.575 1080.4464,894.67861 1100.2951,894.77609 C 1112.977,894.83837 1122.2487,901.61491 1125.9135,913.5 L 1127.7636,919.5 L 1151.5217,919.76843 L 1175.2797,920.03686 L 1174.6457,914.64281 C 1173.2152,902.47095 1167.0864,888.96132 1158.6203,879.31765 C 1154.5555,874.6876 1146.5467,868.83087 1139.1047,865.04629 C 1131.5184,861.18833 1116.552,857.94428 1103.5,857.32878 C 1072.6506,855.87397 1048.925,866.60518 1033.7974,888.85559 C 1023.2805,904.32442 1019.632,917.26525 1019.6596,939 C 1019.6874,960.90002 1023.3419,974.65811 1032.946,989.01897 C 1038.6414,997.53517 1041.2787,1000.3268 1048.5805,1005.5686 C 1059.0991,1013.1197 1070.1262,1017.5987 1085,1020.3616 C 1091.0413,1021.4838 1119.6349,1020.248 1125.5,1018.6112 z M 478.73246,1011 C 480.07694,1006.325 481.64225,1001.9375 482.21093,1001.25 C 482.98735,1000.3114 489.42671,1000 508.06343,1000 C 526.82076,1000 533.07925,1000.3053 533.68977,1001.25 C 534.13407,1001.9375 535.6283,1006.325 537.01028,1011 L 539.52298,1019.5 L 563.9433,1019.7682 C 577.37447,1019.9157 588.67147,1019.6907 589.04773,1019.2682 C 589.424,1018.8457 577.30027,983.85 562.10613,941.5 L 534.48041,864.5 L 508.87643,864.23339 C 489.12976,864.02778 483.05424,864.25654 482.31856,865.23339 C 481.36376,866.50121 427,1017.9057 427,1019.297 C 427,1019.7029 438.08979,1019.9146 451.64398,1019.7675 L 476.28795,1019.5 L 478.73246,1011 z M 493.20392,967.14719 C 492.19068,966.50443 493.52306,960.61086 499.30943,940.14033 C 503.3803,925.73876 507.00104,913.66563 507.35551,913.31116 C 507.70998,912.95669 508.23753,912.9042 508.52785,913.19451 C 509.7587,914.42536 524.12901,965.22142 523.62094,966.54543 C 523.1682,967.72526 520.3653,967.99711 508.78138,967.98469 C 500.92662,967.97627 493.91677,967.59939 493.20392,967.14719 z M 833,864.5 L 837.93351,862 L 869.96676,862 L 902,862 L 902,846.5 L 902,831 L 861.15004,831 L 820.30008,831 L 816.1714,833.9908 C 809.80994,838.59901 809.91398,839.98834 817.56072,852.54301 C 823.75521,862.71332 826.75814,867 827.68823,867 C 827.89627,867 830.28657,865.875 833,864.5 z"
       id="path2402" />
    <path
       style="fill:#0060a8"
       d="M 437.16975,1136.2347 L 75.131778,771.5 L 440.06589,771.24865 C 640.77965,771.1104 969.21845,771.1104 1169.9299,771.24865 L 1534.8598,771.5 L 1222.8325,1081 C 1051.2175,1251.225 885.69579,1415.3556 855.00647,1445.7347 L 799.20772,1500.9695 L 437.16975,1136.2347 z M 817.02623,1351.9602 C 847.15424,1348.2633 866.50255,1335.4975 873.04486,1315 C 875.52193,1307.2392 876.02179,1293.9206 874.12191,1286.3025 C 872.43368,1279.5331 865.58792,1269.7864 859.4057,1265.3503 C 848.96384,1257.8577 839.20677,1254.0997 813.17565,1247.5442 C 805.63228,1245.6446 797.66934,1243.3519 795.48022,1242.4493 C 784.57863,1237.9547 782.08062,1228.9534 790.73174,1225.3387 C 793.45194,1224.2022 796.69128,1223.8905 802.57402,1224.1992 C 812.34489,1224.7121 816.49298,1226.7835 819.83463,1232.8187 L 822.16925,1237.0352 L 846.33463,1236.7676 L 870.5,1236.5 L 870.29029,1232.8396 C 869.80273,1224.3298 862.65571,1210.6813 854.85061,1203.3548 C 842.60296,1191.8582 826.75151,1186.8145 803,1186.8566 C 782.51571,1186.8929 768.27458,1190.3286 756.31807,1198.1185 C 741.09875,1208.0343 734.15411,1221.8608 735.28224,1240 C 736.22397,1255.142 741.43453,1264.5941 753.39989,1272.8657 C 762.65946,1279.2669 772.02586,1282.9624 790.58896,1287.5388 C 798.7485,1289.5503 808.26158,1292.0725 811.72916,1293.1435 C 832.63354,1299.6002 827.74921,1315.2941 804.83533,1315.2941 C 799.39628,1315.2941 796.97077,1314.7337 792.29594,1312.3971 C 787.46927,1309.9845 786.02792,1308.6191 783.67711,1304.2324 L 780.85421,1298.9648 L 756.67711,1299.2324 L 732.5,1299.5 L 732.61876,1305.2921 C 732.71155,1309.818 733.55893,1312.7463 736.49486,1318.6868 C 748.7931,1343.5706 780.07311,1356.4946 817.02623,1351.9602 z M 818.60866,1143.9474 C 821.2141,1142.6861 825.06801,1139.932 827.17291,1137.8271 L 831,1134 L 845.13817,1134 L 859.27634,1134 L 863.53876,1137.929 C 870.66133,1144.4943 875.3206,1146.3879 884.5,1146.4478 C 893.87449,1146.509 899.87968,1144.1203 906.17291,1137.8271 L 910,1134 L 923.84107,1134 C 939.39104,1134 944.27831,1132.955 952.04907,1127.9685 C 961.8869,1121.6556 965.01507,1110.3679 959.76204,1100.1369 C 957.17957,1095.1072 933.70323,1057.7269 919.48149,1036 C 914.62132,1028.575 908.73557,1019.4288 906.40203,1015.6751 L 902.15924,1008.8503 L 904.15302,1003.1751 C 907.1555,994.62883 906.42831,982.38154 902.48912,975.15165 C 896.57471,964.29649 885.28297,956.83316 873.76463,956.16605 L 867.02926,955.77596 L 827.35408,894.77564 C 799.08922,851.31862 786.79039,833.23154 784.58945,831.88451 C 781.68505,830.10695 779.28378,830.00886 744.5,830.24685 L 707.5,830.5 L 707.5,846.5 L 707.5,862.5 L 737.00409,862.7645 L 766.50817,863.029 L 769.46499,867.7645 C 774.32304,875.54492 794.3767,906.39699 817.22518,941.24242 L 838.69471,973.98484 L 836.69326,979.74242 C 834.35118,986.47994 834.02443,996.67683 835.96402,1002.5 C 840.6249,1016.4932 854.39041,1026.9152 868.73841,1027.3139 L 875.22084,1027.494 L 894.86042,1056.4133 C 921.79419,1096.0732 921.43115,1095.426 918.42857,1098.4286 C 915.61165,1101.2455 910.77406,1100.3971 906.94617,1096.4149 C 905.05078,1094.4431 901.475,1091.6306 899,1090.1649 C 894.97479,1087.7812 893.49766,1087.5 885,1087.5 C 873.90205,1087.5 869.97913,1088.9825 863.22368,1095.7292 L 858.94737,1100 L 844.58869,1100 C 830.3625,1100 830.21485,1099.9768 828.58605,1097.491 C 827.68187,1096.111 824.40734,1093.2985 821.30931,1091.241 C 815.78408,1087.5714 815.49348,1087.5 806.08827,1087.5 C 794.89344,1087.5 790.99396,1088.9677 784.22368,1095.7292 L 779.94737,1100 L 765.22368,1099.9835 L 750.5,1099.967 L 746.26309,1095.579 C 739.9378,1089.0283 734.1018,1086.5501 725,1086.5501 C 715.92224,1086.5501 709.68827,1089.1861 703.35501,1095.7026 L 699.17839,1100 L 691.62438,1100 C 685.12291,1100 683.92293,1099.7245 683.01222,1098.0228 C 681.39262,1094.9966 683.33196,1091.3961 697.62083,1070.9008 C 704.70437,1060.7405 714.55,1046.4977 719.5,1039.2501 L 728.5,1026.0726 L 733.0685,1026.0363 C 748.34243,1025.915 763.00713,1014.8172 767.38831,1000.0642 C 769.54815,992.79119 769.42323,987.90656 766.85587,979.24453 L 764.7054,971.98905 L 778.8527,950.72143 C 786.63372,939.02424 793,928.61662 793,927.59337 C 793,924.94789 774.34712,901.99369 772.22475,902.02739 C 771.09212,902.04537 764.61257,910.91842 753.3507,927.87338 L 736.2014,953.69198 L 729.39931,954.32717 C 707.1145,956.40816 692.56632,977.71727 698.48995,999.60093 L 700.25898,1006.1363 L 689.2907,1022.3181 C 683.25814,1031.2182 671.16237,1048.9944 662.4112,1061.8209 C 638.91655,1096.2567 639.07521,1096.007 637.88894,1100.4124 C 635.205,1110.3798 639.419,1120.5746 648.98552,1127.2581 C 657.37122,1133.1166 661.73905,1134 682.31967,1134 L 700.27634,1134 L 704.7125,1138.0891 C 711.63291,1144.4681 716.67589,1146.2681 726.36547,1145.8175 C 735.61649,1145.3873 739.71099,1143.767 746.37883,1137.8977 L 750.8069,1134 L 765.71636,1134 L 780.62582,1134 L 783.56291,1137.0892 C 787.0709,1140.7789 793.94581,1144.9733 798.33198,1146.0998 C 803.68378,1147.4743 813.46857,1146.4357 818.60866,1143.9474 z M 1125.5,1019.6112 C 1134.1174,1017.2064 1144.528,1012.0234 1151.8154,1006.5101 C 1163.0639,997.99996 1173.3287,980.80112 1176.084,965.84764 C 1178.0357,955.25502 1179.7222,955.92371 1151.8335,956.23217 L 1127.618,956.5 L 1125.9757,962 C 1123.0083,971.93769 1119.3293,976.83723 1112.0879,980.49537 C 1103.3723,984.89813 1089.2438,982.92533 1081.8862,976.27826 C 1074.1642,969.30187 1071.0281,959.10873 1071.0321,941 C 1071.0389,910.73136 1080.7781,895.68023 1100.2951,895.77609 C 1112.8098,895.83755 1121.976,902.48545 1125.0118,913.70213 C 1125.726,916.34096 1126.7523,919.0705 1127.2924,919.76777 C 1128.0469,920.74181 1133.7454,920.97351 1151.8872,920.76777 L 1175.5,920.5 L 1175.3673,915.31552 C 1175.1865,908.2534 1171.8368,897.80723 1167.2821,890.10143 C 1154.5921,868.63236 1134.0793,857.77084 1103.5,856.32878 C 1072.3768,854.86106 1048.429,865.87866 1032.7999,888.85559 C 1022.2821,904.31814 1018.632,917.26232 1018.6596,939 C 1018.6881,961.45841 1022.3205,974.68099 1032.6761,990.02244 C 1044.0391,1006.8563 1060.7303,1016.8533 1085,1021.3616 C 1091.0413,1022.4838 1119.6349,1021.248 1125.5,1019.6112 z M 476.68977,1019.75 C 477.13407,1019.0625 478.62853,1014.675 480.0108,1010 L 482.52403,1001.5 L 507.90548,1001.5 L 533.28694,1001.5 L 535.73195,1010 C 537.07671,1014.675 538.64225,1019.0625 539.21093,1019.75 C 539.98747,1020.6888 546.43851,1021 565.12244,1021 C 589.84879,1021 590,1020.987 590,1018.8674 C 590,1016.3785 536.36487,866.14457 534.8055,864.26564 C 534.00907,863.306 527.65692,863 508.53254,863 C 485.73964,863 483.16788,863.16858 481.83492,864.75 C 479.74472,867.22981 425.72255,1018.7421 426.48734,1019.9795 C 427.47258,1021.5737 475.65359,1021.3534 476.68977,1019.75 z M 493.64685,966.23762 C 493.08187,965.32344 507.11221,914.99821 507.93042,915.00409 C 508.54166,915.00848 523,963.71564 523,965.77036 C 523,966.68645 519.31759,967 508.55902,967 C 500.61648,967 493.906,966.65693 493.64685,966.23762 z M 833.29966,865.25 C 836.10576,863.71558 840.56518,863.43841 869.5,863 L 902.5,862.5 L 902.5,846.5 L 902.5,830.5 L 861.34218,830.23898 L 820.18437,829.97797 L 815.85064,833.28341 C 808.60816,838.80744 808.68063,839.66132 817.63031,854.25 C 826.17074,868.17158 826.95279,868.72058 833.29966,865.25 z"
       id="path2400" />
  </g>
</svg>
