<?xml version="1.0" encoding="UTF-8" standalone="no"?>
<!-- Created with Inkscape (http://www.inkscape.org/) -->
<svg
   xmlns:svg="http://www.w3.org/2000/svg"
   xmlns="http://www.w3.org/2000/svg"
   version="1.0"
   width="200"
   height="170"
   id="svg2211">
  <defs
     id="defs2214" />
  <path
     d="M 15.990596,168.98071 C 13.020703,168.56754 9.0148057,167.05885 6.7497307,165.50044 C 5.1111303,164.37305 2.934007,162.09099 1.9536248,160.47315 C -1.3651597,154.99646 -0.38395149,148.1415 4.3524526,143.71435 C 8.6498157,139.69758 14.1694,138.93702 19.629543,141.60927 C 23.08063,143.29827 25.827159,146.63143 27.92876,151.68113 C 29.60327,155.7046 31.445756,157.51124 33.872419,157.50912 C 36.594562,157.50675 38.251292,154.98534 38.892974,149.86824 C 39.576909,144.41421 39.639562,139.01815 39.641619,85.39044 C 39.643956,24.48888 39.753151,28.99403 38.23595,27.39547 C 36.789427,25.87137 36.087499,25.69397 30.910277,25.544 C 26.630907,25.42004 26.081909,25.35518 25.155055,24.86413 C 23.765722,24.12805 22.463093,22.77807 21.846311,21.43511 C 21.109601,19.83102 21.125988,16.83648 21.879248,15.41591 C 22.728458,13.81439 23.789489,12.75768 25.286503,12.02254 L 26.664839,11.34567 L 59.294061,11.22437 C 89.059532,11.11372 91.987159,11.06784 92.651073,10.70158 C 93.993007,9.96129 94.733962,8.90549 95.337246,6.87401 C 95.798398,5.32114 97.317115,3.64785 99.027855,2.80777 L 100.41415,2.12701 L 150.20707,2.0635 L 200,2 L 200,9.28075 L 200,16.56149 L 185.55771,16.56149 C 173.98914,16.56149 170.9601,16.62659 170.33479,16.88863 C 169.19321,17.36701 168.09855,18.36921 167.5817,19.40918 C 167.14464,20.28862 167.12377,22.05208 167.00688,67.99712 L 166.88558,115.67249 L 166.11068,117.24419 C 165.68448,118.10863 164.9203,119.21671 164.4125,119.70659 C 162.99682,121.07232 133.33754,140.55264 132.07299,140.94729 C 129.52036,141.74394 126.76047,140.47292 125.36863,137.85972 C 124.93196,137.03986 124.91222,134.99801 124.7951,78.54489 C 124.68329,24.65331 124.64228,20.0222 124.27091,19.35135 C 123.76627,18.43974 122.72482,17.46289 121.71404,16.95308 C 121.03894,16.61259 119.69854,16.56149 111.44035,16.56149 C 99.683765,16.56149 100.41148,16.34652 98.888175,20.26952 C 97.986755,22.59098 97.039475,23.79269 95.398126,24.69698 C 94.168526,25.37443 93.925672,25.4151 90.329177,25.54584 C 86.769099,25.67526 86.486066,25.72163 85.411168,26.35156 C 84.783874,26.71918 83.972862,27.46988 83.608923,28.01977 L 82.947215,29.01959 L 82.815286,76.9502 C 82.684558,124.44423 82.678748,124.9007 82.17726,127.06418 C 81.236716,131.12179 79.793665,133.85137 77.233996,136.41451 C 75.816801,137.83363 73.291268,139.69961 57.35329,151.10324 C 45.02931,159.92106 44.923616,159.9947 41.727362,161.98895 C 35.935493,165.6027 30.337175,167.95323 25.591054,168.76401 C 23.467787,169.12673 17.937461,169.25156 15.990596,168.98071 z "
     style="fill:#00ac59;fill-opacity:1"
     id="path2222" />
</svg>
