<?xml version="1.0" encoding="UTF-8" standalone="no"?>
<!DOCTYPE svg PUBLIC "-//W3C//DTD SVG 1.0//EN" "http://www.w3.org/TR/2001/REC-SVG-20010904/DTD/svg10.dtd">
<!-- Created with Inkscape (http://www.inkscape.org/) -->
<svg
   xmlns:svg="http://www.w3.org/2000/svg"
   xmlns="http://www.w3.org/2000/svg"
   version="1.0"
   width="1075"
   height="650"
   id="svg2"
   xml:space="preserve"><defs
     id="defs5" /><g
     transform="matrix(1.25,0,0,-1.25,164.34375,851.71875)"
     id="g11"><path
       d="M 297.334,321.127 C 502.482,321.127 708.775,300.416 708.775,300.416 L 708.775,643.541 L -114.1,643.541 L -114.1,300.416 C -114.1,300.416 91.232,321.127 297.334,321.127"
       id="flagge"
       style="fill:#983731;fill-opacity:1;fill-rule:nonzero;stroke:none" /><path
       d="M 526,84.875 C 525.34228,84.86648 524.85547,85.220312 524.4375,85.9375 C 523.78752,87.084998 523.46875,89.24375 523.46875,90.5625 C 523.46875,91.874998 523.125,151.5 523.125,151.5 L 522.125,152.8125 C 520.56752,153.33501 516.57125,152.66875 511.9375,152.15625 C 508.97375,151.82875 506,151.5 506,151.5 C 505.99999,151.5 504.3575,152.15 504.03125,153.46875 C 503.70376,154.78625 503.36375,154.775 504.6875,156.09375 C 506.00125,157.4125 541.9,162.71 543.21875,163.03125 C 544.53753,163.35875 545.375,161.375 545.375,161.375 C 545.37498,161.375 546.1875,158.405 544.875,158.0625 C 543.55623,157.74125 531.02,155.4575 529.375,153.8125 L 529,87.9375 C 529.00002,87.937502 528.72375,85.93 527.40625,85.28125 C 526.84235,84.999062 526.39463,84.880112 526,84.875 z M 524.375,170.15625 C 515.73,170.18609 507.3125,170.25 507.3125,170.25 C 507.31249,170.25 507,170.5875 507,171.90625 C 507.00001,173.22375 506.97625,172.57125 507.3125,173.5625 L 514.25,206.15625 C 515.63623,206.865 537.55875,207.20625 538.59375,206.15625 L 543.875,173.875 L 544.21875,171.25 C 544.21875,171.25 544.225,170.42125 542.90625,170.25 C 541.91499,170.13063 533.02,170.12641 524.375,170.15625 z M 493.8125,215.375 L 491.5,216.6875 L 491.1875,219.65625 L 493.15625,221 C 494.8025,221 498.71876,223.06251 498.71875,223.0625 C 498.71875,223.0625 499.0725,223.305 504.6875,230.21875 C 510.2825,237.13875 512.49873,247.56125 514.90625,255.90625 C 519.18875,270.73 515.88875,290.16501 513.90625,302.03125 C 511.3425,317.41625 504.36376,335.9475 496.46875,349.78125 C 495.0675,352.2175 494.46875,353.71874 494.46875,353.71875 L 495.125,356.6875 C 495.125,356.6875 506.01376,351.42125 509.96875,351.09375 C 513.90875,350.7725 519.83375,350.60125 523.125,351.25 C 526.42625,351.92 531.84877,355.05876 534.65625,357.03125 C 537.42,358.98375 543.86749,369.21376 544.53125,370.53125 C 545.18,371.845 545.87501,375.15626 545.875,375.15625 C 545.875,375.15625 546.22872,378.86374 548.5,374.46875 C 558.7,354.71875 559.52502,349.53251 562.3125,328.375 C 563.95875,315.86 564.295,305.63249 562,292.78125 C 560.89125,286.63375 557.70378,262.505 551.78125,248.34375 C 546.22375,235.0825 544.5,227.25 544.5,227.25 L 552.4375,226.59375 L 553.4375,224.625 L 552.78125,221.96875 L 550.78125,220.65625 C 546.3475,219.665 495.78499,215.0475 493.8125,215.375 z M 373.0625,219.09375 C 372.79662,219.1183 372.50875,219.16438 372.09375,219.25 C 371.32663,219.39872 370.60896,219.78246 370.0625,220.15625 C 369.79783,220.11171 369.18058,220.25858 369.4375,220.53125 L 369.3125,220.65625 C 369.39596,220.63088 369.43011,220.61707 369.5,220.59375 C 369.33865,220.72454 369.19981,220.83803 369.125,220.90625 C 372.01499,223.94374 388.27625,243.885 391.09375,250.6875 C 392.24125,253.48 402.4825,269.435 399.875,285.25 C 399.86125,285.30876 398.09125,303.36875 376.5625,326.625 L 375.90625,327.71875 L 376.5625,328.59375 C 376.5625,328.59376 380.51125,327.91 388.40625,326.25 C 392.14749,325.47374 411.64125,323.47625 412.125,324.90625 C 416.89999,339.15 411.1875,340.71875 411.1875,340.71875 L 399.96875,338.75 L 399.03125,339.75 L 399,348.96875 L 367.03125,341.46875 C 367.03124,341.46876 365.15875,340.89375 363.625,341.5625 L 362.4375,343.4375 L 363.09375,345.40625 C 363.91876,345.90375 364.735,346.44 366.375,347.09375 C 368.02124,347.74375 397.84625,354.2425 400,355.21875 L 402.65625,363.78125 L 435.28125,372.625 C 436.2575,373.27374 442.585,418.065 441.28125,420.375 C 439.96375,422.685 439.87,423.18625 438.3125,421.375 C 436.32499,419.065 430.25375,383.59625 429.84375,381.53125 L 428.03125,379.21875 C 426.76624,378.72625 422.4425,381.86875 421.125,383.1875 C 420.70001,383.6275 416.86375,388.96875 415.0625,395.0625 C 414.49626,396.99126 414.24,405.91875 414.5625,407.90625 C 414.90499,409.87375 415.58375,416.4775 415.59375,417.46875 L 415.9375,422.71875 L 415.53125,429.28125 C 415.53124,429.28125 468.145,426.90125 517.125,426.8125 C 558.85877,426.74499 603.3125,428.96875 603.3125,428.96875 C 603.31249,428.96876 610.3525,416.3675 613.375,412.34375 C 616.31997,408.38 628.3025,390.74125 634.875,377.5625 C 635.67124,375.94626 642.2325,377.6175 645.09375,375.5625 L 651.3125,358.09375 C 651.29752,354.53375 650.5,355.125 650.5,355.125 L 649.34375,354.46875 L 605.875,356.25 L 604.53125,356.84375 L 597.65625,374 L 590.75,377.625 C 575.28626,384.89625 531.41625,389.01875 530.46875,384.3125 L 530.15625,381.6875 L 529.90625,361.4375 L 527.46875,359.625 C 527.46877,359.625 525.1625,358.985 523.84375,359.3125 C 522.52503,359.63501 520.22875,359.6425 519.90625,360.625 C 519.57873,361.61626 518.90625,364.5575 518.90625,365.875 C 518.90624,367.19374 518.9375,384.0625 518.9375,384.0625 C 519.27999,386.03501 491.12375,382.40125 490.625,379.125 C 489.63376,372.53875 487.625,365.625 487.625,365.625 L 486.3125,364.3125 C 485.84375,363.84876 484.8125,363.65625 483.34375,363.65625 C 481.57124,363.65626 470.49,362.69375 468.84375,361.375 C 467.18875,360.06126 462.90625,348.515 462.90625,348.1875 L 419.40625,341.65625 C 419.40625,341.65625 419.0325,329.6575 419.53125,325.375 C 419.53124,325.37499 424.96875,325.37875 432.71875,326.6875 C 439.71999,327.85875 455.61375,332.91875 465.84375,338.65625 C 468.48,340.13126 468.48375,339.12875 468.15625,337.15625 C 467.9025,335.74 467.4975,335.29875 467.15625,334.6875 C 446.67751,296.18624 419.26125,260.33375 416.625,258.6875 L 416.625,257.0625 L 414.90625,221.8125 L 412.28125,220.5 L 410.625,222.15625 L 411.03125,251.78125 C 411.03126,251.78125 380.7625,220.53875 376.03125,219.5625 C 374.27718,219.19968 373.86013,219.0201 373.0625,219.09375 z M 652.28125,239.125 L 650.75,240.4375 C 650.2525,242.7325 650.46875,248.65625 650.46875,248.65625 L 650.9375,251.59375 L 653.5625,251.78125 L 654.21875,250.96875 L 653.875,240.4375 L 653.25,239.4375 L 652.28125,239.125 z M 564.84375,254 C 564.66606,253.98252 564.47828,253.99219 564.25,254.03125 L 562.40625,254.34375 L 561.71875,256.40625 C 562.14875,257.50999 563.2825,260.225 564.625,261.1875 C 565.95752,262.13501 618.18875,333.81375 619.46875,334.3125 C 620.72751,334.805 622.05875,335.77125 622.9375,333.96875 C 623.81126,332.17251 624.08375,332.35 622.4375,329.5625 C 620.77748,326.76874 567.8925,257.44125 567,256.40625 C 566.23,255.51266 566.0876,254.12235 564.84375,254 z M 644.65625,255.59375 L 643.6875,256.90625 C 643.5175,257.56125 645.25498,267.46375 646.65625,271.375 C 648.3025,275.99375 647.78249,275.5025 648.28125,276 C 649.95125,277.67 660.82126,276.65626 661.8125,276.65625 L 663.4375,275.34375 L 664.09375,273.375 L 665.75,257.5625 L 665.09375,256.21875 L 644.65625,255.59375 z M 503.6875,275.34375 L 501.375,275.6875 C 500.72624,276.66376 499.0625,278.30875 499.0625,279.96875 C 499.06249,281.61001 475.69,352.74375 476.03125,354.0625 C 476.35875,355.38001 476.37625,357.015 478.34375,356.6875 C 480.33126,356.36 480.31125,356.6825 481.625,353.71875 C 482.94249,350.75999 504.345,281.6 504.6875,280.28125 C 505.01,278.9625 506.3175,277.97375 505,276.65625 L 503.6875,275.34375 z M 668.375,280.9375 C 668.375,280.9375 636.78001,282.68501 635.125,282.34375 C 633.47875,282.01625 633.79374,283.07125 633.125,284.0625 L 634.125,286.6875 C 636.9125,287.185 637.74997,287.25001 637.75,287.25 L 638.40625,289.1875 C 641.43875,296.77125 639.24376,310.57125 638.75,316.5 C 638.28125,322.095 633.64,341.2125 633.3125,342.53125 C 632.97625,343.84875 634.46873,343.84374 634.46875,343.84375 C 634.46875,343.84375 643.02,341.7175 645.65625,341.375 C 648.29375,341.0525 651.59502,341.57626 653.71875,341.875 C 656.01875,342.21125 659.86625,344.34249 661.125,343.84375 C 661.965,343.5075 663.07124,340.36001 663.59375,338.25 C 664.575,334.31 665.74249,328.02374 666.71875,321.4375 C 667.71,314.845 667.55624,310.40624 667.0625,304.46875 C 666.565,298.56125 665.24252,287.06124 664.75,287.1875 C 667.38125,286.53375 669.02499,286.53875 670.34375,285.875 C 671.6625,285.205 670.68752,282.92751 670.6875,281.9375 L 668.375,280.9375 z M 681.4375,303.625 C 679.56749,303.56624 679.625,303.9375 679.625,303.9375 L 678.90625,306 C 679.33124,307.10874 680.4125,308.92375 681.84375,310.75 C 683.13251,312.43874 697.435,332.81625 698.5,333.65625 C 699.50503,334.46251 701.985,335.06875 702.46875,333.125 C 702.96125,331.15749 703.00125,331.655 701.46875,328.90625 C 699.50002,325.41001 687.15125,308.9425 684.34375,305.65625 L 681.4375,303.625 z M 718.3125,334.0625 C 717.82228,334.10735 717.12563,334.30312 715.96875,334.6875 C 712.89248,335.70875 664.44125,356.485 663.25,357.125 C 662.05876,357.76376 661.11,357.8225 660.34375,359.3125 C 659.49373,360.9675 660.15625,361.96875 660.15625,361.96875 L 662.125,363.59375 C 663.30247,363.42249 665.2675,362.95875 667.40625,361.78125 C 668.85123,360.98625 719.21625,341.06 719.96875,339.9375 C 720.72,338.80501 721.9625,336.375 720.375,335.125 C 719.39217,334.35625 719.12954,333.98775 718.3125,334.0625 z M 679.59375,364.59375 C 679.59375,364.59375 677.76252,365.26751 676.9375,367.25 C 676.11625,369.2225 670.79125,381.035 669.375,383.53125 C 668.05625,385.84 666.72997,388.29749 668.0625,388.625 C 669.38125,388.96125 671.43126,388.16001 675.3125,386.34375 C 680.245,384.03375 682.23126,383.71501 686.1875,382.71875 C 690.1425,381.7275 695.05753,382.22626 698.03125,382.71875 C 700.14,383.07625 703.46372,385.66624 704.625,386.65625 C 706.07,387.90625 707.90628,389.93749 707.90625,389.9375 L 710.21875,389.3125 L 719.4375,370.84375 L 717.125,368.5625 C 714.65875,368.1825 682.41623,364.59375 679.59375,364.59375 z"
       transform="matrix(0.8,0,0,-0.8,-131.475,681.375)"
       id="schiff"
       style="fill:#ffffff;fill-opacity:1;fill-rule:nonzero;stroke:none" /><path
       d="M -114.448,202.681 L -100.045,202.681 L -95.393,234.732 L -95.248,234.732 L -82.471,202.681 L -76.709,202.681 L -63.346,234.732 L -63.198,234.732 L -59.135,202.681 L -44.662,202.681 L -53.08,258.361 L -67.479,258.361 L -79.444,228.603 L -90.741,258.361 L -104.995,258.361 L -114.448,202.681 z M -4.006,212.357 L -0.389,202.681 L 15.045,202.681 L -5.928,258.361 L -21.729,258.361 L -43.147,202.681 L -27.784,202.681 L -23.944,212.357 L -4.006,212.357 z M -7.92,223.431 L -19.959,223.431 L -13.975,241.154 L -13.827,241.154 L -7.92,223.431 z M 47.677,225.502 C 55.58,226.904 59.861,233.548 59.861,241.228 C 59.861,253.119 51.517,258.361 40.513,258.361 L 18.877,258.361 L 18.877,202.681 L 33.349,202.681 L 33.349,224.095 L 33.498,224.095 L 47.158,202.681 L 65.177,202.681 L 47.677,225.502 z M 33.349,247.283 L 34.752,247.283 C 39.478,247.283 44.795,246.4 44.795,240.341 C 44.795,234.287 39.478,233.4 34.752,233.4 L 33.349,233.4 L 33.349,247.283 z M 106.095,226.166 L 92.435,224.466 L 101.369,215.603 C 99.892,215.087 98.416,214.865 96.939,214.865 C 88.298,214.865 81.134,221.88 81.134,231.482 C 81.134,239.162 88.298,246.177 96.939,246.177 C 105.65,246.177 112.595,238.646 112.595,230.298 C 112.595,227.494 111.709,224.466 110.009,222.103 L 106.095,226.166 z M 129.873,201.279 L 120.494,210.806 C 125.146,216.564 127.658,222.99 127.658,230.373 C 127.658,248.466 114.216,260.209 96.865,260.209 C 80.838,260.209 66.072,248.392 66.072,231.556 C 66.072,213.537 78.994,200.834 96.865,200.834 C 102.845,200.834 107.869,201.869 112.15,204.455 L 116.58,199.209 L 129.873,201.279 z M 168.697,258.361 L 168.697,229.045 C 168.697,221.806 168.181,213.908 158.877,213.908 C 149.572,213.908 149.056,221.806 149.056,229.045 L 149.056,258.361 L 134.58,258.361 L 134.58,227.052 C 134.58,219.888 134.877,212.798 140.416,207.408 C 145.068,202.83 152.377,201.205 158.877,201.205 C 165.377,201.205 172.685,202.83 177.338,207.408 C 182.877,212.798 183.173,219.888 183.173,227.052 L 183.173,258.361 L 168.697,258.361 z M 225.994,212.357 L 229.611,202.681 L 245.045,202.681 L 224.072,258.361 L 208.271,258.361 L 186.853,202.681 L 202.216,202.681 L 206.056,212.357 L 225.994,212.357 z M 222.08,223.431 L 210.041,223.431 L 216.025,241.154 L 216.173,241.154 L 222.08,223.431 z M 278.677,225.502 C 286.58,226.904 290.861,233.548 290.861,241.228 C 290.861,253.119 282.517,258.361 271.513,258.361 L 249.877,258.361 L 249.877,202.681 L 264.349,202.681 L 264.349,224.095 L 264.498,224.095 L 278.158,202.681 L 296.177,202.681 L 278.677,225.502 z M 264.349,247.283 L 265.752,247.283 C 270.478,247.283 275.795,246.4 275.795,240.341 C 275.795,234.287 270.478,233.4 265.752,233.4 L 264.349,233.4 L 264.349,247.283 z M 299.877,202.681 L 320.404,202.681 C 335.841,202.681 348.689,214.865 348.689,230.521 C 348.689,246.177 335.912,258.361 320.404,258.361 L 299.877,258.361 L 299.877,202.681 z M 314.349,246.103 L 317.748,246.103 C 327.052,246.103 333.623,240.49 333.623,230.521 C 333.623,219.666 326.24,214.939 317.599,214.939 L 314.349,214.939 L 314.349,246.103 z M 407.978,216.49 C 405.689,215.162 402.955,214.201 400.224,214.201 C 397.271,214.201 393.947,215.974 393.947,219.298 C 393.947,222.4 396.826,224.466 399.189,225.943 L 407.978,216.49 z M 405.173,238.052 C 403.4,240.048 400.814,242.705 400.814,245.439 C 400.814,248.17 402.884,250.017 405.466,250.017 C 408.42,250.017 410.341,247.654 410.341,244.849 C 410.341,241.822 407.681,239.459 405.173,238.052 z M 420.681,202.681 L 438.771,202.681 L 426.291,215.826 L 426.955,216.49 L 433.97,224.021 L 425.775,231.849 C 423.709,228.896 421.197,226.384 418.463,223.951 L 411.447,231.334 C 417.209,234.212 421.787,237.759 421.787,244.701 C 421.787,254.224 413.22,259.837 404.361,259.837 C 395.423,259.837 387.08,254.154 387.08,244.552 C 387.08,239.974 389.295,237.314 391.068,234.877 L 392.248,233.255 L 390.92,232.662 C 383.904,229.56 378.955,225.502 378.955,217.154 C 378.955,206.962 387.228,201.205 396.826,201.205 C 403.548,201.205 410.341,204.084 415.88,207.849 L 420.681,202.681 z M 483.349,225.72 L 484.826,225.72 C 489.552,225.72 496.716,226.384 496.716,219.666 C 496.716,213.537 489.478,213.759 485.197,213.759 L 483.349,213.759 L 483.349,225.72 z M 491.177,202.681 C 501.369,202.681 511.338,206.521 511.338,218.189 C 511.338,225.943 507.943,231.334 499.966,232.369 L 499.966,232.517 C 504.47,234.806 506.095,238.865 506.095,243.888 C 506.095,254.521 499.447,258.361 489.552,258.361 L 468.877,258.361 L 468.877,202.681 L 491.177,202.681 z M 483.349,247.283 L 484.384,247.283 C 488.298,247.283 492.802,246.99 492.802,241.892 C 492.802,237.17 488.814,236.502 484.974,236.502 L 483.349,236.502 L 483.349,247.283 z M 552.994,212.357 L 556.611,202.681 L 572.045,202.681 L 551.072,258.361 L 535.271,258.361 L 513.853,202.681 L 529.216,202.681 L 533.056,212.357 L 552.994,212.357 z M 549.08,223.431 L 537.041,223.431 L 543.025,241.154 L 543.173,241.154 L 549.08,223.431 z M 591.349,236.873 L 591.349,258.361 L 576.877,258.361 L 576.877,202.681 L 591.349,202.681 L 591.349,225.502 L 612.248,225.502 L 612.248,202.681 L 626.724,202.681 L 626.724,258.361 L 612.248,258.361 L 612.248,236.873 L 591.349,236.873 z M 650.349,258.361 L 635.877,258.361 L 635.877,202.681 L 667.705,202.681 L 667.705,214.939 L 650.349,214.939 L 650.349,258.361 z M 709.209,255.259 C 704.259,258.068 697.392,259.837 691.783,259.837 C 680.63,259.837 672.58,252.455 672.58,241.154 C 672.58,230.373 678.564,228.009 687.646,225.427 C 690.748,224.541 696.435,223.138 696.435,219.076 C 696.435,215.162 692.814,213.462 689.42,213.462 C 684.47,213.462 680.185,216.048 676.568,219.224 L 670.365,207.556 C 676.052,203.568 682.92,201.205 689.935,201.205 C 695.548,201.205 701.38,202.755 705.74,206.447 C 710.17,210.212 711.498,215.9 711.498,221.439 C 711.498,230.447 705.517,234.361 697.763,236.65 L 694.072,237.759 C 691.56,238.572 687.646,239.826 687.646,243.076 C 687.646,246.177 691.189,247.728 693.849,247.728 C 697.392,247.728 700.791,246.252 703.447,244.037 L 709.209,255.259 z"
       id="MarquardBahls"
       style="fill:#92342f;fill-opacity:1;fill-rule:evenodd;stroke:none" /></g></svg>