<?xml version="1.0" encoding="UTF-8" standalone="no"?>
<!-- Created with Inkscape (http://www.inkscape.org/) by Marsupilami -->
<svg
   xmlns:svg="http://www.w3.org/2000/svg"
   xmlns="http://www.w3.org/2000/svg"
   version="1.0"
   width="1024"
   height="609"
   viewBox="0 0 142.0625 84.522499"
   id="svg2338">
  <defs
     id="defs2340" />
  <g
     transform="translate(533.88839,-35.815218)"
     id="layer1">
    <path
       d="M -496.92589,64.467718 C -496.87964,48.638968 -481.38964,35.847718 -462.30214,35.815218 C -443.17589,35.847718 -427.68714,48.638968 -427.68089,64.467718 C -427.68714,80.201468 -443.17589,92.993968 -462.30214,92.987718 C -481.38964,92.993968 -496.87964,80.201468 -496.92589,64.467718"
       style="fill:#fee133;fill-opacity:1;fill-rule:nonzero;stroke:none"
       id="path2877" />
    <path
       d="M 54.125,10.375 C 53.1575,10.375 52.84375,11.47875 52.84375,12.625 C 52.843751,13.765 53.09625,14.875 54.0625,14.875 L 56.8125,14.875 L 54.4375,40.875 L 51.9375,40.875 C 50.970002,40.875002 50.71875,42.0025 50.71875,43.15625 C 50.71875,44.296251 51.0325,45.375 52,45.375 L 62.6875,45.375 C 63.654999,45.375001 64,44.26625 64,43.125 C 63.999999,41.97375 63.7175,40.875 62.75,40.875 L 60.125,40.84375 L 62.1875,16.46875 L 69.625,44.625 L 73.53125,44.625 L 80.96875,16.46875 L 83.0625,40.84375 L 80.4375,40.875 C 79.469999,40.874998 79.1875,41.97375 79.1875,43.125 C 79.187501,44.26625 79.50125,45.375 80.46875,45.375 L 91.15625,45.375 C 92.122501,45.374999 92.46875,44.29625 92.46875,43.15625 C 92.468748,42.002501 92.18375,40.875 91.21875,40.875 L 88.71875,40.875 L 86.34375,14.875 L 89.09375,14.875 C 90.061249,14.875 90.34375,13.765 90.34375,12.625 C 90.343748,11.47875 90.0275,10.375 89.0625,10.375 C 89.062497,10.375 79.2525,10.36875 78.625,10.375 C 77.994998,10.37875 77.55125,10.81875 77.34375,11.40625 C 77.143753,11.99125 71.59375,35.84375 71.59375,35.84375 C 71.593751,35.843752 66.04625,11.99125 65.84375,11.40625 C 65.63625,10.81875 65.19125,10.37875 64.5625,10.375 C 63.933752,10.36875 54.125,10.375 54.125,10.375 z M 28.5,66.59375 C 22.88,66.59375 20.875,71.63875 20.875,75.5625 C 20.875,79.46875 22.879999,84.500003 28.5,84.5 C 34.095,84.5 36.124998,79.46875 36.125,75.5625 C 36.125,71.63875 34.094999,66.59375 28.5,66.59375 z M 83.71875,66.59375 C 80.81625,66.59375 77.937496,68.321254 77.9375,71.71875 C 77.9375,74.55625 80.158753,75.700004 82.40625,76.3125 L 84.96875,76.96875 C 87.0175,77.515 87.875,78.416249 87.875,79.75 C 87.875,81.1325 86.662503,82.125001 84.53125,82.125 C 81.71875,82.125 80.291247,80.580002 80.0625,78.875 L 79.96875,77.875 C 79.96875,77.4 79.434998,77.249997 78.875,77.25 C 78.32,77.25 77.750002,77.37125 77.75,77.84375 L 77.75,83.59375 C 77.75,84.06625 78.287501,84.187497 78.84375,84.1875 C 79.40375,84.1875 79.937501,84.035 79.9375,83.5625 L 79.9375,82.375 C 80.62125,83.63875 82.628747,84.500002 84.59375,84.5 C 88.73,84.5 91.031251,82.269998 91.03125,79.46875 C 91.03125,76.54375 89.018752,75.056248 85.46875,74.03125 L 83,73.40625 C 81.57125,73.01 80.843746,72.172502 80.84375,71.28125 C 80.84375,69.92125 82.067501,68.90625 83.84375,68.90625 C 85.7675,68.90625 87.852498,69.996253 88.15625,72.3125 C 88.2625,72.84125 88.687497,72.968748 89.25,72.96875 C 89.80625,72.96875 90.375002,72.818754 90.375,72.34375 L 90.34375,67.5625 C 90.34375,67.0925 89.808747,66.937502 89.25,66.9375 C 88.6925,66.9375 88.125001,67.058749 88.125,67.53125 L 88.125,68.4375 C 87.38875,67.32 85.711248,66.59375 83.71875,66.59375 z M 101.0625,66.59375 C 95.44375,66.59375 93.437501,71.634996 93.4375,75.5625 C 93.4375,79.46625 95.443752,84.531253 101.0625,84.53125 C 106.65875,84.53125 108.65625,79.466246 108.65625,75.5625 C 108.65625,71.635 106.65875,66.59375 101.0625,66.59375 z M 134.75,66.59375 C 131.845,66.59375 128.96875,68.321248 128.96875,71.71875 C 128.96875,74.55875 131.18749,75.699998 133.4375,76.3125 L 136,76.96875 C 138.04875,77.515 138.87499,78.415 138.875,79.75 C 138.875,81.13 137.65999,82.125002 135.53125,82.125 C 132.7175,82.125 131.32,80.582497 131.09375,78.875 L 130.96875,77.875 C 130.96875,77.4 130.43626,77.249999 129.875,77.25 C 129.32,77.25 128.78124,77.371252 128.78125,77.84375 L 128.78125,83.5625 C 128.78125,84.0375 129.31875,84.1875 129.875,84.1875 C 130.435,84.1875 130.96875,84.036252 130.96875,83.5625 L 130.96875,82.375 C 131.65125,83.6375 133.63001,84.499997 135.59375,84.5 C 139.72875,84.5 142.0625,82.27 142.0625,79.46875 C 142.0625,76.5425 140.0475,75.054999 136.5,74.03125 L 134,73.40625 C 132.57,73.00875 131.875,72.171247 131.875,71.28125 C 131.875,69.9225 133.06625,68.906254 134.84375,68.90625 C 136.7675,68.90625 138.88374,69.993746 139.1875,72.3125 C 139.2925,72.84 139.71876,72.968751 140.28125,72.96875 C 140.8375,72.96875 141.375,72.817497 141.375,72.34375 L 141.34375,67.5625 C 141.34375,67.09 140.81124,66.937497 140.25,66.9375 C 139.6925,66.9375 139.15625,67.05875 139.15625,67.53125 L 139.15625,68.4375 C 138.41875,67.3225 136.74251,66.593752 134.75,66.59375 z M 6.78125,67 C 6.4737501,66.997503 1.65625,67.03125 1.65625,67.03125 C 1.1824999,67.03125 1.03125,67.565 1.03125,68.125 C 1.03125,68.683749 1.1525,69.21875 1.625,69.21875 L 3,69.21875 L 1.8125,81.9375 L 0.59375,81.9375 C 0.11999998,81.937499 0,82.4975 0,83.0625 C 0,83.619997 0.15125,84.15625 0.625,84.15625 L 5.875,84.15625 C 6.3500002,84.156248 6.5,83.59 6.5,83.03125 C 6.5000001,82.467496 6.34875,81.9375 5.875,81.9375 L 4.59375,81.9375 L 5.625,70 L 9.25,83.78125 L 11.1875,83.78125 L 14.8125,70 L 15.84375,81.9375 L 14.53125,81.9375 C 14.0575,81.937497 13.9375,82.4675 13.9375,83.03125 C 13.9375,83.589996 14.08875,84.15625 14.5625,84.15625 L 19.8125,84.15625 C 20.285,84.156249 20.4375,83.62 20.4375,83.0625 C 20.437501,82.497497 20.285,81.9375 19.8125,81.9375 L 18.59375,81.9375 L 17.4375,69.21875 L 18.78125,69.21875 C 19.25375,69.21875 19.40625,68.68375 19.40625,68.125 C 19.406251,67.564999 19.25375,67.03125 18.78125,67.03125 C 18.781249,67.03125 13.96375,66.9975 13.65625,67 C 13.3475,67.002503 13.1325,67.24375 13.03125,67.53125 C 12.93375,67.817501 10.21875,79.46875 10.21875,79.46875 C 10.21875,79.468746 7.505,67.8175 7.40625,67.53125 C 7.3037501,67.243751 7.08875,67.0025 6.78125,67 z M 37.71875,67 C 37.2475,67 37.093749,67.563751 37.09375,68.125 C 37.09375,68.6825 37.21625,69.218753 37.6875,69.21875 L 39.125,69.21875 L 39.125,81.875 L 37.6875,81.875 C 37.21625,81.875 37.093749,82.442502 37.09375,83 C 37.09375,83.56125 37.246251,84.09375 37.71875,84.09375 L 43.4375,84.09375 C 43.91125,84.09375 44.093748,83.560002 44.09375,83 C 44.09375,82.4425 43.941252,81.874999 43.46875,81.875 L 41.96875,81.875 L 41.96875,76.875 L 44.1875,76.875 L 47.21875,84.09375 L 50.46875,84.09375 C 50.94125,84.09375 51.09375,83.560002 51.09375,83 C 51.09375,82.4425 50.972499,81.874999 50.5,81.875 L 49.4375,81.875 L 46.96875,76.46875 C 49.2225,75.76125 50.28125,74.0025 50.28125,71.96875 C 50.28125,68.90375 48.34625,66.999997 44.5,67 L 37.71875,67 z M 53.125,67 C 52.65375,67 52.5,67.563751 52.5,68.125 C 52.5,68.6825 52.62125,69.218753 53.09375,69.21875 L 54.53125,69.21875 L 54.53125,81.875 L 53.46875,81.875 C 52.9975,81.875 52.874998,82.442502 52.875,83 C 52.875,83.56125 53.02875,84.09375 53.5,84.09375 L 58.875,84.09375 C 59.34875,84.09375 59.499999,83.560002 59.5,83 C 59.5,82.4425 59.378748,81.874999 58.90625,81.875 L 57.40625,81.875 L 57.40625,76.875 L 59.59375,76.875 L 62.625,84.09375 L 65.90625,84.09375 C 66.3775,84.09375 66.531251,83.560002 66.53125,83 C 66.53125,82.4425 66.379997,81.874999 65.90625,81.875 L 64.84375,81.875 L 62.375,76.46875 C 64.62875,75.76125 65.718751,74.0025 65.71875,71.96875 C 65.71875,68.90375 63.784998,66.999997 59.9375,67 L 53.125,67 z M 68.5625,67 C 68.08875,67 67.937498,67.56625 67.9375,68.125 C 67.9375,68.6825 68.058753,69.218753 68.53125,69.21875 L 70.03125,69.21875 L 70.03125,81.90625 L 68.53125,81.875 C 68.05875,81.875 67.9375,82.442502 67.9375,83 C 67.9375,83.5625 68.088748,84.093749 68.5625,84.09375 L 74.59375,84.09375 C 75.0675,84.09375 75.218751,83.558751 75.21875,83 C 75.21875,82.44125 75.098748,81.906248 74.625,81.90625 L 73.125,81.90625 L 73.125,69.21875 L 74.625,69.21875 C 75.0975,69.21875 75.249997,68.682503 75.25,68.125 C 75.25,67.56375 75.065002,66.999997 74.59375,67 L 68.5625,67 z M 110.28125,67.03125 C 109.93337,67.141343 109.8125,67.632815 109.8125,68.125 C 109.8125,68.68125 109.935,69.21875 110.40625,69.21875 L 111.90625,69.21875 L 111.90625,81.90625 L 110.40625,81.90625 C 109.93375,81.90625 109.8125,82.441247 109.8125,83 C 109.8125,83.56 109.965,84.093752 110.4375,84.09375 L 116.40625,84.09375 C 116.87875,84.09375 117.03125,83.559998 117.03125,83 C 117.03125,82.4425 116.91,81.875003 116.4375,81.875 L 114.625,81.90625 L 114.625,71.5 L 122.28125,84.09375 L 125.15625,84.09375 L 125.15625,69.21875 L 126.65625,69.21875 C 127.13,69.21875 127.28125,68.686252 127.28125,68.125 C 127.28125,67.5675 127.13,67.031248 126.65625,67.03125 L 120.78125,67.03125 C 120.30625,67.03125 120.1875,67.568751 120.1875,68.125 C 120.1875,68.6875 120.34,69.218748 120.8125,69.21875 L 122.4375,69.21875 L 122.4375,79.46875 C 122.4375,79.46875 115.9275,68.260002 115.59375,67.71875 C 115.25875,67.18 115.00625,67.029998 114.375,67.03125 C 113.74375,67.0325 110.4375,67.031249 110.4375,67.03125 C 110.37812,67.03125 110.33095,67.015522 110.28125,67.03125 z M 28.5,68.96875 C 31.06,68.96875 32.906252,71.31375 32.90625,75.5625 C 32.90625,79.6825 31.168749,82.125001 28.5,82.125 C 25.80875,82.125 24.0625,79.6825 24.0625,75.5625 C 24.0625,71.42375 25.808749,68.96875 28.5,68.96875 z M 101.0625,69 C 103.62375,69 105.46875,71.313746 105.46875,75.5625 C 105.46875,79.68 103.73125,82.15625 101.0625,82.15625 C 98.37125,82.15625 96.624996,79.679996 96.625,75.5625 C 96.625,71.4225 98.371252,68.999999 101.0625,69 z M 41.96875,69.34375 L 44.21875,69.34375 C 46.28375,69.34375 47.281249,70.288748 47.28125,71.90625 C 47.28125,73.63875 46.058749,74.562499 43.9375,74.5625 L 41.96875,74.5625 L 41.96875,69.34375 z M 57.40625,69.34375 L 59.625,69.34375 C 61.69125,69.34375 62.71875,70.288748 62.71875,71.90625 C 62.71875,73.63875 61.46625,74.562499 59.34375,74.5625 L 57.40625,74.5625 L 57.40625,69.34375 z "
       transform="translate(-533.88839,35.815218)"
       style="fill:#00614b;fill-opacity:1;fill-rule:nonzero;stroke:none"
       id="path2879" />
  </g>
</svg>
