<?xml version="1.0" encoding="UTF-8" standalone="no"?>
<!-- Created with Inkscape (http://www.inkscape.org/) by Marsupilami -->
<svg
   xmlns:svg="http://www.w3.org/2000/svg"
   xmlns="http://www.w3.org/2000/svg"
   version="1.0"
   width="1024"
   height="403"
   viewBox="0 0 92.333763 36.372501"
   id="svg4106">
  <defs
     id="defs4108" />
  <g
     transform="translate(-328.83312,-514.17593)"
     id="layer1">
    <path
       d="M 38.125,14.65625 C 35.493761,14.65625 33.75,16.19875 33.75,18.5 C 33.749999,19.89875 34.20375,21.2075 36.46875,23.0625 L 37.375,23.8125 C 39.187501,25.303749 39.6875,26.0875 39.6875,27.40625 C 39.6875,28.681249 38.73749,29.96875 36.90625,29.96875 C 36.162488,29.96875 34.39,29.7825 34.03125,28 C 33.97001,27.728751 33.96875,27.46 33.96875,27.28125 C 33.968751,27.1675 33.95126,26.90625 33.65625,26.90625 C 33.38501,26.90625 33.35625,27.225 33.34375,27.375 C 33.34251,27.38 33.34375,27.625 33.34375,27.625 C 33.312498,28.037501 33.25,28.73 33.25,29.5625 C 33.250001,30.12 33.24624,30.28375 33.625,30.46875 C 34.41375,30.855 35.36,31.03125 36.46875,31.03125 C 37.71375,31.031249 38.81999,30.7375 39.65625,30.15625 C 40.987499,29.207499 41.46875,27.7075 41.46875,26.625 C 41.468752,25.0175 40.95875,23.69875 38.40625,21.6875 L 37.8125,21.21875 C 35.841249,19.60875 35.375,18.97 35.375,17.90625 C 35.375,16.573751 36.3275,15.65625 37.75,15.65625 C 39.4475,15.65625 40.01874,16.38625 40.1875,16.6875 C 40.296251,16.89 40.41874,17.39 40.4375,17.625 C 40.458751,17.78625 40.48625,18.0625 40.75,18.0625 C 41.046251,18.062501 41.03125,17.6575 41.03125,17.4375 C 41.031251,16.3475 41.105,15.68375 41.125,15.40625 L 41.125,15.25 C 41.125,15.05625 41.01499,14.96875 40.78125,14.96875 C 40.638752,14.96875 40.46375,14.93125 40.0625,14.84375 C 39.47625,14.7025 38.85251,14.65625 38.125,14.65625 z M 47.34375,14.65625 C 47.07125,14.65625 46.9925,15.0125 46.96875,15.15625 C 46.96875,15.16625 45.59375,28.59375 45.59375,28.59375 C 45.52875,29.3125 45.47124,30.02125 44.96875,30.125 C 44.693741,30.178751 44.61749,30.15625 44.4375,30.15625 C 44.243748,30.15625 44.09375,30.265 44.09375,30.40625 C 44.093751,30.525 44.1525,30.75 44.5625,30.75 C 44.88876,30.75 45.50625,30.6975 45.75,30.6875 C 45.9875,30.677501 46.0625,30.6875 46.0625,30.6875 C 46.062501,30.687501 46.29625,30.6875 46.53125,30.6875 C 46.76124,30.687501 47.45751,30.74 47.9375,30.75 C 48.10001,30.76 48.40625,30.73 48.40625,30.40625 C 48.40625,30.265 48.2925,30.15625 48.125,30.15625 C 47.92626,30.15625 47.74375,30.13875 47.4375,30.0625 C 47.213761,30.013749 47.0625,29.80125 47.0625,29.5625 C 47.0625,29.21 47.04375,28.85375 47.0625,28.53125 C 47.0625,28.53125 47.76501,19.46875 47.78125,19.46875 C 47.732499,19.468749 52.40625,29.75 52.40625,29.75 C 52.792501,30.53 52.87126,30.71875 53.09375,30.71875 C 53.341251,30.71875 53.40876,30.55 53.71875,29.84375 C 53.723761,29.83625 58.3125,19.28125 58.3125,19.28125 C 58.30624,19.281251 59.1875,29.40625 59.1875,29.40625 C 59.192499,29.525001 59.21001,29.62625 59.21875,29.71875 C 59.231258,29.885 59.2325,30.0775 59.1875,30.09375 C 59.034998,30.1525 58.96875,30.2825 58.96875,30.375 C 58.968751,30.63875 59.29125,30.70125 59.65625,30.71875 C 60.398738,30.76625 62.4325,30.75 62.84375,30.75 C 63.35625,30.75 63.40625,30.48 63.40625,30.40625 C 63.406249,30.33 63.36501,30.15625 63.09375,30.15625 C 62.913749,30.15625 62.435,30.17625 61.90625,30 C 61.163749,29.74125 61.03751,28.6075 60.96875,27.9375 L 59.6875,15.34375 C 59.662509,15.0575 59.61874,14.65625 59.3125,14.65625 C 59.05874,14.65625 58.97,14.90625 58.90625,15.0625 C 58.92,15.07625 53.46876,27.59375 53.4375,27.65625 C 53.40376,27.620001 47.75,15.03125 47.75,15.03125 C 47.670012,14.84375 47.57751,14.65625 47.34375,14.65625 z M 86.375,14.65625 C 84.92625,14.65625 83.04499,14.805 81.34375,15.96875 C 79.358749,17.3475 78.1875,19.92375 78.1875,22.84375 C 78.187503,25.638749 79.39375,27.7875 80.4375,28.78125 C 81.975001,30.267499 84.0625,31.03125 86.65625,31.03125 C 87.8175,31.031249 89.4975,30.79 90.6875,30.09375 C 90.990008,29.89875 91,29.755 91,28.84375 L 91,26.5625 L 91.03125,24.4375 C 91.063748,23.73375 91.19374,23.485 91.59375,23.40625 C 91.591247,23.40625 92.0625,23.34375 92.0625,23.34375 C 92.225002,23.34375 92.34375,23.21125 92.34375,23.0625 C 92.343747,22.75625 92.0175,22.75 91.90625,22.75 L 90.375,22.8125 L 90.0625,22.8125 L 89.8125,22.8125 L 87.96875,22.75 C 87.860012,22.75 87.53125,22.75625 87.53125,23.0625 C 87.531247,23.21125 87.64501,23.34375 87.8125,23.34375 L 88.40625,23.40625 C 89.048763,23.6 89.15625,23.73125 89.15625,25.375 L 89.15625,28.84375 C 89.156248,29.126249 89.05375,29.31125 88.84375,29.4375 C 88.400002,29.721249 87.45499,29.84375 86.78125,29.84375 C 84.941248,29.843751 83.36124,29.14625 82.03125,27.71875 C 81.362502,27 80.09375,24.90125 80.09375,22.125 C 80.093752,19.913751 80.75,18.0175 81.875,17.03125 C 83.206258,15.875 84.545,15.71875 85.78125,15.71875 C 88.051248,15.71875 89.57,16.51375 90.03125,17.28125 C 90.336248,17.8275 90.39875,18.47375 90.40625,18.59375 C 90.426239,18.78375 90.4275,19.03125 90.65625,19.03125 C 90.966239,19.03125 90.96875,18.69375 90.96875,18.46875 C 90.968749,16.980001 91.0575,16.25875 91.09375,15.875 L 91.09375,15.53125 C 91.093747,15.425 91.05374,15.255 90.75,15.21875 C 90.252496,15.2 89.63499,15.09375 89.28125,15 C 88.754987,14.87625 87.46,14.65625 86.375,14.65625 z M 74.8125,14.78125 L 74.625,14.84375 L 74.5,14.90625 L 73.875,14.96875 L 73.625,15 L 67.875,15 L 67.625,15 L 65.5625,14.9375 C 65.446258,14.9375 65.09375,14.94625 65.09375,15.25 C 65.093751,15.40375 65.23375,15.53125 65.40625,15.53125 L 66.0625,15.5625 C 66.631241,15.68125 66.80125,15.925 66.84375,16.625 C 66.882488,17.27625 66.875,17.83875 66.875,21.03125 L 66.875,24.65625 C 66.874996,26.58 66.88249,28.23875 66.78125,29.09375 C 66.697498,29.712501 66.57875,30.0325 66.28125,30.09375 C 66.277511,30.09375 65.71875,30.15625 65.71875,30.15625 C 65.506247,30.15625 65.40625,30.3025 65.40625,30.4375 C 65.40625,30.741251 65.76,30.75 65.875,30.75 L 67.53125,30.6875 L 67.875,30.6875 L 68.125,30.6875 L 70.40625,30.75 C 70.83,30.75 70.96875,30.53 70.96875,30.4375 C 70.968748,30.302501 70.77125,30.15625 70.5625,30.15625 L 69.65625,30.09375 C 69.163751,30.0275 69.06126,29.70875 69,29.09375 C 68.892513,28.238751 68.875,26.58 68.875,24.65625 L 68.875,22.90625 C 68.874996,22.906249 68.875,22.89375 68.875,22.875 C 69.682503,22.875 72.2325,22.88375 72.6875,22.9375 C 73.242502,23.005 73.52999,23.29625 73.625,23.5625 L 73.75,24.21875 L 73.75,24.28125 C 73.750002,24.46 73.85875,24.59375 74.03125,24.59375 C 74.315002,24.593749 74.3125,24.26125 74.3125,24.0625 L 74.40625,22.6875 L 74.5625,21.53125 C 74.562498,21.25375 74.3875,21.21875 74.3125,21.21875 C 74.176251,21.21875 74.105,21.33625 74.03125,21.4375 L 73.96875,21.46875 C 73.830001,21.675001 73.63624,21.76875 73.125,21.8125 L 72.21875,21.8125 C 72.218748,21.812499 68.89251,21.84375 68.875,21.84375 C 68.875003,21.823749 68.875,21.8125 68.875,21.8125 L 68.875,16.125 C 68.874996,16.125 68.90625,16.0675 68.90625,16.0625 C 68.909999,16.067501 68.9375,16.0625 68.9375,16.0625 L 72.78125,16.125 C 73.527511,16.1425 73.96126,16.465 74.0625,16.6875 C 74.17875,16.938751 74.25,17.26875 74.25,17.40625 C 74.250002,17.76875 74.46625,17.78125 74.53125,17.78125 C 74.637513,17.781251 74.75626,17.75 74.8125,17.46875 C 74.812503,17.462501 74.90625,16.5 74.90625,16.5 L 74.9375,16.09375 L 75.0625,15.375 L 75.09375,15.125 C 75.093752,14.9325 74.96751,14.78125 74.8125,14.78125 z"
       transform="translate(328.83312,514.17593)"
       id="path3860"
       style="fill:#005e44;fill-opacity:1;fill-rule:nonzero;stroke:none" />
    <path
       d="M 24.25,0 L 16.8125,3.15625 L 16.8125,21.34375 L 24.25,18.1875 L 24.25,0 z M 15.84375,3.5625 L 8.40625,14.625 L 8.40625,32.8125 L 15.84375,21.75 L 15.84375,3.5625 z M 7.4375,15.03125 L 0,18.1875 L 0,36.375 L 7.4375,33.21875 L 7.4375,15.03125 z"
       transform="translate(328.83312,514.17593)"
       id="path3868"
       style="fill:#b6cf48;fill-opacity:1;fill-rule:nonzero;stroke:none" />
  </g>
</svg>
