<?xml version="1.0" encoding="UTF-8" standalone="no"?>
<!-- Created with Inkscape (http://www.inkscape.org/) -->
<svg
   xmlns:dc="http://purl.org/dc/elements/1.1/"
   xmlns:cc="http://web.resource.org/cc/"
   xmlns:rdf="http://www.w3.org/1999/02/22-rdf-syntax-ns#"
   xmlns:svg="http://www.w3.org/2000/svg"
   xmlns="http://www.w3.org/2000/svg"
   xmlns:sodipodi="http://sodipodi.sourceforge.net/DTD/sodipodi-0.dtd"
   xmlns:inkscape="http://www.inkscape.org/namespaces/inkscape"
   id="svg2"
   sodipodi:version="0.32"
   inkscape:version="0.45.1"
   width="677"
   height="277"
   version="1.0"
   sodipodi:docbase="C:\Users\TML\Desktop"
   sodipodi:docname="Sun Life Financial.svg"
   inkscape:output_extension="org.inkscape.output.svg.inkscape">
  <metadata
     id="metadata7">
    <rdf:RDF>
      <cc:Work
         rdf:about="">
        <dc:format>image/svg+xml</dc:format>
        <dc:type
           rdf:resource="http://purl.org/dc/dcmitype/StillImage" />
      </cc:Work>
    </rdf:RDF>
  </metadata>
  <defs
     id="defs5" />
  <sodipodi:namedview
     inkscape:window-height="575"
     inkscape:window-width="765"
     inkscape:pageshadow="2"
     inkscape:pageopacity="0.0"
     guidetolerance="10.0"
     gridtolerance="10.0"
     objecttolerance="10.0"
     borderopacity="1.0"
     bordercolor="#666666"
     pagecolor="#ffffff"
     id="base"
     inkscape:zoom="1.0044313"
     inkscape:cx="336.87969"
     inkscape:cy="149.68351"
     inkscape:window-x="23"
     inkscape:window-y="23"
     inkscape:current-layer="svg2" />
  <path
     style="fill:#0e3846;fill-opacity:1"
     d="M 216.90033,275.00904 C 205.36669,268.91305 201.71951,253.28009 209.05999,241.40293 C 217.05081,228.47352 239.83731,227.6103 246.0933,240 C 249.49775,246.74237 249.27055,247.19548 241,250.15765 C 236.875,251.63505 230.21094,253.64251 226.19098,254.61867 C 219.15375,256.32752 218.90564,256.48846 219.51893,258.94676 C 220.6468,263.46771 223.93804,267.74272 227.64504,269.5018 C 231.02453,271.10547 236.99237,271.21391 245.5,269.82622 C 249.25089,269.21441 247.5916,272.45504 243,274.70878 C 236.88604,277.70976 222.327,277.87725 216.90033,275.00904 z "
     id="path2241" />
  <path
     style="fill:#ffffff"
     d="M 226.18462,249.48494 C 236.41962,247.3652 236.0353,247.60988 234.96911,243.89228 C 232.96617,236.90846 225.56174,233.46684 221.75438,237.75 C 219.51358,240.27082 216.82542,251 218.43462,251 C 218.67367,251 222.16117,250.31822 226.18462,249.48494 z "
     id="path2239" />
  <path
     style="fill:#0e3846;fill-opacity:1"
     d="M 274.66667,276.33333 C 273.18698,274.85365 274.1384,273 276.37756,273 C 280.87653,273 281.04986,271.85039 280.76685,243.88662 L 280.5,217.51877 L 277.51221,217.00168 C 275.7383,216.69467 274.3881,215.77673 274.18889,214.74229 C 273.87758,213.12581 275.55034,213 297.35472,213 L 320.85609,213 L 321.51573,218.27962 C 322.48449,226.03326 321.89278,229.5 319.60063,229.5 C 318.27784,229.5 317.28876,228.28574 316.34241,225.5 C 314.20393,219.20502 312.04242,218 302.88922,218 L 295,218 L 295,230.54206 L 295,243.08413 L 302.75,242.79206 C 310.42956,242.50265 310.513,242.47046 311.93047,239.25 C 312.71722,237.4625 313.95472,236 314.68047,236 C 315.68521,236 316,238.38563 316,246 C 316,253.97363 315.71215,256 314.57946,256 C 313.79816,256 312.86158,254.64626 312.49817,252.99168 C 311.62096,248.99774 309.42943,248 301.53401,248 L 294.93653,248 L 295.21826,259.75 L 295.5,271.5 L 298.75,272.4568 C 300.85269,273.07583 302,274.04663 302,275.2068 C 302,276.84141 300.82079,277 288.66667,277 C 281.33333,277 275.03333,276.7 274.66667,276.33333 z "
     id="path2237" />
  <path
     style="fill:#0e3846;fill-opacity:1"
     d="M 327,275.06642 C 327,273.70044 327.80725,273.03996 329.75,272.81642 L 332.5,272.5 L 332.5,255.5 L 332.5,238.5 L 329.75,238.18358 C 327.90207,237.97095 327,237.28509 327,236.09271 C 327,234.30116 331.00126,233.02472 341.72933,231.39391 L 345.95867,230.75099 L 346.22933,251.6255 L 346.5,272.5 L 349.25,272.81642 C 351.19275,273.03996 352,273.70044 352,275.06642 C 352,276.87474 351.1902,277 339.5,277 C 327.8098,277 327,276.87474 327,275.06642 z "
     id="path2235" />
  <path
     style="fill:#0e3846;fill-opacity:1"
     d="M 358,275.03078 C 358,273.74188 358.65757,273 359.8,273 C 363.52975,273 364,271.08335 364,255.88179 C 364,247.78677 363.72686,240.45177 363.39301,239.58179 C 363.05917,238.7118 361.70917,238 360.39301,238 C 358.72886,238 358,237.4349 358,236.14465 C 358,234.63544 359.49966,233.96528 366.03858,232.55247 C 374.57797,230.70742 377,230.9335 377,233.5756 C 377,234.75198 377.49348,235.00473 378.75,234.47193 C 388.03923,230.53304 392.74335,230.11326 399.09855,232.65611 C 405.62881,235.269 406.95104,239.27857 406.97804,256.55 C 407.0007,271.05095 407.50094,273 411.2,273 C 412.34243,273 413,273.74188 413,275.03078 C 413,276.97648 412.48733,277.0498 400.76218,276.78078 C 390.23909,276.53934 388.47929,276.2649 388.20275,274.82216 C 387.97368,273.62707 388.68949,273.05162 390.69057,272.82216 L 393.5,272.5 L 393.78849,259.5 C 393.94716,252.35 393.82321,245.47605 393.51305,244.22456 C 392.51782,240.20882 389.38732,238 384.69113,238 C 377.03391,238 376.90866,238.31039 377.22337,256.50606 L 377.5,272.5 L 380.30943,272.82216 C 382.31051,273.05162 383.02632,273.62707 382.79725,274.82216 C 382.52071,276.2649 380.76091,276.53934 370.23782,276.78078 C 358.51267,277.0498 358,276.97648 358,275.03078 z "
     id="path2233" />
  <path
     style="fill:#0e3846;fill-opacity:1"
     d="M 420.92308,274.07692 C 418.66662,271.82046 418,270.24159 418,267.15365 C 418,259.9193 425.72396,253.74597 438.26484,250.9571 L 444.02967,249.6751 L 443.4026,246.08755 C 442.29553,239.75396 440.54807,238 435.34502,238 C 431.35566,238 430.28343,238.48002 427.36808,241.5712 C 425.51563,243.53536 424,245.56036 424,246.0712 C 424,248.04074 421.98168,246.86526 420.52425,244.0469 C 418.99972,241.09877 419.00498,241.08781 423.65087,237.54041 C 428.59094,233.76839 436.21428,231 441.66126,231 C 446.22721,231 452.81965,233.8129 454.24721,236.37025 C 454.92692,237.5879 455.69227,244.92398 456.03429,253.5 C 456.65659,269.10391 457.64397,273 460.97617,273 C 463.44313,273 464.65413,274.97158 462.87812,276.09649 C 460.32998,277.71045 448.83284,277.1587 446.80687,275.32522 C 445.07604,273.75884 444.72893,273.75884 441.4442,275.32522 C 439.18905,276.40063 435.41158,277 430.88915,277 C 424.43812,277 423.60047,276.75431 420.92308,274.07692 z "
     id="path2231" />
  <path
     style="fill:#ffffff"
     d="M 442.41821,270.39301 C 443.66322,269.91526 444,268.21198 444,262.39301 C 444,255.1354 443.9533,255 441.45034,255 C 438.18856,255 433.42406,257.45252 432.62118,259.5448 C 431.47244,262.53836 431.98681,267.32794 433.65499,269.17126 C 435.29819,270.98698 439.3854,271.55681 442.41821,270.39301 z "
     id="path2229" />
  <path
     style="fill:#0e3846;fill-opacity:1"
     d="M 467.66667,276.33333 C 466.15812,274.82479 467.17213,273.11304 469.75,272.81642 L 472.5,272.5 L 472.5,255.5 L 472.5,238.5 L 469.75,238.18358 C 467.90207,237.97095 467,237.28509 467,236.09271 C 467,234.30018 470.99923,233.02528 481.75,231.3906 C 485.82385,230.77117 486,230.8519 486,233.33847 L 486,235.93255 L 489.75,233.71627 C 492.66654,231.99258 495.06556,231.5 500.54398,231.5 C 513.6678,231.5 516.0797,235.32139 516.92728,257.4576 C 517.49908,272.39123 517.504,272.41613 520,273.00268 C 521.375,273.3258 522.5,274.24488 522.5,275.04508 C 522.5,276.24071 520.27229,276.5 510,276.5 C 499.55556,276.5 497.5,276.25333 497.5,275 C 497.5,274.175 498.51349,273.35607 499.75219,273.18016 C 503.58953,272.63521 504.29579,269.66918 503.7795,256.267 C 503.20056,241.23842 501.95957,238.69411 494.95915,238.18318 C 492.57165,238.00892 489.56838,238.42822 488.28522,239.11495 C 485.97116,240.35339 485.95443,240.49414 486.2261,256.43177 L 486.5,272.5 L 489.25,272.81642 C 491.19275,273.03996 492,273.70044 492,275.06642 C 492,276.86893 491.19783,277 480.16667,277 C 473.65833,277 468.03333,276.7 467.66667,276.33333 z "
     id="path2227" />
  <path
     style="fill:#0e3846;fill-opacity:1"
     d="M 536.98595,274.71097 C 534.60521,273.45201 531.27901,270.71898 529.59439,268.63758 C 526.91631,265.32872 526.48457,263.9248 526.15833,257.4642 C 525.85143,251.38678 526.17599,249.26791 527.98674,245.5274 C 533.44062,234.26118 548.46052,228.37106 561.5,232.38503 C 565.04516,233.47634 565.4757,233.94359 565.28628,236.49412 C 565.16873,238.0769 564.1643,240.28014 563.05422,241.39023 L 561.03588,243.40856 L 558.09395,240.59001 C 556.05843,238.63986 553.76557,237.61519 550.65204,237.26425 C 546.80961,236.83115 545.78766,237.12143 543.6583,239.25079 C 537.2815,245.62759 537.7643,259.3615 544.61317,266.41356 C 548.54018,270.45708 552.53374,271.50141 561.09917,270.72472 C 566.30919,270.2523 567,270.39998 567,271.98625 C 567,274.96284 560.14834,277 550.13705,277 C 542.87059,277 540.55113,276.59628 536.98595,274.71097 z "
     id="path2225" />
  <path
     style="fill:#0e3846;fill-opacity:1"
     d="M 572,275.125 C 572,273.83832 572.94893,273.06021 575.02427,272.64515 L 578.04854,272.04029 L 577.77427,255.27015 L 577.5,238.5 L 574.75,238.18358 C 572.8989,237.97059 572,237.28554 572,236.08782 C 572,234.6861 573.59769,233.95743 579.52842,232.65425 C 592.1544,229.8799 590.91856,227.86308 591.22971,251.75 L 591.5,272.5 L 594.25,272.81642 C 596.19275,273.03996 597,273.70044 597,275.06642 C 597,276.87474 596.1902,277 584.5,277 C 572.94444,277 572,276.85833 572,275.125 z "
     id="path2223" />
  <path
     style="fill:#0e3846;fill-opacity:1"
     d="M 606.68647,274.58523 C 597.62621,266.18847 605.7976,254.8861 623.85711,250.83539 L 629.21422,249.6338 L 628.69186,245.73928 C 627.96728,240.3372 625.57775,238 620.77927,238 C 615.74708,238 613.68271,239.15929 611.00782,243.48735 C 608.40838,247.69333 607.7688,247.80503 605.93243,244.37374 C 604.58578,241.8575 604.70157,241.59247 608.69652,238.04726 C 615.71235,231.82126 627.08652,229.338 634.4657,232.42122 C 640.16121,234.80096 641.32918,238.39966 641.95596,255.5 C 642.25835,263.75 642.86852,271.0625 643.3119,271.75 C 643.75527,272.4375 644.96492,273 646,273 C 648.44742,273 649.64626,274.97656 647.87812,276.09649 C 645.51991,277.59015 634.65716,277.14859 632.24799,275.46114 C 630.27042,274.076 629.75371,274.076 627.07514,275.46114 C 625.18271,276.43976 621.40392,277 616.69568,277 C 610.25417,277 608.95344,276.68619 606.68647,274.58523 z "
     id="path2221" />
  <path
     style="fill:#ffffff"
     d="M 628.79206,262.75 L 629.08413,255 L 626.11879,255 C 621.52979,255 617,259.35164 617,263.76015 C 617,268.8706 619.43002,271.16666 624.44826,270.79781 L 628.5,270.5 L 628.79206,262.75 z "
     id="path2219" />
  <path
     style="fill:#0e3846;fill-opacity:1"
     d="M 652.66667,276.33333 C 651.15812,274.82479 652.17213,273.11304 654.75,272.81642 L 657.5,272.5 L 657.5,243 L 657.5,213.5 L 654.69057,213.17784 C 652.70803,212.95051 651.97476,212.36956 652.19922,211.20404 C 652.52274,209.52414 655.01758,208.87519 665.75,207.67925 L 671,207.09423 L 671,238.84711 C 671,271.8315 671.1437,273 675.2,273 C 676.33333,273 677,273.74074 677,275 C 677,276.88732 676.33333,277 665.16667,277 C 658.65833,277 653.03333,276.7 652.66667,276.33333 z "
     id="path2217" />
  <path
     style="fill:#0e3846;fill-opacity:1"
     d="M 89,274.625 C 89,273.86875 90.291515,272.9917 91.870034,272.67599 C 93.749353,272.30013 94.952813,271.3077 95.356379,269.80099 C 96.368659,266.02166 96.080307,222.34142 95.024751,219.5651 C 94.33331,217.74647 93.314772,217 91.524751,217 C 89.654957,217 89,216.47385 89,214.97178 C 89,213.019 89.511447,212.95391 102.75,213.22178 C 114.14081,213.45226 116.5,213.75568 116.5,214.99018 C 116.5,215.86388 115.25893,216.69516 113.5,216.99958 L 110.5,217.5188 L 110.23389,244.13856 L 109.96779,270.75831 L 112.23389,271.3655 C 119.65182,273.35309 127.09032,270.5106 129.95455,264.59388 C 131.07955,262.26995 132,259.83563 132,259.18428 C 132,258.53292 133.17609,258 134.61354,258 C 137.16131,258 137.20978,258.11955 136.53939,262.75 C 136.16116,265.3625 135.38165,269.4125 134.80713,271.75 L 133.76257,276 L 111.38129,276 C 93.05777,276 89,275.75071 89,274.625 z "
     id="path2215" />
  <path
     style="fill:#0e3846;fill-opacity:1"
     d="M 141,274.5 C 141,273.675 141.81,273 142.8,273 C 146.52975,273 147,271.08335 147,255.88179 C 147,247.78677 146.72686,240.45177 146.39301,239.58179 C 146.05917,238.7118 144.70917,238 143.39301,238 C 141.717,238 141,237.43632 141,236.11871 C 141,234.07483 145.01861,232.70307 154.72933,231.4322 L 159.95866,230.74782 L 160.22933,251.62391 L 160.5,272.5 L 163.25,272.81642 C 164.824,272.99753 166,273.74589 166,274.56642 C 166,275.73474 163.68704,276 153.5,276 C 143.05556,276 141,275.75333 141,274.5 z "
     id="path2213" />
  <path
     style="fill:#0e3846;fill-opacity:1"
     d="M 171.24953,274.75 C 171.47844,274.0625 172.52844,273.34382 173.58287,273.15294 C 174.63729,272.96205 175.95,272.37815 176.5,271.85538 C 177.08407,271.30022 177.71081,260.83824 178.00682,246.70244 C 178.47424,224.38204 178.68096,222.18895 180.66524,218.5 C 184.97346,210.49064 192.09913,206 200.5,206 C 205.10648,206 212.00317,208.21904 211.99626,209.69897 C 211.98999,211.04297 208.08396,217 207.20898,217 C 206.75775,217 204.86371,215.875 203,214.5 C 198.7155,211.339 194.54447,211.239 192.57265,214.25 C 191.67072,215.62725 190.98298,219.60311 190.79959,224.5 L 190.5,232.5 L 196.75,232.79772 C 202.18075,233.05641 203,233.35134 203,235.04772 C 203,236.59846 202.30584,237 199.625,237 C 197.76875,237 194.84375,237.28125 193.125,237.625 L 190,238.25 L 190,253.0599 C 190,270.88197 190.58158,273 195.47525,273 C 197.94169,273 199,273.45037 199,274.5 C 199,275.76233 196.76852,276 184.91667,276 C 174.09469,276 170.92972,275.71053 171.24953,274.75 z "
     id="path2211" />
  <path
     style="fill:#0e3846;fill-opacity:1"
     d="M 147.07258,221.36514 C 144.35081,217.90498 144.45591,215.45318 147.45455,212.45455 C 150.45424,209.45485 153.86988,209.32321 157.36514,212.07258 C 160.70805,214.70211 160.84457,218.85794 157.68555,221.82569 C 154.41059,224.90235 149.69395,224.69767 147.07258,221.36514 z "
     id="path2209" />
  <path
     style="fill:#0e3846;fill-opacity:1"
     d="M 333.01606,221.29328 C 328.16866,215.13082 335.23535,207.42288 342.31574,211.1497 C 345.20111,212.66844 345.96626,213.94065 345.98469,217.25 C 346.02094,223.75988 337.13539,226.53016 333.01606,221.29328 z "
     id="path2207" />
  <path
     style="fill:#0e3846;fill-opacity:1"
     d="M 578.07258,221.36514 C 575.35081,217.90498 575.45591,215.45318 578.45455,212.45455 C 583.12855,207.78055 591,210.82982 591,217.31445 C 591,223.7179 582.11354,226.50239 578.07258,221.36514 z "
     id="path2205" />
  <path
     style="fill:#ecab23;fill-opacity:1"
     d="M 325.5,187.24676 C 323.85,185.2619 319.91647,181.73375 316.75881,179.40643 L 311.01763,175.17495 L 316.01113,171.58747 C 318.75755,169.61436 321.47889,168 322.05855,168 C 323.97949,168 329.95257,184.00688 329.98813,189.25 C 330.00549,191.80902 328.87199,191.3031 325.5,187.24676 z "
     id="path2203" />
  <path
     style="fill:#0e3846;fill-opacity:1"
     d="M 7.700255,186.83893 C 5.6103952,186.25531 3.1867902,184.68852 2.314466,183.35718 C 0.1194292,180.00713 -0.77280466,167.10309 1.1082366,165.91194 C 3.7854257,164.21664 4.852187,165.0389 6.5303114,170.09126 C 9.6626266,179.52178 16.916606,184.98863 24.427891,183.57951 C 29.312114,182.66322 31.5,179.69207 31.5,173.97558 C 31.5,168.03188 29.252802,165.3469 20,160.2352 C 8.1977886,153.71509 4.9028572,151.03463 2.7737821,146.2215 C 0.35245528,140.74769 0.88652506,134.37247 4.1503962,129.78879 C 8.3662541,123.86816 20.653629,120.7483 31.163087,122.93006 C 39.427504,124.64574 40.157955,125.4754 40.755371,133.82506 L 41.268735,141 L 38.634367,141 C 36.929083,141 36,140.45693 36,139.46016 C 36,136.93099 32.190241,130.24666 29.790882,128.56608 C 26.557879,126.3016 19.828215,126.56069 16.634859,129.07258 C 14.528486,130.72945 14,131.99566 14,135.38549 C 14,140.74512 16.403946,143.17483 28,149.53554 C 42.091994,157.26533 45.487367,161.58546 44.811728,170.92607 C 44.32814,177.61161 41.710275,181.66289 35.661173,185.08703 C 32.168184,187.06426 29.89424,187.47923 21.5,187.67128 C 16,187.79712 9.7901147,187.42256 7.700255,186.83893 z "
     id="path2201" />
  <path
     style="fill:#0e3846;fill-opacity:1"
     d="M 62.212567,186.49339 C 57.264125,184.34339 56.017771,180.25395 55.90032,165.78212 C 55.778889,150.81992 55.252158,148.50672 51.960685,148.48073 C 50.488029,148.46911 49.392646,147.80033 49.198958,146.79459 C 48.825218,144.85392 53.299892,143.31753 62.131625,142.35414 L 67.763249,141.73983 L 68.178231,158.61992 C 68.619136,176.5545 69.193173,178.85572 73.743157,180.92884 C 76.916754,182.37482 82.232388,182.28178 84.336228,180.74341 C 85.854911,179.63292 86.022467,177.68544 85.777358,163.99341 L 85.5,148.5 L 82.75,148.53942 C 80.787096,148.56756 80,148.08013 80,146.83642 C 80,144.78317 84.708333,143.17332 93.25,142.30605 L 99,141.72222 L 99,159.77932 C 99,169.71073 99.273145,178.54823 99.606989,179.41821 C 99.940833,180.2882 101.29083,181 102.60699,181 C 104.27707,181 105,181.56439 105,182.86822 C 105,184.2913 103.61431,185.12525 99.184396,186.36822 C 91.65098,188.48199 89.746504,188.42499 88.257786,186.04117 C 87.045762,184.10041 86.99512,184.10021 82.767239,186.01921 C 77.62171,188.35472 67.057531,188.59843 62.212567,186.49339 z "
     id="path2199" />
  <path
     style="fill:#0e3846;fill-opacity:1"
     d="M 111.18689,185.25 C 111.37034,184.2875 112.48246,183.36221 113.65828,183.19381 C 116.5549,182.77894 116.97042,180.60915 116.98635,165.8151 C 117.00189,151.37476 116.12783,147.71567 112.77545,148.18701 C 111.37053,148.38454 110.43304,147.91729 110.23415,146.92042 C 109.86264,145.05838 115.47168,143.11644 123.6635,142.27097 C 128.62122,141.75929 129,141.87208 129,143.8601 C 129,146.45259 128.70548,146.44394 133.76386,144 C 138.82969,141.55246 148.75279,141.30368 153.03273,143.51693 C 158.39118,146.28789 159.44622,149.83745 160,166.9575 L 160.5,182.415 L 162.99475,183.00135 C 164.36686,183.32384 165.63736,184.35546 165.81807,185.29385 C 166.1138,186.82943 164.88234,187 153.5,187 C 142.11766,187 140.8862,186.82943 141.18193,185.29385 C 141.36264,184.35546 142.63314,183.32142 144.00525,182.99598 L 146.5,182.40427 L 146.5,167.61357 L 146.5,152.82287 L 143.69424,150.41143 C 140.4353,147.61051 135.52356,147.24455 132.22251,149.5567 C 130.08511,151.0538 130,151.71914 130,166.9317 L 130,182.75 L 133,183.35 C 134.75956,183.70191 136,184.58056 136,185.475 C 136,186.76081 134.02791,187 123.42668,187 C 111.99169,187 110.88355,186.84156 111.18689,185.25 z "
     id="path2197" />
  <path
     style="fill:#ecab23;fill-opacity:1"
     d="M 255.16391,185.94479 C 241.70785,183.5413 226.42143,176.52226 217.5,168.65072 L 213.5,165.12145 L 220,167.20532 C 227.48307,169.60436 245.15551,170.10657 253.22291,168.14944 C 257.93666,167.00589 257.95996,167.01308 265.22291,171.84728 C 272.96575,177.0009 280.28417,180.37497 286,181.42631 C 288.16125,181.82384 286.74966,180.95828 282.3096,179.1634 C 274.96683,176.19513 262.85492,168.20003 263.32167,166.62943 C 263.46396,166.15062 267.61229,164.31035 272.54019,162.53995 C 289.2499,156.53681 302.67313,148.5169 313.55834,138.03304 C 320.42496,131.41961 325.17137,125.63596 327.53667,121 C 330.04761,116.07858 330.47721,118.72091 328.07664,124.32121 C 322.97939,136.21261 311.97522,148.81401 299.43814,157.11652 C 295.89716,159.46149 293,161.80731 293,162.32946 C 293,162.85161 295.475,166.34208 298.5,170.08606 C 301.525,173.83005 304,177.13317 304,177.42633 C 304,178.50294 296.00208,182 293.53984,182 C 292.14293,182 291,182.37271 291,182.82825 C 291,185.50615 265.24697,187.7458 255.16391,185.94479 z "
     id="path2195" />
  <path
     style="fill:#ecab23;fill-opacity:1"
     d="M 343.80125,168.98258 C 341.21694,167.40742 336.82944,165.31133 334.05125,164.32461 C 331.27306,163.33788 329,162.12823 329,161.63648 C 329,160.70615 335.84168,152.7261 337.09091,152.19934 C 338.46509,151.61991 344.0313,158.56294 347.5536,165.25 C 351.53867,172.81562 350.98827,173.36312 343.80125,168.98258 z "
     id="path2193" />
  <path
     style="fill:#ecab23;fill-opacity:1"
     d="M 223.71255,164.53017 C 206.17387,160.86647 198.53587,153.62663 191.55479,134.04878 C 189.30508,127.73967 189.1739,126.84046 190.69891,128.18227 C 196.76347,133.51824 208.61797,136.38064 222.43739,135.84586 L 231.37478,135.5 L 235.43739,141.41535 C 237.67183,144.66879 242.73732,151.03365 246.69404,155.55947 C 253.8644,163.76116 253.8792,163.79016 251.19404,164.37135 C 244.57642,165.80368 230.20658,165.88673 223.71255,164.53017 z "
     id="path2191" />
  <path
     style="fill:#ecab23;fill-opacity:1"
     d="M 251.99665,156.28042 C 245.65855,149.38931 235.46509,135.20158 236.27223,134.39444 C 236.51583,134.15083 239.91921,133.06363 243.83529,131.97843 C 258.35429,127.95501 276.70824,118.89797 288.7651,109.80713 C 302.26446,99.628652 311.22114,89.56618 318.20214,76.735781 C 321.31412,71.016259 322.02283,70.19191 321.58418,72.801882 C 320.77753,77.601515 314.57639,89.466325 308.79608,97.26971 C 301.93157,106.53677 288.56235,118.68922 278.92572,124.4215 L 270.91821,129.18472 L 273.62356,133.84236 C 275.1115,136.40406 278.52833,141.7769 281.21652,145.782 L 286.10414,153.064 L 280.55714,155.51715 C 275.76936,157.63453 267.94034,160.32661 260.36647,162.4599 C 258.65794,162.94114 256.99065,161.71017 251.99665,156.28042 z "
     id="path2189" />
  <path
     style="fill:#ecab23;fill-opacity:1"
     d="M 358.1716,147.44192 C 355.79098,146.69373 351.17848,145.78009 347.9216,145.41162 C 344.66472,145.04315 342,144.50714 342,144.22051 C 342,142.65151 347.39579,133 348.27296,133 C 350.52749,133 363.17643,143.70265 365.11435,147.25 C 366.28576,149.39428 364.53746,149.4426 358.1716,147.44192 z "
     id="path2187" />
  <path
     style="fill:#ecab23;fill-opacity:1"
     d="M 202.7269,130.04729 C 199.55169,129.03246 195.34145,126.97234 193.37079,125.46925 C 187.67638,121.12591 186.65927,117.45836 187.27814,103.5 C 187.57077,96.9 188.2715,90.315774 188.83533,88.868386 L 189.86048,86.236772 L 194.94474,88.752943 C 198.27453,90.400841 202.37332,91.43685 206.82261,91.755195 L 213.61622,92.241276 L 216.3527,101.37064 C 217.85776,106.39179 221.18587,114.91674 223.74848,120.31497 C 227.62726,128.48574 228.16423,130.28401 226.95389,131.04966 C 224.38658,132.67371 208.94557,132.03486 202.7269,130.04729 z "
     id="path2185" />
  <path
     style="fill:#ecab23;fill-opacity:1"
     d="M 230.73929,125.64922 C 225.5065,116.28673 218.03874,97.060445 218.01082,92.878831 C 218.0029,91.691555 219.30579,91.084442 222.87887,90.610456 C 228.33722,89.886381 238.54424,86.533767 247.32682,82.580245 C 262.22431,75.874068 281.65974,59.031279 287.5158,47.752376 C 290.52182,41.962718 292.66869,40.079812 291.50916,44.25 C 288.83346,53.873067 278.80545,68.156399 268.87191,76.493255 C 264.65607,80.031454 253.46494,87.294574 250.65316,88.317352 C 249.93516,88.578524 252.3302,94.352537 257,103.61841 C 261.125,111.80328 264.6317,118.78259 264.79266,119.12798 C 265.42681,120.48872 238.65538,130 234.19115,130 C 233.63006,130 232.07673,128.04215 230.73929,125.64922 z "
     id="path2183" />
  <path
     style="fill:#ecab23;fill-opacity:1"
     d="M 350.36802,121.91784 C 350.74486,120.03803 351.32557,116.80101 351.65848,114.72447 C 352.1789,111.47837 352.5608,111.0292 354.38189,111.52124 C 358.18639,112.54918 373.36636,120.47151 373.72672,121.61718 C 373.96319,122.36896 370.71286,122.90091 363.78906,123.24356 C 358.13008,123.52362 352.64114,124.10891 351.59143,124.54421 C 349.86568,125.25986 349.74849,125.00829 350.36802,121.91784 z "
     id="path2181" />
  <path
     style="fill:#ecab23;fill-opacity:1"
     d="M 352.5239,101.75 C 351.47551,98.57944 351.57586,89.991508 352.66618,89.573834 C 354.28076,88.955328 365.86298,90.674717 370.51282,92.223182 C 376.12936,94.093568 375.76499,95.437044 369.26557,96.821968 C 366.09451,97.497672 361.25,99.160039 358.5,100.51612 C 352.62656,103.41242 353.04503,103.32602 352.5239,101.75 z "
     id="path2179" />
  <path
     style="fill:#ecab23;fill-opacity:1"
     d="M 203.5,87.343104 C 198.49514,86.27984 192,82.58834 192,80.807105 C 192,77.991088 197.47267,66.52613 202.10371,59.640353 C 207.7108,51.3033 215.07183,43.813585 216.95014,44.534362 C 217.76903,44.848601 218.16248,44.829148 217.82447,44.491134 C 216.96839,43.635062 220.82279,39.674925 224.94712,37.173079 L 228.39424,35.082032 L 232.52983,47.291016 C 234.80441,54.005957 238.51052,63.775 240.76563,69 C 244.51121,77.678334 244.72237,78.610311 243.20705,79.7754 C 241.03019,81.44914 224.47145,86.722829 220.02331,87.159049 C 216.60143,87.494624 216.52805,87.421166 215.3693,82.5 C 213.906,76.2854 213.66163,57.666625 214.9829,53.05963 C 215.52349,51.174688 215.77512,49.441791 215.54208,49.208747 C 215.30904,48.975702 214.374,51.345535 213.46423,54.475041 C 211.76511,60.319826 211.18474,79.903579 212.54951,85.341256 C 213.18871,87.888005 213.05429,87.995114 209.35841,87.883999 C 207.23628,87.820198 204.6,87.576795 203.5,87.343104 z "
     id="path2177" />
  <path
     style="fill:#ecab23;fill-opacity:1"
     d="M 346.98782,74.967436 C 345.74701,71.649527 344.92118,68.745491 345.15264,68.514025 C 345.38411,68.282559 349.6355,67.552357 354.60018,66.891355 C 363.10208,65.759404 369,66.119597 369,67.770769 C 369,68.173735 366.9158,69.609098 364.36845,70.960464 C 361.8211,72.31183 357.59418,75.123558 354.97529,77.208747 C 352.35641,79.293936 349.99547,81 349.72876,81 C 349.46206,81 348.22864,78.285346 346.98782,74.967436 z "
     id="path2175" />
  <path
     style="fill:#ecab23;fill-opacity:1"
     d="M 336.9425,56.25 C 335.04913,53.6375 333.36452,51.206052 333.19893,50.846782 C 332.77974,49.937298 342.5637,45.436784 348,44.038454 C 350.475,43.401832 353.2875,42.652419 354.25,42.373092 C 357.21331,41.513109 356.20931,43.707872 351.35413,48.703483 C 348.7989,51.332621 345.5891,55.174894 344.22124,57.241867 C 342.85338,59.30884 341.43065,61 341.05961,61 C 340.68858,61 338.83588,58.8625 336.9425,56.25 z "
     id="path2173" />
  <path
     style="fill:#ecab23;fill-opacity:1"
     d="M 322.48894,40.805818 C 319.74502,38.612558 317.36795,36.462853 317.20655,36.028696 C 316.78028,34.882027 326.70375,27.197755 332.25,24.379747 C 334.86377,23.051712 337,22.455967 337,23.055084 C 337,23.653911 335.79589,26.198519 334.3242,28.709769 C 332.85251,31.221018 330.71003,35.867202 329.56314,39.03462 L 327.47787,44.793564 L 322.48894,40.805818 z "
     id="path2171" />
  <path
     style="fill:#ecab23;fill-opacity:1"
     d="M 303.25,29.20986 C 300.3625,27.804524 298,26.097805 298,25.41715 C 298,22.860736 310.96701,8.0645953 313.25,8.0159731 C 314.27988,7.9940392 314.19229,8.7951638 312.58632,14.08616 C 311.8207,16.608548 310.87314,21.671048 310.48064,25.33616 C 310.08814,29.001272 309.48193,31.947129 309.1335,31.882508 C 308.78508,31.817887 306.1375,30.615196 303.25,29.20986 z "
     id="path2169" />
  <path
     style="fill:#ecab23;fill-opacity:1"
     d="M 232.98436,27.594923 C 231.39119,23.125295 230.47893,7.4400725 231.76589,6.6446898 C 232.3457,6.2863448 234.13205,8.3319486 235.78751,11.249985 C 237.42566,14.137493 240.59052,18.562129 242.82053,21.082509 L 246.87511,25.665018 L 240.48132,28.177432 L 234.08753,30.689846 L 232.98436,27.594923 z "
     id="path2167" />
  <path
     style="fill:#ecab23;fill-opacity:1"
     d="M 254.28158,22.291397 C 253.16661,19.385842 257.18391,-1.3016502e-015 258.90099,1.7494686e-015 C 259.28893,2.4388044e-015 260.63897,3.2625 261.90108,7.25 C 263.16319,11.2375 265.07005,16.019214 266.13855,17.876032 C 267.20705,19.732849 267.9176,21.415734 267.71756,21.615776 C 267.51751,21.815819 264.53365,22.365175 261.08676,22.836567 C 256.05095,23.525257 254.71395,23.418149 254.28158,22.291397 z "
     id="path2165" />
  <path
     style="fill:#ecab23;fill-opacity:1"
     d="M 281.1119,22.919005 C 278.69845,22.444981 276.55615,21.88948 276.35123,21.68456 C 274.84986,20.183195 284.71477,1.4082487e-015 286.94996,5.7679556e-016 C 287.39753,4.1030547e-016 287.82766,3.7530159 287.90579,8.3400354 C 287.98393,12.927055 288.48709,18.211584 289.02393,20.083433 C 289.56077,21.955283 290,23.602267 290,23.743398 C 290,24.20675 285.58195,23.796965 281.1119,22.919005 z "
     id="path2161" />
</svg>
