<?xml version="1.0" encoding="UTF-8" standalone="no"?>
<!-- Created with Inkscape (http://www.inkscape.org/) by Marsupilami -->
<svg
   xmlns:svg="http://www.w3.org/2000/svg"
   xmlns="http://www.w3.org/2000/svg"
   version="1.0"
   width="925"
   height="768"
   viewBox="0 0 81.496262 67.641243"
   id="svg2290">
  <defs
     id="defs2292" />
  <g
     transform="translate(-334.25187,-498.54156)"
     id="layer1">
    <path
       d="M 30.125,47.3125 L 28.03125,48.0625 L 28.03125,50.09375 L 28.03125,51.90625 L 28.03125,61.90625 C 28.03125,65.01752 28.15749,67.593751 31.90625,67.59375 C 32.94373,67.59375 33.997501,67.32501 34.5,67.125 L 34.34375,65.375 C 33.74126,65.61124 33.208749,65.781249 32.40625,65.78125 C 30.6975,65.78125 30.125001,64.510009 30.125,62.96875 L 30.125,51.90625 L 34.03125,51.90625 L 34.03125,50.09375 L 30.125,50.09375 L 30.125,47.3125 z M 63,47.375 L 60.875,48.09375 L 60.875,50.15625 L 60.875,51.96875 L 60.875,61.9375 C 60.875,65.04999 61.032511,67.656247 64.78125,67.65625 C 65.81876,67.65625 66.842503,67.357491 67.34375,67.15625 L 67.21875,65.4375 C 66.615,65.67501 66.085011,65.843749 65.28125,65.84375 C 63.57375,65.84375 63,64.572499 63,63.03125 L 63,51.96875 L 66.875,51.96875 L 66.875,50.15625 L 63,50.15625 L 63,47.375 z M 20.40625,49.6875 C 17.59625,49.78625 14.88124,51.151249 15,54.53125 C 15.1725,59.48375 23.35876,58.577491 23.5,62.625 C 23.5675,64.565 21.82,65.711251 19.8125,65.78125 C 18.17375,65.83876 16.63875,65.467496 15.34375,64.875 L 15.21875,66.96875 C 16.74749,67.51876 18.391251,67.651252 20.03125,67.59375 C 22.60875,67.50375 25.93874,66.142492 25.8125,62.53125 C 25.61751,56.94375 17.23626,57.646261 17.125,54.46875 C 17.05,52.29374 18.51249,51.576259 20.6875,51.5 C 21.85874,51.45876 23.380011,51.692499 24.5,52.15625 L 24.65625,50.3125 C 23.12875,49.79625 21.31001,49.656242 20.40625,49.6875 z M 43.4375,49.71875 C 41.26126,49.71875 39.833732,51.467499 39.0625,53.375 L 38.96875,53.375 L 38.96875,50.09375 L 36.875,50.09375 C 37.0075,51.33249 36.999999,52.032488 37,53.90625 L 37,67.1875 L 39.125,67.1875 L 39.125,58.75 C 39.125,55.67001 40.027509,51.906252 43.375,51.90625 C 43.91125,51.90625 44.47001,51.990001 44.90625,52.125 L 44.90625,49.90625 C 44.53626,49.805 43.938751,49.718748 43.4375,49.71875 z M 51.875,49.71875 C 50.3675,49.71875 48.179992,50.239999 46.875,50.875 L 46.875,52.90625 C 48.44749,51.90125 50.100012,51.5 51.875,51.5 C 54.7225,51.5 55.750001,52.99251 55.75,55.90625 L 55.75,56.78125 L 55.375,56.78125 C 50.95626,56.78125 44.843752,57.024999 44.84375,62.75 C 44.84375,64.28875 45.613752,67.593751 50.46875,67.59375 C 52.57874,67.59375 54.970011,66.481263 55.90625,64.4375 L 55.96875,64.4375 L 55.96875,67.1875 L 58.03125,67.1875 C 57.865,66.01375 57.875,64.967501 57.875,63.59375 L 57.875,56.0625 C 57.875,51.60998 56.092502,49.718748 51.875,49.71875 z M 75.34375,49.71875 C 73.83999,49.71875 71.619991,50.239999 70.3125,50.875 L 70.3125,52.90625 C 71.88623,51.90125 73.57001,51.5 75.34375,51.5 C 78.19,51.5 79.218751,52.99251 79.21875,55.90625 L 79.21875,56.78125 L 78.8125,56.78125 C 74.39626,56.78125 68.3125,57.024999 68.3125,62.75 C 68.3125,64.28875 69.079987,67.593751 73.9375,67.59375 C 76.04374,67.59375 78.406248,66.481263 79.34375,64.4375 L 79.40625,64.4375 L 79.40625,67.1875 L 81.5,67.1875 C 81.33124,66.01375 81.312501,64.967501 81.3125,63.59375 L 81.3125,56.0625 C 81.3125,51.60998 79.5625,49.718748 75.34375,49.71875 z M 0.5625,50.09375 L 6,58.125 L 0,67.1875 L 2.4375,67.1875 L 7.21875,59.8125 L 11.71875,67.1875 L 14.34375,67.1875 L 8.46875,58.125 L 13.75,50.09375 L 11.34375,50.09375 L 7.21875,56.46875 L 3.1875,50.09375 L 0.5625,50.09375 z M 55.15625,58.5625 L 55.75,58.5625 L 55.75,59.625 C 55.75,61.465 55.673758,65.781249 50.71875,65.78125 C 48.77875,65.78125 47.156249,64.928752 47.15625,62.6875 C 47.15625,58.9375 51.507509,58.562499 55.15625,58.5625 z M 78.625,58.5625 L 79.21875,58.5625 L 79.21875,59.625 C 79.21875,61.465 79.112508,65.781249 74.15625,65.78125 C 72.21751,65.78125 70.625002,64.928752 70.625,62.6875 C 70.625,58.9375 74.975,58.562499 78.625,58.5625 z "
       transform="translate(334.25187,498.54156)"
       style="fill:#204395;fill-opacity:1;fill-rule:nonzero;stroke:none"
       id="path8755" />
    <path
       d="M 415.74813,498.9528 L 415.74813,498.54156 C 395.29437,498.54156 381.37562,504.0878 374.99938,510.83656 C 368.62311,504.0878 354.70563,498.54156 334.25187,498.54156 L 334.25187,498.9528 C 352.38063,498.9528 371.02937,509.33155 371.02937,519.4678 C 371.02937,529.60531 352.38063,539.98405 334.25187,539.98405 L 334.25187,540.39529 C 354.70563,540.39529 368.62311,534.84781 374.99938,528.1003 C 381.37562,534.84781 395.29437,540.39529 415.74813,540.39529 L 415.74813,539.98405 C 397.61811,539.98405 378.97061,529.60531 378.97061,519.4678 C 378.97061,509.33155 397.61811,498.9528 415.74813,498.9528"
       style="fill:#967e72;fill-opacity:1;fill-rule:nonzero;stroke:none"
       id="path8769" />
  </g>
</svg>
